<?xml version="1.0" encoding="utf-8" standalone="no"?>
<!DOCTYPE svg PUBLIC "-//W3C//DTD SVG 1.1//EN"
  "http://www.w3.org/Graphics/SVG/1.1/DTD/svg11.dtd">
<!-- Created with matplotlib (https://matplotlib.org/) -->
<svg height="519.730375pt" version="1.1" viewBox="0 0 724.195625 519.730375" width="724.195625pt" xmlns="http://www.w3.org/2000/svg" xmlns:xlink="http://www.w3.org/1999/xlink">
 <metadata>
  <rdf:RDF xmlns:cc="http://creativecommons.org/ns#" xmlns:dc="http://purl.org/dc/elements/1.1/" xmlns:rdf="http://www.w3.org/1999/02/22-rdf-syntax-ns#">
   <cc:Work>
    <dc:type rdf:resource="http://purl.org/dc/dcmitype/StillImage"/>
    <dc:date>2020-09-17T14:22:39.230612</dc:date>
    <dc:format>image/svg+xml</dc:format>
    <dc:creator>
     <cc:Agent>
      <dc:title>Matplotlib v3.3.0, https://matplotlib.org/</dc:title>
     </cc:Agent>
    </dc:creator>
   </cc:Work>
  </rdf:RDF>
 </metadata>
 <defs>
  <style type="text/css">*{stroke-linecap:butt;stroke-linejoin:round;}</style>
 </defs>
 <g id="figure_1">
  <g id="patch_1">
   <path d="M 0 519.730375 
L 724.195625 519.730375 
L 724.195625 0 
L 0 0 
z
" style="fill:#ffffff;"/>
  </g>
  <g id="axes_1">
   <g id="patch_2">
    <path d="M 139.908125 495.85225 
L 697.908125 495.85225 
L 697.908125 52.33225 
L 139.908125 52.33225 
z
" style="fill:#ffffff;"/>
   </g>
   <g id="patch_3">
    <path clip-path="url(#p99ce2b38a5)" d="M 349.158125 56.76745 
L 345.266075 56.76745 
L 345.266075 92.24905 
L 349.158125 92.24905 
z
" style="fill:#655998;"/>
   </g>
   <g id="patch_4">
    <path clip-path="url(#p99ce2b38a5)" d="M 349.158125 101.11945 
L 348.708237 101.11945 
L 348.708237 136.60105 
L 349.158125 136.60105 
z
" style="fill:#655998;"/>
   </g>
   <g id="patch_5">
    <path clip-path="url(#p99ce2b38a5)" d="M 349.158125 145.47145 
L 228.4139 145.47145 
L 228.4139 180.95305 
L 349.158125 180.95305 
z
" style="fill:#655998;"/>
   </g>
   <g id="patch_6">
    <path clip-path="url(#p99ce2b38a5)" d="M 349.158125 189.82345 
L 349.063963 189.82345 
L 349.063963 225.30505 
L 349.158125 225.30505 
z
" style="fill:#655998;"/>
   </g>
   <g id="patch_7">
    <path clip-path="url(#p99ce2b38a5)" d="M 349.158125 234.17545 
L 348.7187 234.17545 
L 348.7187 269.65705 
L 349.158125 269.65705 
z
" style="fill:#655998;"/>
   </g>
   <g id="patch_8">
    <path clip-path="url(#p99ce2b38a5)" d="M 349.158125 278.52745 
L 348.575713 278.52745 
L 348.575713 314.00905 
L 349.158125 314.00905 
z
" style="fill:#655998;"/>
   </g>
   <g id="patch_9">
    <path clip-path="url(#p99ce2b38a5)" d="M 349.158125 322.87945 
L 344.3105 322.87945 
L 344.3105 358.36105 
L 349.158125 358.36105 
z
" style="fill:#655998;"/>
   </g>
   <g id="patch_10">
    <path clip-path="url(#p99ce2b38a5)" d="M 349.158125 367.23145 
L 336.51245 367.23145 
L 336.51245 402.71305 
L 349.158125 402.71305 
z
" style="fill:#655998;"/>
   </g>
   <g id="patch_11">
    <path clip-path="url(#p99ce2b38a5)" d="M 349.158125 411.58345 
L 329.948975 411.58345 
L 329.948975 447.06505 
L 349.158125 447.06505 
z
" style="fill:#655998;"/>
   </g>
   <g id="patch_12">
    <path clip-path="url(#p99ce2b38a5)" d="M 349.158125 455.93545 
L 349.158125 455.93545 
L 349.158125 491.41705 
L 349.158125 491.41705 
z
" style="fill:#655998;"/>
   </g>
   <g id="patch_13">
    <path clip-path="url(#p99ce2b38a5)" d="M 349.158125 56.76745 
L 358.542987 56.76745 
L 358.542987 92.24905 
L 349.158125 92.24905 
z
" style="fill:#8a1545;"/>
   </g>
   <g id="patch_14">
    <path clip-path="url(#p99ce2b38a5)" d="M 349.158125 101.11945 
L 351.21575 101.11945 
L 351.21575 136.60105 
L 349.158125 136.60105 
z
" style="fill:#8a1545;"/>
   </g>
   <g id="patch_15">
    <path clip-path="url(#p99ce2b38a5)" d="M 349.158125 145.47145 
L 629.507787 145.47145 
L 629.507787 180.95305 
L 349.158125 180.95305 
z
" style="fill:#8a1545;"/>
   </g>
   <g id="patch_16">
    <path clip-path="url(#p99ce2b38a5)" d="M 349.158125 189.82345 
L 349.252287 189.82345 
L 349.252287 225.30505 
L 349.158125 225.30505 
z
" style="fill:#8a1545;"/>
   </g>
   <g id="patch_17">
    <path clip-path="url(#p99ce2b38a5)" d="M 349.158125 234.17545 
L 349.771925 234.17545 
L 349.771925 269.65705 
L 349.158125 269.65705 
z
" style="fill:#8a1545;"/>
   </g>
   <g id="patch_18">
    <path clip-path="url(#p99ce2b38a5)" d="M 349.158125 278.52745 
L 350.751913 278.52745 
L 350.751913 314.00905 
L 349.158125 314.00905 
z
" style="fill:#8a1545;"/>
   </g>
   <g id="patch_19">
    <path clip-path="url(#p99ce2b38a5)" d="M 349.158125 322.87945 
L 358.97195 322.87945 
L 358.97195 358.36105 
L 349.158125 358.36105 
z
" style="fill:#8a1545;"/>
   </g>
   <g id="patch_20">
    <path clip-path="url(#p99ce2b38a5)" d="M 349.158125 367.23145 
L 369.179863 367.23145 
L 369.179863 402.71305 
L 349.158125 402.71305 
z
" style="fill:#8a1545;"/>
   </g>
   <g id="patch_21">
    <path clip-path="url(#p99ce2b38a5)" d="M 349.158125 411.58345 
L 375.722412 411.58345 
L 375.722412 447.06505 
L 349.158125 447.06505 
z
" style="fill:#8a1545;"/>
   </g>
   <g id="patch_22">
    <path clip-path="url(#p99ce2b38a5)" d="M 349.158125 455.93545 
L 349.158125 455.93545 
L 349.158125 491.41705 
L 349.158125 491.41705 
z
" style="fill:#8a1545;"/>
   </g>
   <g id="matplotlib.axis_1">
    <g id="xtick_1">
     <g id="line2d_1">
      <defs>
       <path d="M 0 0 
L 0 3.5 
" id="mc9e85b6e91" style="stroke:#000000;stroke-width:0.8;"/>
      </defs>
      <g>
       <use style="stroke:#000000;stroke-width:0.8;" x="139.908125" xlink:href="#mc9e85b6e91" y="495.85225"/>
      </g>
     </g>
     <g id="text_1">
      <!-- 60000 -->
      <g transform="translate(124.001875 510.450687)scale(0.1 -0.1)">
       <defs>
        <path d="M 33.015625 40.375 
Q 26.375 40.375 22.484375 35.828125 
Q 18.609375 31.296875 18.609375 23.390625 
Q 18.609375 15.53125 22.484375 10.953125 
Q 26.375 6.390625 33.015625 6.390625 
Q 39.65625 6.390625 43.53125 10.953125 
Q 47.40625 15.53125 47.40625 23.390625 
Q 47.40625 31.296875 43.53125 35.828125 
Q 39.65625 40.375 33.015625 40.375 
z
M 52.59375 71.296875 
L 52.59375 62.3125 
Q 48.875 64.0625 45.09375 64.984375 
Q 41.3125 65.921875 37.59375 65.921875 
Q 27.828125 65.921875 22.671875 59.328125 
Q 17.53125 52.734375 16.796875 39.40625 
Q 19.671875 43.65625 24.015625 45.921875 
Q 28.375 48.1875 33.59375 48.1875 
Q 44.578125 48.1875 50.953125 41.515625 
Q 57.328125 34.859375 57.328125 23.390625 
Q 57.328125 12.15625 50.6875 5.359375 
Q 44.046875 -1.421875 33.015625 -1.421875 
Q 20.359375 -1.421875 13.671875 8.265625 
Q 6.984375 17.96875 6.984375 36.375 
Q 6.984375 53.65625 15.1875 63.9375 
Q 23.390625 74.21875 37.203125 74.21875 
Q 40.921875 74.21875 44.703125 73.484375 
Q 48.484375 72.75 52.59375 71.296875 
z
" id="DejaVuSans-54"/>
        <path d="M 31.78125 66.40625 
Q 24.171875 66.40625 20.328125 58.90625 
Q 16.5 51.421875 16.5 36.375 
Q 16.5 21.390625 20.328125 13.890625 
Q 24.171875 6.390625 31.78125 6.390625 
Q 39.453125 6.390625 43.28125 13.890625 
Q 47.125 21.390625 47.125 36.375 
Q 47.125 51.421875 43.28125 58.90625 
Q 39.453125 66.40625 31.78125 66.40625 
z
M 31.78125 74.21875 
Q 44.046875 74.21875 50.515625 64.515625 
Q 56.984375 54.828125 56.984375 36.375 
Q 56.984375 17.96875 50.515625 8.265625 
Q 44.046875 -1.421875 31.78125 -1.421875 
Q 19.53125 -1.421875 13.0625 8.265625 
Q 6.59375 17.96875 6.59375 36.375 
Q 6.59375 54.828125 13.0625 64.515625 
Q 19.53125 74.21875 31.78125 74.21875 
z
" id="DejaVuSans-48"/>
       </defs>
       <use xlink:href="#DejaVuSans-54"/>
       <use x="63.623047" xlink:href="#DejaVuSans-48"/>
       <use x="127.246094" xlink:href="#DejaVuSans-48"/>
       <use x="190.869141" xlink:href="#DejaVuSans-48"/>
       <use x="254.492188" xlink:href="#DejaVuSans-48"/>
      </g>
     </g>
    </g>
    <g id="xtick_2">
     <g id="line2d_2">
      <g>
       <use style="stroke:#000000;stroke-width:0.8;" x="209.658125" xlink:href="#mc9e85b6e91" y="495.85225"/>
      </g>
     </g>
     <g id="text_2">
      <!-- 40000 -->
      <g transform="translate(193.751875 510.450687)scale(0.1 -0.1)">
       <defs>
        <path d="M 37.796875 64.3125 
L 12.890625 25.390625 
L 37.796875 25.390625 
z
M 35.203125 72.90625 
L 47.609375 72.90625 
L 47.609375 25.390625 
L 58.015625 25.390625 
L 58.015625 17.1875 
L 47.609375 17.1875 
L 47.609375 0 
L 37.796875 0 
L 37.796875 17.1875 
L 4.890625 17.1875 
L 4.890625 26.703125 
z
" id="DejaVuSans-52"/>
       </defs>
       <use xlink:href="#DejaVuSans-52"/>
       <use x="63.623047" xlink:href="#DejaVuSans-48"/>
       <use x="127.246094" xlink:href="#DejaVuSans-48"/>
       <use x="190.869141" xlink:href="#DejaVuSans-48"/>
       <use x="254.492188" xlink:href="#DejaVuSans-48"/>
      </g>
     </g>
    </g>
    <g id="xtick_3">
     <g id="line2d_3">
      <g>
       <use style="stroke:#000000;stroke-width:0.8;" x="279.408125" xlink:href="#mc9e85b6e91" y="495.85225"/>
      </g>
     </g>
     <g id="text_3">
      <!-- 20000 -->
      <g transform="translate(263.501875 510.450687)scale(0.1 -0.1)">
       <defs>
        <path d="M 19.1875 8.296875 
L 53.609375 8.296875 
L 53.609375 0 
L 7.328125 0 
L 7.328125 8.296875 
Q 12.9375 14.109375 22.625 23.890625 
Q 32.328125 33.6875 34.8125 36.53125 
Q 39.546875 41.84375 41.421875 45.53125 
Q 43.3125 49.21875 43.3125 52.78125 
Q 43.3125 58.59375 39.234375 62.25 
Q 35.15625 65.921875 28.609375 65.921875 
Q 23.96875 65.921875 18.8125 64.3125 
Q 13.671875 62.703125 7.8125 59.421875 
L 7.8125 69.390625 
Q 13.765625 71.78125 18.9375 73 
Q 24.125 74.21875 28.421875 74.21875 
Q 39.75 74.21875 46.484375 68.546875 
Q 53.21875 62.890625 53.21875 53.421875 
Q 53.21875 48.921875 51.53125 44.890625 
Q 49.859375 40.875 45.40625 35.40625 
Q 44.1875 33.984375 37.640625 27.21875 
Q 31.109375 20.453125 19.1875 8.296875 
z
" id="DejaVuSans-50"/>
       </defs>
       <use xlink:href="#DejaVuSans-50"/>
       <use x="63.623047" xlink:href="#DejaVuSans-48"/>
       <use x="127.246094" xlink:href="#DejaVuSans-48"/>
       <use x="190.869141" xlink:href="#DejaVuSans-48"/>
       <use x="254.492188" xlink:href="#DejaVuSans-48"/>
      </g>
     </g>
    </g>
    <g id="xtick_4">
     <g id="line2d_4">
      <g>
       <use style="stroke:#000000;stroke-width:0.8;" x="349.158125" xlink:href="#mc9e85b6e91" y="495.85225"/>
      </g>
     </g>
     <g id="text_4">
      <!-- 0 -->
      <g transform="translate(345.976875 510.450687)scale(0.1 -0.1)">
       <use xlink:href="#DejaVuSans-48"/>
      </g>
     </g>
    </g>
    <g id="xtick_5">
     <g id="line2d_5">
      <g>
       <use style="stroke:#000000;stroke-width:0.8;" x="418.908125" xlink:href="#mc9e85b6e91" y="495.85225"/>
      </g>
     </g>
     <g id="text_5">
      <!-- 20000 -->
      <g transform="translate(403.001875 510.450687)scale(0.1 -0.1)">
       <use xlink:href="#DejaVuSans-50"/>
       <use x="63.623047" xlink:href="#DejaVuSans-48"/>
       <use x="127.246094" xlink:href="#DejaVuSans-48"/>
       <use x="190.869141" xlink:href="#DejaVuSans-48"/>
       <use x="254.492188" xlink:href="#DejaVuSans-48"/>
      </g>
     </g>
    </g>
    <g id="xtick_6">
     <g id="line2d_6">
      <g>
       <use style="stroke:#000000;stroke-width:0.8;" x="488.658125" xlink:href="#mc9e85b6e91" y="495.85225"/>
      </g>
     </g>
     <g id="text_6">
      <!-- 40000 -->
      <g transform="translate(472.751875 510.450687)scale(0.1 -0.1)">
       <use xlink:href="#DejaVuSans-52"/>
       <use x="63.623047" xlink:href="#DejaVuSans-48"/>
       <use x="127.246094" xlink:href="#DejaVuSans-48"/>
       <use x="190.869141" xlink:href="#DejaVuSans-48"/>
       <use x="254.492188" xlink:href="#DejaVuSans-48"/>
      </g>
     </g>
    </g>
    <g id="xtick_7">
     <g id="line2d_7">
      <g>
       <use style="stroke:#000000;stroke-width:0.8;" x="558.408125" xlink:href="#mc9e85b6e91" y="495.85225"/>
      </g>
     </g>
     <g id="text_7">
      <!-- 60000 -->
      <g transform="translate(542.501875 510.450687)scale(0.1 -0.1)">
       <use xlink:href="#DejaVuSans-54"/>
       <use x="63.623047" xlink:href="#DejaVuSans-48"/>
       <use x="127.246094" xlink:href="#DejaVuSans-48"/>
       <use x="190.869141" xlink:href="#DejaVuSans-48"/>
       <use x="254.492188" xlink:href="#DejaVuSans-48"/>
      </g>
     </g>
    </g>
    <g id="xtick_8">
     <g id="line2d_8">
      <g>
       <use style="stroke:#000000;stroke-width:0.8;" x="628.158125" xlink:href="#mc9e85b6e91" y="495.85225"/>
      </g>
     </g>
     <g id="text_8">
      <!-- 80000 -->
      <g transform="translate(612.251875 510.450687)scale(0.1 -0.1)">
       <defs>
        <path d="M 31.78125 34.625 
Q 24.75 34.625 20.71875 30.859375 
Q 16.703125 27.09375 16.703125 20.515625 
Q 16.703125 13.921875 20.71875 10.15625 
Q 24.75 6.390625 31.78125 6.390625 
Q 38.8125 6.390625 42.859375 10.171875 
Q 46.921875 13.96875 46.921875 20.515625 
Q 46.921875 27.09375 42.890625 30.859375 
Q 38.875 34.625 31.78125 34.625 
z
M 21.921875 38.8125 
Q 15.578125 40.375 12.03125 44.71875 
Q 8.5 49.078125 8.5 55.328125 
Q 8.5 64.0625 14.71875 69.140625 
Q 20.953125 74.21875 31.78125 74.21875 
Q 42.671875 74.21875 48.875 69.140625 
Q 55.078125 64.0625 55.078125 55.328125 
Q 55.078125 49.078125 51.53125 44.71875 
Q 48 40.375 41.703125 38.8125 
Q 48.828125 37.15625 52.796875 32.3125 
Q 56.78125 27.484375 56.78125 20.515625 
Q 56.78125 9.90625 50.3125 4.234375 
Q 43.84375 -1.421875 31.78125 -1.421875 
Q 19.734375 -1.421875 13.25 4.234375 
Q 6.78125 9.90625 6.78125 20.515625 
Q 6.78125 27.484375 10.78125 32.3125 
Q 14.796875 37.15625 21.921875 38.8125 
z
M 18.3125 54.390625 
Q 18.3125 48.734375 21.84375 45.5625 
Q 25.390625 42.390625 31.78125 42.390625 
Q 38.140625 42.390625 41.71875 45.5625 
Q 45.3125 48.734375 45.3125 54.390625 
Q 45.3125 60.0625 41.71875 63.234375 
Q 38.140625 66.40625 31.78125 66.40625 
Q 25.390625 66.40625 21.84375 63.234375 
Q 18.3125 60.0625 18.3125 54.390625 
z
" id="DejaVuSans-56"/>
       </defs>
       <use xlink:href="#DejaVuSans-56"/>
       <use x="63.623047" xlink:href="#DejaVuSans-48"/>
       <use x="127.246094" xlink:href="#DejaVuSans-48"/>
       <use x="190.869141" xlink:href="#DejaVuSans-48"/>
       <use x="254.492188" xlink:href="#DejaVuSans-48"/>
      </g>
     </g>
    </g>
    <g id="xtick_9">
     <g id="line2d_9">
      <g>
       <use style="stroke:#000000;stroke-width:0.8;" x="697.908125" xlink:href="#mc9e85b6e91" y="495.85225"/>
      </g>
     </g>
     <g id="text_9">
      <!-- 100000 -->
      <g transform="translate(678.820625 510.450687)scale(0.1 -0.1)">
       <defs>
        <path d="M 12.40625 8.296875 
L 28.515625 8.296875 
L 28.515625 63.921875 
L 10.984375 60.40625 
L 10.984375 69.390625 
L 28.421875 72.90625 
L 38.28125 72.90625 
L 38.28125 8.296875 
L 54.390625 8.296875 
L 54.390625 0 
L 12.40625 0 
z
" id="DejaVuSans-49"/>
       </defs>
       <use xlink:href="#DejaVuSans-49"/>
       <use x="63.623047" xlink:href="#DejaVuSans-48"/>
       <use x="127.246094" xlink:href="#DejaVuSans-48"/>
       <use x="190.869141" xlink:href="#DejaVuSans-48"/>
       <use x="254.492188" xlink:href="#DejaVuSans-48"/>
       <use x="318.115234" xlink:href="#DejaVuSans-48"/>
      </g>
     </g>
    </g>
   </g>
   <g id="matplotlib.axis_2">
    <g id="ytick_1">
     <g id="line2d_10"/>
     <g id="text_10">
      <!-- OS03T0128700-01 -->
      <g transform="translate(7.2 79.067312)scale(0.12 -0.12)">
       <defs>
        <path d="M 39.40625 66.21875 
Q 28.65625 66.21875 22.328125 58.203125 
Q 16.015625 50.203125 16.015625 36.375 
Q 16.015625 22.609375 22.328125 14.59375 
Q 28.65625 6.59375 39.40625 6.59375 
Q 50.140625 6.59375 56.421875 14.59375 
Q 62.703125 22.609375 62.703125 36.375 
Q 62.703125 50.203125 56.421875 58.203125 
Q 50.140625 66.21875 39.40625 66.21875 
z
M 39.40625 74.21875 
Q 54.734375 74.21875 63.90625 63.9375 
Q 73.09375 53.65625 73.09375 36.375 
Q 73.09375 19.140625 63.90625 8.859375 
Q 54.734375 -1.421875 39.40625 -1.421875 
Q 24.03125 -1.421875 14.8125 8.828125 
Q 5.609375 19.09375 5.609375 36.375 
Q 5.609375 53.65625 14.8125 63.9375 
Q 24.03125 74.21875 39.40625 74.21875 
z
" id="DejaVuSans-79"/>
        <path d="M 53.515625 70.515625 
L 53.515625 60.890625 
Q 47.90625 63.578125 42.921875 64.890625 
Q 37.9375 66.21875 33.296875 66.21875 
Q 25.25 66.21875 20.875 63.09375 
Q 16.5 59.96875 16.5 54.203125 
Q 16.5 49.359375 19.40625 46.890625 
Q 22.3125 44.4375 30.421875 42.921875 
L 36.375 41.703125 
Q 47.40625 39.59375 52.65625 34.296875 
Q 57.90625 29 57.90625 20.125 
Q 57.90625 9.515625 50.796875 4.046875 
Q 43.703125 -1.421875 29.984375 -1.421875 
Q 24.8125 -1.421875 18.96875 -0.25 
Q 13.140625 0.921875 6.890625 3.21875 
L 6.890625 13.375 
Q 12.890625 10.015625 18.65625 8.296875 
Q 24.421875 6.59375 29.984375 6.59375 
Q 38.421875 6.59375 43.015625 9.90625 
Q 47.609375 13.234375 47.609375 19.390625 
Q 47.609375 24.75 44.3125 27.78125 
Q 41.015625 30.8125 33.5 32.328125 
L 27.484375 33.5 
Q 16.453125 35.6875 11.515625 40.375 
Q 6.59375 45.0625 6.59375 53.421875 
Q 6.59375 63.09375 13.40625 68.65625 
Q 20.21875 74.21875 32.171875 74.21875 
Q 37.3125 74.21875 42.625 73.28125 
Q 47.953125 72.359375 53.515625 70.515625 
z
" id="DejaVuSans-83"/>
        <path d="M 40.578125 39.3125 
Q 47.65625 37.796875 51.625 33 
Q 55.609375 28.21875 55.609375 21.1875 
Q 55.609375 10.40625 48.1875 4.484375 
Q 40.765625 -1.421875 27.09375 -1.421875 
Q 22.515625 -1.421875 17.65625 -0.515625 
Q 12.796875 0.390625 7.625 2.203125 
L 7.625 11.71875 
Q 11.71875 9.328125 16.59375 8.109375 
Q 21.484375 6.890625 26.8125 6.890625 
Q 36.078125 6.890625 40.9375 10.546875 
Q 45.796875 14.203125 45.796875 21.1875 
Q 45.796875 27.640625 41.28125 31.265625 
Q 36.765625 34.90625 28.71875 34.90625 
L 20.21875 34.90625 
L 20.21875 43.015625 
L 29.109375 43.015625 
Q 36.375 43.015625 40.234375 45.921875 
Q 44.09375 48.828125 44.09375 54.296875 
Q 44.09375 59.90625 40.109375 62.90625 
Q 36.140625 65.921875 28.71875 65.921875 
Q 24.65625 65.921875 20.015625 65.03125 
Q 15.375 64.15625 9.8125 62.3125 
L 9.8125 71.09375 
Q 15.4375 72.65625 20.34375 73.4375 
Q 25.25 74.21875 29.59375 74.21875 
Q 40.828125 74.21875 47.359375 69.109375 
Q 53.90625 64.015625 53.90625 55.328125 
Q 53.90625 49.265625 50.4375 45.09375 
Q 46.96875 40.921875 40.578125 39.3125 
z
" id="DejaVuSans-51"/>
        <path d="M -0.296875 72.90625 
L 61.375 72.90625 
L 61.375 64.59375 
L 35.5 64.59375 
L 35.5 0 
L 25.59375 0 
L 25.59375 64.59375 
L -0.296875 64.59375 
z
" id="DejaVuSans-84"/>
        <path d="M 8.203125 72.90625 
L 55.078125 72.90625 
L 55.078125 68.703125 
L 28.609375 0 
L 18.3125 0 
L 43.21875 64.59375 
L 8.203125 64.59375 
z
" id="DejaVuSans-55"/>
        <path d="M 4.890625 31.390625 
L 31.203125 31.390625 
L 31.203125 23.390625 
L 4.890625 23.390625 
z
" id="DejaVuSans-45"/>
       </defs>
       <use xlink:href="#DejaVuSans-79"/>
       <use x="78.710938" xlink:href="#DejaVuSans-83"/>
       <use x="142.1875" xlink:href="#DejaVuSans-48"/>
       <use x="205.810547" xlink:href="#DejaVuSans-51"/>
       <use x="269.433594" xlink:href="#DejaVuSans-84"/>
       <use x="330.517578" xlink:href="#DejaVuSans-48"/>
       <use x="394.140625" xlink:href="#DejaVuSans-49"/>
       <use x="457.763672" xlink:href="#DejaVuSans-50"/>
       <use x="521.386719" xlink:href="#DejaVuSans-56"/>
       <use x="585.009766" xlink:href="#DejaVuSans-55"/>
       <use x="648.632812" xlink:href="#DejaVuSans-48"/>
       <use x="712.255859" xlink:href="#DejaVuSans-48"/>
       <use x="775.878906" xlink:href="#DejaVuSans-45"/>
       <use x="811.962891" xlink:href="#DejaVuSans-48"/>
       <use x="875.585938" xlink:href="#DejaVuSans-49"/>
      </g>
     </g>
    </g>
    <g id="ytick_2">
     <g id="line2d_11"/>
     <g id="text_11">
      <!-- OS01T0633100-01 -->
      <g transform="translate(7.2 123.419312)scale(0.12 -0.12)">
       <use xlink:href="#DejaVuSans-79"/>
       <use x="78.710938" xlink:href="#DejaVuSans-83"/>
       <use x="142.1875" xlink:href="#DejaVuSans-48"/>
       <use x="205.810547" xlink:href="#DejaVuSans-49"/>
       <use x="269.433594" xlink:href="#DejaVuSans-84"/>
       <use x="330.517578" xlink:href="#DejaVuSans-48"/>
       <use x="394.140625" xlink:href="#DejaVuSans-54"/>
       <use x="457.763672" xlink:href="#DejaVuSans-51"/>
       <use x="521.386719" xlink:href="#DejaVuSans-51"/>
       <use x="585.009766" xlink:href="#DejaVuSans-49"/>
       <use x="648.632812" xlink:href="#DejaVuSans-48"/>
       <use x="712.255859" xlink:href="#DejaVuSans-48"/>
       <use x="775.878906" xlink:href="#DejaVuSans-45"/>
       <use x="811.962891" xlink:href="#DejaVuSans-48"/>
       <use x="875.585938" xlink:href="#DejaVuSans-49"/>
      </g>
     </g>
    </g>
    <g id="ytick_3">
     <g id="line2d_12"/>
     <g id="text_12">
      <!-- OS08T0345800-01 -->
      <g transform="translate(7.2 167.771312)scale(0.12 -0.12)">
       <defs>
        <path d="M 10.796875 72.90625 
L 49.515625 72.90625 
L 49.515625 64.59375 
L 19.828125 64.59375 
L 19.828125 46.734375 
Q 21.96875 47.46875 24.109375 47.828125 
Q 26.265625 48.1875 28.421875 48.1875 
Q 40.625 48.1875 47.75 41.5 
Q 54.890625 34.8125 54.890625 23.390625 
Q 54.890625 11.625 47.5625 5.09375 
Q 40.234375 -1.421875 26.90625 -1.421875 
Q 22.3125 -1.421875 17.546875 -0.640625 
Q 12.796875 0.140625 7.71875 1.703125 
L 7.71875 11.625 
Q 12.109375 9.234375 16.796875 8.0625 
Q 21.484375 6.890625 26.703125 6.890625 
Q 35.15625 6.890625 40.078125 11.328125 
Q 45.015625 15.765625 45.015625 23.390625 
Q 45.015625 31 40.078125 35.4375 
Q 35.15625 39.890625 26.703125 39.890625 
Q 22.75 39.890625 18.8125 39.015625 
Q 14.890625 38.140625 10.796875 36.28125 
z
" id="DejaVuSans-53"/>
       </defs>
       <use xlink:href="#DejaVuSans-79"/>
       <use x="78.710938" xlink:href="#DejaVuSans-83"/>
       <use x="142.1875" xlink:href="#DejaVuSans-48"/>
       <use x="205.810547" xlink:href="#DejaVuSans-56"/>
       <use x="269.433594" xlink:href="#DejaVuSans-84"/>
       <use x="330.517578" xlink:href="#DejaVuSans-48"/>
       <use x="394.140625" xlink:href="#DejaVuSans-51"/>
       <use x="457.763672" xlink:href="#DejaVuSans-52"/>
       <use x="521.386719" xlink:href="#DejaVuSans-53"/>
       <use x="585.009766" xlink:href="#DejaVuSans-56"/>
       <use x="648.632812" xlink:href="#DejaVuSans-48"/>
       <use x="712.255859" xlink:href="#DejaVuSans-48"/>
       <use x="775.878906" xlink:href="#DejaVuSans-45"/>
       <use x="811.962891" xlink:href="#DejaVuSans-48"/>
       <use x="875.585938" xlink:href="#DejaVuSans-49"/>
      </g>
     </g>
    </g>
    <g id="ytick_4">
     <g id="line2d_13"/>
     <g id="text_13">
      <!-- OS05T0453300-01 -->
      <g transform="translate(7.2 212.123312)scale(0.12 -0.12)">
       <use xlink:href="#DejaVuSans-79"/>
       <use x="78.710938" xlink:href="#DejaVuSans-83"/>
       <use x="142.1875" xlink:href="#DejaVuSans-48"/>
       <use x="205.810547" xlink:href="#DejaVuSans-53"/>
       <use x="269.433594" xlink:href="#DejaVuSans-84"/>
       <use x="330.517578" xlink:href="#DejaVuSans-48"/>
       <use x="394.140625" xlink:href="#DejaVuSans-52"/>
       <use x="457.763672" xlink:href="#DejaVuSans-53"/>
       <use x="521.386719" xlink:href="#DejaVuSans-51"/>
       <use x="585.009766" xlink:href="#DejaVuSans-51"/>
       <use x="648.632812" xlink:href="#DejaVuSans-48"/>
       <use x="712.255859" xlink:href="#DejaVuSans-48"/>
       <use x="775.878906" xlink:href="#DejaVuSans-45"/>
       <use x="811.962891" xlink:href="#DejaVuSans-48"/>
       <use x="875.585938" xlink:href="#DejaVuSans-49"/>
      </g>
     </g>
    </g>
    <g id="ytick_5">
     <g id="line2d_14"/>
     <g id="text_14">
      <!-- OS09T0508300-01 -->
      <g transform="translate(7.2 256.475312)scale(0.12 -0.12)">
       <defs>
        <path d="M 10.984375 1.515625 
L 10.984375 10.5 
Q 14.703125 8.734375 18.5 7.8125 
Q 22.3125 6.890625 25.984375 6.890625 
Q 35.75 6.890625 40.890625 13.453125 
Q 46.046875 20.015625 46.78125 33.40625 
Q 43.953125 29.203125 39.59375 26.953125 
Q 35.25 24.703125 29.984375 24.703125 
Q 19.046875 24.703125 12.671875 31.3125 
Q 6.296875 37.9375 6.296875 49.421875 
Q 6.296875 60.640625 12.9375 67.421875 
Q 19.578125 74.21875 30.609375 74.21875 
Q 43.265625 74.21875 49.921875 64.515625 
Q 56.59375 54.828125 56.59375 36.375 
Q 56.59375 19.140625 48.40625 8.859375 
Q 40.234375 -1.421875 26.421875 -1.421875 
Q 22.703125 -1.421875 18.890625 -0.6875 
Q 15.09375 0.046875 10.984375 1.515625 
z
M 30.609375 32.421875 
Q 37.25 32.421875 41.125 36.953125 
Q 45.015625 41.5 45.015625 49.421875 
Q 45.015625 57.28125 41.125 61.84375 
Q 37.25 66.40625 30.609375 66.40625 
Q 23.96875 66.40625 20.09375 61.84375 
Q 16.21875 57.28125 16.21875 49.421875 
Q 16.21875 41.5 20.09375 36.953125 
Q 23.96875 32.421875 30.609375 32.421875 
z
" id="DejaVuSans-57"/>
       </defs>
       <use xlink:href="#DejaVuSans-79"/>
       <use x="78.710938" xlink:href="#DejaVuSans-83"/>
       <use x="142.1875" xlink:href="#DejaVuSans-48"/>
       <use x="205.810547" xlink:href="#DejaVuSans-57"/>
       <use x="269.433594" xlink:href="#DejaVuSans-84"/>
       <use x="330.517578" xlink:href="#DejaVuSans-48"/>
       <use x="394.140625" xlink:href="#DejaVuSans-53"/>
       <use x="457.763672" xlink:href="#DejaVuSans-48"/>
       <use x="521.386719" xlink:href="#DejaVuSans-56"/>
       <use x="585.009766" xlink:href="#DejaVuSans-51"/>
       <use x="648.632812" xlink:href="#DejaVuSans-48"/>
       <use x="712.255859" xlink:href="#DejaVuSans-48"/>
       <use x="775.878906" xlink:href="#DejaVuSans-45"/>
       <use x="811.962891" xlink:href="#DejaVuSans-48"/>
       <use x="875.585938" xlink:href="#DejaVuSans-49"/>
      </g>
     </g>
    </g>
    <g id="ytick_6">
     <g id="line2d_15"/>
     <g id="text_15">
      <!-- OS03T0316200-01 -->
      <g transform="translate(7.2 300.827313)scale(0.12 -0.12)">
       <use xlink:href="#DejaVuSans-79"/>
       <use x="78.710938" xlink:href="#DejaVuSans-83"/>
       <use x="142.1875" xlink:href="#DejaVuSans-48"/>
       <use x="205.810547" xlink:href="#DejaVuSans-51"/>
       <use x="269.433594" xlink:href="#DejaVuSans-84"/>
       <use x="330.517578" xlink:href="#DejaVuSans-48"/>
       <use x="394.140625" xlink:href="#DejaVuSans-51"/>
       <use x="457.763672" xlink:href="#DejaVuSans-49"/>
       <use x="521.386719" xlink:href="#DejaVuSans-54"/>
       <use x="585.009766" xlink:href="#DejaVuSans-50"/>
       <use x="648.632812" xlink:href="#DejaVuSans-48"/>
       <use x="712.255859" xlink:href="#DejaVuSans-48"/>
       <use x="775.878906" xlink:href="#DejaVuSans-45"/>
       <use x="811.962891" xlink:href="#DejaVuSans-48"/>
       <use x="875.585938" xlink:href="#DejaVuSans-49"/>
      </g>
     </g>
    </g>
    <g id="ytick_7">
     <g id="line2d_16"/>
     <g id="text_16">
      <!-- OS04T0390800-01 -->
      <g transform="translate(7.2 345.179313)scale(0.12 -0.12)">
       <use xlink:href="#DejaVuSans-79"/>
       <use x="78.710938" xlink:href="#DejaVuSans-83"/>
       <use x="142.1875" xlink:href="#DejaVuSans-48"/>
       <use x="205.810547" xlink:href="#DejaVuSans-52"/>
       <use x="269.433594" xlink:href="#DejaVuSans-84"/>
       <use x="330.517578" xlink:href="#DejaVuSans-48"/>
       <use x="394.140625" xlink:href="#DejaVuSans-51"/>
       <use x="457.763672" xlink:href="#DejaVuSans-57"/>
       <use x="521.386719" xlink:href="#DejaVuSans-48"/>
       <use x="585.009766" xlink:href="#DejaVuSans-56"/>
       <use x="648.632812" xlink:href="#DejaVuSans-48"/>
       <use x="712.255859" xlink:href="#DejaVuSans-48"/>
       <use x="775.878906" xlink:href="#DejaVuSans-45"/>
       <use x="811.962891" xlink:href="#DejaVuSans-48"/>
       <use x="875.585938" xlink:href="#DejaVuSans-49"/>
      </g>
     </g>
    </g>
    <g id="ytick_8">
     <g id="line2d_17"/>
     <g id="text_17">
      <!-- OS10T0167300-01 -->
      <g transform="translate(7.2 389.531313)scale(0.12 -0.12)">
       <use xlink:href="#DejaVuSans-79"/>
       <use x="78.710938" xlink:href="#DejaVuSans-83"/>
       <use x="142.1875" xlink:href="#DejaVuSans-49"/>
       <use x="205.810547" xlink:href="#DejaVuSans-48"/>
       <use x="269.433594" xlink:href="#DejaVuSans-84"/>
       <use x="330.517578" xlink:href="#DejaVuSans-48"/>
       <use x="394.140625" xlink:href="#DejaVuSans-49"/>
       <use x="457.763672" xlink:href="#DejaVuSans-54"/>
       <use x="521.386719" xlink:href="#DejaVuSans-55"/>
       <use x="585.009766" xlink:href="#DejaVuSans-51"/>
       <use x="648.632812" xlink:href="#DejaVuSans-48"/>
       <use x="712.255859" xlink:href="#DejaVuSans-48"/>
       <use x="775.878906" xlink:href="#DejaVuSans-45"/>
       <use x="811.962891" xlink:href="#DejaVuSans-48"/>
       <use x="875.585938" xlink:href="#DejaVuSans-49"/>
      </g>
     </g>
    </g>
    <g id="ytick_9">
     <g id="line2d_18"/>
     <g id="text_18">
      <!-- OS12T0244100-03 -->
      <g transform="translate(7.2 433.883312)scale(0.12 -0.12)">
       <use xlink:href="#DejaVuSans-79"/>
       <use x="78.710938" xlink:href="#DejaVuSans-83"/>
       <use x="142.1875" xlink:href="#DejaVuSans-49"/>
       <use x="205.810547" xlink:href="#DejaVuSans-50"/>
       <use x="269.433594" xlink:href="#DejaVuSans-84"/>
       <use x="330.517578" xlink:href="#DejaVuSans-48"/>
       <use x="394.140625" xlink:href="#DejaVuSans-50"/>
       <use x="457.763672" xlink:href="#DejaVuSans-52"/>
       <use x="521.386719" xlink:href="#DejaVuSans-52"/>
       <use x="585.009766" xlink:href="#DejaVuSans-49"/>
       <use x="648.632812" xlink:href="#DejaVuSans-48"/>
       <use x="712.255859" xlink:href="#DejaVuSans-48"/>
       <use x="775.878906" xlink:href="#DejaVuSans-45"/>
       <use x="811.962891" xlink:href="#DejaVuSans-48"/>
       <use x="875.585938" xlink:href="#DejaVuSans-51"/>
      </g>
     </g>
    </g>
    <g id="ytick_10">
     <g id="line2d_19"/>
     <g id="text_19">
      <!-- OS12T0244100-04 -->
      <g transform="translate(7.2 478.235312)scale(0.12 -0.12)">
       <use xlink:href="#DejaVuSans-79"/>
       <use x="78.710938" xlink:href="#DejaVuSans-83"/>
       <use x="142.1875" xlink:href="#DejaVuSans-49"/>
       <use x="205.810547" xlink:href="#DejaVuSans-50"/>
       <use x="269.433594" xlink:href="#DejaVuSans-84"/>
       <use x="330.517578" xlink:href="#DejaVuSans-48"/>
       <use x="394.140625" xlink:href="#DejaVuSans-50"/>
       <use x="457.763672" xlink:href="#DejaVuSans-52"/>
       <use x="521.386719" xlink:href="#DejaVuSans-52"/>
       <use x="585.009766" xlink:href="#DejaVuSans-49"/>
       <use x="648.632812" xlink:href="#DejaVuSans-48"/>
       <use x="712.255859" xlink:href="#DejaVuSans-48"/>
       <use x="775.878906" xlink:href="#DejaVuSans-45"/>
       <use x="811.962891" xlink:href="#DejaVuSans-48"/>
       <use x="875.585938" xlink:href="#DejaVuSans-52"/>
      </g>
     </g>
    </g>
   </g>
   <g id="line2d_20">
    <path clip-path="url(#p99ce2b38a5)" d="M 0 0 
" style="fill:none;stroke:#424242;stroke-linecap:square;stroke-width:2.7;"/>
   </g>
   <g id="line2d_21">
    <path clip-path="url(#p99ce2b38a5)" d="M 0 0 
" style="fill:none;stroke:#424242;stroke-linecap:square;stroke-width:2.7;"/>
   </g>
   <g id="line2d_22">
    <path clip-path="url(#p99ce2b38a5)" d="M 0 0 
" style="fill:none;stroke:#424242;stroke-linecap:square;stroke-width:2.7;"/>
   </g>
   <g id="line2d_23">
    <path clip-path="url(#p99ce2b38a5)" d="M 0 0 
" style="fill:none;stroke:#424242;stroke-linecap:square;stroke-width:2.7;"/>
   </g>
   <g id="line2d_24">
    <path clip-path="url(#p99ce2b38a5)" d="M 0 0 
" style="fill:none;stroke:#424242;stroke-linecap:square;stroke-width:2.7;"/>
   </g>
   <g id="line2d_25">
    <path clip-path="url(#p99ce2b38a5)" d="M 0 0 
" style="fill:none;stroke:#424242;stroke-linecap:square;stroke-width:2.7;"/>
   </g>
   <g id="line2d_26">
    <path clip-path="url(#p99ce2b38a5)" d="M 0 0 
" style="fill:none;stroke:#424242;stroke-linecap:square;stroke-width:2.7;"/>
   </g>
   <g id="line2d_27">
    <path clip-path="url(#p99ce2b38a5)" d="M 0 0 
" style="fill:none;stroke:#424242;stroke-linecap:square;stroke-width:2.7;"/>
   </g>
   <g id="line2d_28">
    <path clip-path="url(#p99ce2b38a5)" d="M 0 0 
" style="fill:none;stroke:#424242;stroke-linecap:square;stroke-width:2.7;"/>
   </g>
   <g id="line2d_29">
    <path clip-path="url(#p99ce2b38a5)" d="M 0 0 
" style="fill:none;stroke:#424242;stroke-linecap:square;stroke-width:2.7;"/>
   </g>
   <g id="line2d_30">
    <path clip-path="url(#p99ce2b38a5)" d="M 0 0 
" style="fill:none;stroke:#424242;stroke-linecap:square;stroke-width:2.7;"/>
   </g>
   <g id="line2d_31">
    <path clip-path="url(#p99ce2b38a5)" d="M 0 0 
" style="fill:none;stroke:#424242;stroke-linecap:square;stroke-width:2.7;"/>
   </g>
   <g id="line2d_32">
    <path clip-path="url(#p99ce2b38a5)" d="M 0 0 
" style="fill:none;stroke:#424242;stroke-linecap:square;stroke-width:2.7;"/>
   </g>
   <g id="line2d_33">
    <path clip-path="url(#p99ce2b38a5)" d="M 0 0 
" style="fill:none;stroke:#424242;stroke-linecap:square;stroke-width:2.7;"/>
   </g>
   <g id="line2d_34">
    <path clip-path="url(#p99ce2b38a5)" d="M 0 0 
" style="fill:none;stroke:#424242;stroke-linecap:square;stroke-width:2.7;"/>
   </g>
   <g id="line2d_35">
    <path clip-path="url(#p99ce2b38a5)" d="M 0 0 
" style="fill:none;stroke:#424242;stroke-linecap:square;stroke-width:2.7;"/>
   </g>
   <g id="line2d_36">
    <path clip-path="url(#p99ce2b38a5)" d="M 0 0 
" style="fill:none;stroke:#424242;stroke-linecap:square;stroke-width:2.7;"/>
   </g>
   <g id="line2d_37">
    <path clip-path="url(#p99ce2b38a5)" d="M 0 0 
" style="fill:none;stroke:#424242;stroke-linecap:square;stroke-width:2.7;"/>
   </g>
   <g id="line2d_38">
    <path clip-path="url(#p99ce2b38a5)" d="M 0 0 
" style="fill:none;stroke:#424242;stroke-linecap:square;stroke-width:2.7;"/>
   </g>
   <g id="line2d_39">
    <path clip-path="url(#p99ce2b38a5)" d="M 0 0 
" style="fill:none;stroke:#424242;stroke-linecap:square;stroke-width:2.7;"/>
   </g>
   <g id="patch_23">
    <path d="M 139.908125 495.85225 
L 139.908125 52.33225 
" style="fill:none;"/>
   </g>
   <g id="patch_24">
    <path d="M 697.908125 495.85225 
L 697.908125 52.33225 
" style="fill:none;"/>
   </g>
   <g id="patch_25">
    <path d="M 139.908125 495.85225 
L 697.908125 495.85225 
" style="fill:none;stroke:#000000;stroke-linecap:square;stroke-linejoin:miter;stroke-width:0.8;"/>
   </g>
   <g id="patch_26">
    <path d="M 139.908125 52.33225 
L 697.908125 52.33225 
" style="fill:none;"/>
   </g>
   <g id="text_20">
    <!-- 1116 -->
    <g transform="translate(319.816075 77.267625)scale(0.1 -0.1)">
     <use xlink:href="#DejaVuSans-49"/>
     <use x="63.623047" xlink:href="#DejaVuSans-49"/>
     <use x="127.246094" xlink:href="#DejaVuSans-49"/>
     <use x="190.869141" xlink:href="#DejaVuSans-54"/>
    </g>
   </g>
   <g id="text_21">
    <!-- 2691 -->
    <g transform="translate(358.542987 77.267625)scale(0.1 -0.1)">
     <use xlink:href="#DejaVuSans-50"/>
     <use x="63.623047" xlink:href="#DejaVuSans-54"/>
     <use x="127.246094" xlink:href="#DejaVuSans-57"/>
     <use x="190.869141" xlink:href="#DejaVuSans-49"/>
    </g>
   </g>
   <g id="text_22">
    <!-- 129 -->
    <g transform="translate(329.620738 121.619625)scale(0.1 -0.1)">
     <use xlink:href="#DejaVuSans-49"/>
     <use x="63.623047" xlink:href="#DejaVuSans-50"/>
     <use x="127.246094" xlink:href="#DejaVuSans-57"/>
    </g>
   </g>
   <g id="text_23">
    <!-- 590 -->
    <g transform="translate(351.21575 121.619625)scale(0.1 -0.1)">
     <use xlink:href="#DejaVuSans-53"/>
     <use x="63.623047" xlink:href="#DejaVuSans-57"/>
     <use x="127.246094" xlink:href="#DejaVuSans-48"/>
    </g>
   </g>
   <g id="text_24">
    <!-- 34622 -->
    <g transform="translate(196.6014 165.971625)scale(0.1 -0.1)">
     <use xlink:href="#DejaVuSans-51"/>
     <use x="63.623047" xlink:href="#DejaVuSans-52"/>
     <use x="127.246094" xlink:href="#DejaVuSans-54"/>
     <use x="190.869141" xlink:href="#DejaVuSans-50"/>
     <use x="254.492188" xlink:href="#DejaVuSans-50"/>
    </g>
   </g>
   <g id="text_25">
    <!-- 80387 -->
    <g transform="translate(629.507787 165.971625)scale(0.1 -0.1)">
     <use xlink:href="#DejaVuSans-56"/>
     <use x="63.623047" xlink:href="#DejaVuSans-48"/>
     <use x="127.246094" xlink:href="#DejaVuSans-51"/>
     <use x="190.869141" xlink:href="#DejaVuSans-56"/>
     <use x="254.492188" xlink:href="#DejaVuSans-55"/>
    </g>
   </g>
   <g id="text_26">
    <!-- 27 -->
    <g transform="translate(336.338962 210.323625)scale(0.1 -0.1)">
     <use xlink:href="#DejaVuSans-50"/>
     <use x="63.623047" xlink:href="#DejaVuSans-55"/>
    </g>
   </g>
   <g id="text_27">
    <!-- 27 -->
    <g transform="translate(349.252287 210.323625)scale(0.1 -0.1)">
     <use xlink:href="#DejaVuSans-50"/>
     <use x="63.623047" xlink:href="#DejaVuSans-55"/>
    </g>
   </g>
   <g id="text_28">
    <!-- 126 -->
    <g transform="translate(329.6312 254.675625)scale(0.1 -0.1)">
     <use xlink:href="#DejaVuSans-49"/>
     <use x="63.623047" xlink:href="#DejaVuSans-50"/>
     <use x="127.246094" xlink:href="#DejaVuSans-54"/>
    </g>
   </g>
   <g id="text_29">
    <!-- 176 -->
    <g transform="translate(349.771925 254.675625)scale(0.1 -0.1)">
     <use xlink:href="#DejaVuSans-49"/>
     <use x="63.623047" xlink:href="#DejaVuSans-55"/>
     <use x="127.246094" xlink:href="#DejaVuSans-54"/>
    </g>
   </g>
   <g id="text_30">
    <!-- 167 -->
    <g transform="translate(329.488213 299.027625)scale(0.1 -0.1)">
     <use xlink:href="#DejaVuSans-49"/>
     <use x="63.623047" xlink:href="#DejaVuSans-54"/>
     <use x="127.246094" xlink:href="#DejaVuSans-55"/>
    </g>
   </g>
   <g id="text_31">
    <!-- 457 -->
    <g transform="translate(350.751913 299.027625)scale(0.1 -0.1)">
     <use xlink:href="#DejaVuSans-52"/>
     <use x="63.623047" xlink:href="#DejaVuSans-53"/>
     <use x="127.246094" xlink:href="#DejaVuSans-55"/>
    </g>
   </g>
   <g id="text_32">
    <!-- 1390 -->
    <g transform="translate(318.8605 343.379625)scale(0.1 -0.1)">
     <use xlink:href="#DejaVuSans-49"/>
     <use x="63.623047" xlink:href="#DejaVuSans-51"/>
     <use x="127.246094" xlink:href="#DejaVuSans-57"/>
     <use x="190.869141" xlink:href="#DejaVuSans-48"/>
    </g>
   </g>
   <g id="text_33">
    <!-- 2814 -->
    <g transform="translate(358.97195 343.379625)scale(0.1 -0.1)">
     <use xlink:href="#DejaVuSans-50"/>
     <use x="63.623047" xlink:href="#DejaVuSans-56"/>
     <use x="127.246094" xlink:href="#DejaVuSans-49"/>
     <use x="190.869141" xlink:href="#DejaVuSans-52"/>
    </g>
   </g>
   <g id="text_34">
    <!-- 3626 -->
    <g transform="translate(311.06245 387.731625)scale(0.1 -0.1)">
     <use xlink:href="#DejaVuSans-51"/>
     <use x="63.623047" xlink:href="#DejaVuSans-54"/>
     <use x="127.246094" xlink:href="#DejaVuSans-50"/>
     <use x="190.869141" xlink:href="#DejaVuSans-54"/>
    </g>
   </g>
   <g id="text_35">
    <!-- 5741 -->
    <g transform="translate(369.179863 387.731625)scale(0.1 -0.1)">
     <use xlink:href="#DejaVuSans-53"/>
     <use x="63.623047" xlink:href="#DejaVuSans-55"/>
     <use x="127.246094" xlink:href="#DejaVuSans-52"/>
     <use x="190.869141" xlink:href="#DejaVuSans-49"/>
    </g>
   </g>
   <g id="text_36">
    <!-- 5508 -->
    <g transform="translate(304.498975 432.083625)scale(0.1 -0.1)">
     <use xlink:href="#DejaVuSans-53"/>
     <use x="63.623047" xlink:href="#DejaVuSans-53"/>
     <use x="127.246094" xlink:href="#DejaVuSans-48"/>
     <use x="190.869141" xlink:href="#DejaVuSans-56"/>
    </g>
   </g>
   <g id="text_37">
    <!-- 7617 -->
    <g transform="translate(375.722412 432.083625)scale(0.1 -0.1)">
     <use xlink:href="#DejaVuSans-55"/>
     <use x="63.623047" xlink:href="#DejaVuSans-54"/>
     <use x="127.246094" xlink:href="#DejaVuSans-49"/>
     <use x="190.869141" xlink:href="#DejaVuSans-55"/>
    </g>
   </g>
   <g id="text_38">
    <!-- 0 -->
    <g transform="translate(342.795625 476.435625)scale(0.1 -0.1)">
     <use xlink:href="#DejaVuSans-48"/>
    </g>
   </g>
   <g id="text_39">
    <!-- 0 -->
    <g transform="translate(349.158125 476.435625)scale(0.1 -0.1)">
     <use xlink:href="#DejaVuSans-48"/>
    </g>
   </g>
   <g id="legend_1">
    <g id="patch_27">
     <path d="M 179.558125 25.15625 
L 467.708125 25.15625 
Q 469.708125 25.15625 469.708125 23.15625 
L 469.708125 9.2 
Q 469.708125 7.2 467.708125 7.2 
L 179.558125 7.2 
Q 177.558125 7.2 177.558125 9.2 
L 177.558125 23.15625 
Q 177.558125 25.15625 179.558125 25.15625 
z
" style="fill:#ffffff;opacity:0.8;stroke:#cccccc;stroke-linejoin:miter;"/>
    </g>
    <g id="patch_28">
     <path d="M 181.558125 18.798437 
L 201.558125 18.798437 
L 201.558125 11.798437 
L 181.558125 11.798437 
z
" style="fill:#655998;"/>
    </g>
    <g id="text_40">
     <!-- AR-Ds-Lnc-2-1_count -->
     <g transform="translate(209.558125 18.798437)scale(0.1 -0.1)">
      <defs>
       <path d="M 34.1875 63.1875 
L 20.796875 26.90625 
L 47.609375 26.90625 
z
M 28.609375 72.90625 
L 39.796875 72.90625 
L 67.578125 0 
L 57.328125 0 
L 50.6875 18.703125 
L 17.828125 18.703125 
L 11.1875 0 
L 0.78125 0 
z
" id="DejaVuSans-65"/>
       <path d="M 44.390625 34.1875 
Q 47.5625 33.109375 50.5625 29.59375 
Q 53.5625 26.078125 56.59375 19.921875 
L 66.609375 0 
L 56 0 
L 46.6875 18.703125 
Q 43.0625 26.03125 39.671875 28.421875 
Q 36.28125 30.8125 30.421875 30.8125 
L 19.671875 30.8125 
L 19.671875 0 
L 9.8125 0 
L 9.8125 72.90625 
L 32.078125 72.90625 
Q 44.578125 72.90625 50.734375 67.671875 
Q 56.890625 62.453125 56.890625 51.90625 
Q 56.890625 45.015625 53.6875 40.46875 
Q 50.484375 35.9375 44.390625 34.1875 
z
M 19.671875 64.796875 
L 19.671875 38.921875 
L 32.078125 38.921875 
Q 39.203125 38.921875 42.84375 42.21875 
Q 46.484375 45.515625 46.484375 51.90625 
Q 46.484375 58.296875 42.84375 61.546875 
Q 39.203125 64.796875 32.078125 64.796875 
z
" id="DejaVuSans-82"/>
       <path d="M 19.671875 64.796875 
L 19.671875 8.109375 
L 31.59375 8.109375 
Q 46.6875 8.109375 53.6875 14.9375 
Q 60.6875 21.78125 60.6875 36.53125 
Q 60.6875 51.171875 53.6875 57.984375 
Q 46.6875 64.796875 31.59375 64.796875 
z
M 9.8125 72.90625 
L 30.078125 72.90625 
Q 51.265625 72.90625 61.171875 64.09375 
Q 71.09375 55.28125 71.09375 36.53125 
Q 71.09375 17.671875 61.125 8.828125 
Q 51.171875 0 30.078125 0 
L 9.8125 0 
z
" id="DejaVuSans-68"/>
       <path d="M 44.28125 53.078125 
L 44.28125 44.578125 
Q 40.484375 46.53125 36.375 47.5 
Q 32.28125 48.484375 27.875 48.484375 
Q 21.1875 48.484375 17.84375 46.4375 
Q 14.5 44.390625 14.5 40.28125 
Q 14.5 37.15625 16.890625 35.375 
Q 19.28125 33.59375 26.515625 31.984375 
L 29.59375 31.296875 
Q 39.15625 29.25 43.1875 25.515625 
Q 47.21875 21.78125 47.21875 15.09375 
Q 47.21875 7.46875 41.1875 3.015625 
Q 35.15625 -1.421875 24.609375 -1.421875 
Q 20.21875 -1.421875 15.453125 -0.5625 
Q 10.6875 0.296875 5.421875 2 
L 5.421875 11.28125 
Q 10.40625 8.6875 15.234375 7.390625 
Q 20.0625 6.109375 24.8125 6.109375 
Q 31.15625 6.109375 34.5625 8.28125 
Q 37.984375 10.453125 37.984375 14.40625 
Q 37.984375 18.0625 35.515625 20.015625 
Q 33.0625 21.96875 24.703125 23.78125 
L 21.578125 24.515625 
Q 13.234375 26.265625 9.515625 29.90625 
Q 5.8125 33.546875 5.8125 39.890625 
Q 5.8125 47.609375 11.28125 51.796875 
Q 16.75 56 26.8125 56 
Q 31.78125 56 36.171875 55.265625 
Q 40.578125 54.546875 44.28125 53.078125 
z
" id="DejaVuSans-115"/>
       <path d="M 9.8125 72.90625 
L 19.671875 72.90625 
L 19.671875 8.296875 
L 55.171875 8.296875 
L 55.171875 0 
L 9.8125 0 
z
" id="DejaVuSans-76"/>
       <path d="M 54.890625 33.015625 
L 54.890625 0 
L 45.90625 0 
L 45.90625 32.71875 
Q 45.90625 40.484375 42.875 44.328125 
Q 39.84375 48.1875 33.796875 48.1875 
Q 26.515625 48.1875 22.3125 43.546875 
Q 18.109375 38.921875 18.109375 30.90625 
L 18.109375 0 
L 9.078125 0 
L 9.078125 54.6875 
L 18.109375 54.6875 
L 18.109375 46.1875 
Q 21.34375 51.125 25.703125 53.5625 
Q 30.078125 56 35.796875 56 
Q 45.21875 56 50.046875 50.171875 
Q 54.890625 44.34375 54.890625 33.015625 
z
" id="DejaVuSans-110"/>
       <path d="M 48.78125 52.59375 
L 48.78125 44.1875 
Q 44.96875 46.296875 41.140625 47.34375 
Q 37.3125 48.390625 33.40625 48.390625 
Q 24.65625 48.390625 19.8125 42.84375 
Q 14.984375 37.3125 14.984375 27.296875 
Q 14.984375 17.28125 19.8125 11.734375 
Q 24.65625 6.203125 33.40625 6.203125 
Q 37.3125 6.203125 41.140625 7.25 
Q 44.96875 8.296875 48.78125 10.40625 
L 48.78125 2.09375 
Q 45.015625 0.34375 40.984375 -0.53125 
Q 36.96875 -1.421875 32.421875 -1.421875 
Q 20.0625 -1.421875 12.78125 6.34375 
Q 5.515625 14.109375 5.515625 27.296875 
Q 5.515625 40.671875 12.859375 48.328125 
Q 20.21875 56 33.015625 56 
Q 37.15625 56 41.109375 55.140625 
Q 45.0625 54.296875 48.78125 52.59375 
z
" id="DejaVuSans-99"/>
       <path d="M 50.984375 -16.609375 
L 50.984375 -23.578125 
L -0.984375 -23.578125 
L -0.984375 -16.609375 
z
" id="DejaVuSans-95"/>
       <path d="M 30.609375 48.390625 
Q 23.390625 48.390625 19.1875 42.75 
Q 14.984375 37.109375 14.984375 27.296875 
Q 14.984375 17.484375 19.15625 11.84375 
Q 23.34375 6.203125 30.609375 6.203125 
Q 37.796875 6.203125 41.984375 11.859375 
Q 46.1875 17.53125 46.1875 27.296875 
Q 46.1875 37.015625 41.984375 42.703125 
Q 37.796875 48.390625 30.609375 48.390625 
z
M 30.609375 56 
Q 42.328125 56 49.015625 48.375 
Q 55.71875 40.765625 55.71875 27.296875 
Q 55.71875 13.875 49.015625 6.21875 
Q 42.328125 -1.421875 30.609375 -1.421875 
Q 18.84375 -1.421875 12.171875 6.21875 
Q 5.515625 13.875 5.515625 27.296875 
Q 5.515625 40.765625 12.171875 48.375 
Q 18.84375 56 30.609375 56 
z
" id="DejaVuSans-111"/>
       <path d="M 8.5 21.578125 
L 8.5 54.6875 
L 17.484375 54.6875 
L 17.484375 21.921875 
Q 17.484375 14.15625 20.5 10.265625 
Q 23.53125 6.390625 29.59375 6.390625 
Q 36.859375 6.390625 41.078125 11.03125 
Q 45.3125 15.671875 45.3125 23.6875 
L 45.3125 54.6875 
L 54.296875 54.6875 
L 54.296875 0 
L 45.3125 0 
L 45.3125 8.40625 
Q 42.046875 3.421875 37.71875 1 
Q 33.40625 -1.421875 27.6875 -1.421875 
Q 18.265625 -1.421875 13.375 4.4375 
Q 8.5 10.296875 8.5 21.578125 
z
M 31.109375 56 
z
" id="DejaVuSans-117"/>
       <path d="M 18.3125 70.21875 
L 18.3125 54.6875 
L 36.8125 54.6875 
L 36.8125 47.703125 
L 18.3125 47.703125 
L 18.3125 18.015625 
Q 18.3125 11.328125 20.140625 9.421875 
Q 21.96875 7.515625 27.59375 7.515625 
L 36.8125 7.515625 
L 36.8125 0 
L 27.59375 0 
Q 17.1875 0 13.234375 3.875 
Q 9.28125 7.765625 9.28125 18.015625 
L 9.28125 47.703125 
L 2.6875 47.703125 
L 2.6875 54.6875 
L 9.28125 54.6875 
L 9.28125 70.21875 
z
" id="DejaVuSans-116"/>
      </defs>
      <use xlink:href="#DejaVuSans-65"/>
      <use x="68.408203" xlink:href="#DejaVuSans-82"/>
      <use x="133.890625" xlink:href="#DejaVuSans-45"/>
      <use x="169.974609" xlink:href="#DejaVuSans-68"/>
      <use x="246.976562" xlink:href="#DejaVuSans-115"/>
      <use x="299.076172" xlink:href="#DejaVuSans-45"/>
      <use x="335.160156" xlink:href="#DejaVuSans-76"/>
      <use x="390.873047" xlink:href="#DejaVuSans-110"/>
      <use x="454.251953" xlink:href="#DejaVuSans-99"/>
      <use x="509.232422" xlink:href="#DejaVuSans-45"/>
      <use x="545.316406" xlink:href="#DejaVuSans-50"/>
      <use x="608.939453" xlink:href="#DejaVuSans-45"/>
      <use x="645.023438" xlink:href="#DejaVuSans-49"/>
      <use x="708.646484" xlink:href="#DejaVuSans-95"/>
      <use x="758.646484" xlink:href="#DejaVuSans-99"/>
      <use x="813.626953" xlink:href="#DejaVuSans-111"/>
      <use x="874.808594" xlink:href="#DejaVuSans-117"/>
      <use x="938.1875" xlink:href="#DejaVuSans-110"/>
      <use x="1001.566406" xlink:href="#DejaVuSans-116"/>
     </g>
    </g>
    <g id="patch_29">
     <path d="M 333.633125 18.798437 
L 353.633125 18.798437 
L 353.633125 11.798437 
L 333.633125 11.798437 
z
" style="fill:#8a1545;"/>
    </g>
    <g id="text_41">
     <!-- AR-Ds-Lnc-2-2_count -->
     <g transform="translate(361.633125 18.798437)scale(0.1 -0.1)">
      <use xlink:href="#DejaVuSans-65"/>
      <use x="68.408203" xlink:href="#DejaVuSans-82"/>
      <use x="133.890625" xlink:href="#DejaVuSans-45"/>
      <use x="169.974609" xlink:href="#DejaVuSans-68"/>
      <use x="246.976562" xlink:href="#DejaVuSans-115"/>
      <use x="299.076172" xlink:href="#DejaVuSans-45"/>
      <use x="335.160156" xlink:href="#DejaVuSans-76"/>
      <use x="390.873047" xlink:href="#DejaVuSans-110"/>
      <use x="454.251953" xlink:href="#DejaVuSans-99"/>
      <use x="509.232422" xlink:href="#DejaVuSans-45"/>
      <use x="545.316406" xlink:href="#DejaVuSans-50"/>
      <use x="608.939453" xlink:href="#DejaVuSans-45"/>
      <use x="645.023438" xlink:href="#DejaVuSans-50"/>
      <use x="708.646484" xlink:href="#DejaVuSans-95"/>
      <use x="758.646484" xlink:href="#DejaVuSans-99"/>
      <use x="813.626953" xlink:href="#DejaVuSans-111"/>
      <use x="874.808594" xlink:href="#DejaVuSans-117"/>
      <use x="938.1875" xlink:href="#DejaVuSans-110"/>
      <use x="1001.566406" xlink:href="#DejaVuSans-116"/>
     </g>
    </g>
   </g>
  </g>
 </g>
 <defs>
  <clipPath id="p99ce2b38a5">
   <rect height="443.52" width="558" x="139.908125" y="52.33225"/>
  </clipPath>
 </defs>
</svg>
