<?xml version="1.0" encoding="utf-8" standalone="no"?>
<!DOCTYPE svg PUBLIC "-//W3C//DTD SVG 1.1//EN"
  "http://www.w3.org/Graphics/SVG/1.1/DTD/svg11.dtd">
<!-- Created with matplotlib (https://matplotlib.org/) -->
<svg height="715.439687pt" version="1.1" viewBox="0 0 657.683909 715.439687" width="657.683909pt" xmlns="http://www.w3.org/2000/svg" xmlns:xlink="http://www.w3.org/1999/xlink">
 <defs>
  <style type="text/css">
*{stroke-linecap:butt;stroke-linejoin:round;white-space:pre;}
  </style>
 </defs>
 <g id="figure_1">
  <g id="patch_1">
   <path d="M 0 715.439687 
L 657.683909 715.439687 
L 657.683909 0 
L 0 0 
z
" style="fill:#ffffff;"/>
  </g>
  <g id="axes_1">
   <g id="patch_2">
    <path d="M 247.655313 672.48 
L 470.855312 672.48 
L 470.855312 7.2 
L 247.655313 7.2 
z
" style="fill:#ffffff;"/>
   </g>
   <g id="matplotlib.axis_1">
    <g id="xtick_1">
     <g id="text_1">
      <!-- 0 -->
      <defs>
       <path d="M 31.78125 66.40625 
Q 24.171875 66.40625 20.328125 58.90625 
Q 16.5 51.421875 16.5 36.375 
Q 16.5 21.390625 20.328125 13.890625 
Q 24.171875 6.390625 31.78125 6.390625 
Q 39.453125 6.390625 43.28125 13.890625 
Q 47.125 21.390625 47.125 36.375 
Q 47.125 51.421875 43.28125 58.90625 
Q 39.453125 66.40625 31.78125 66.40625 
z
M 31.78125 74.21875 
Q 44.046875 74.21875 50.515625 64.515625 
Q 56.984375 54.828125 56.984375 36.375 
Q 56.984375 17.96875 50.515625 8.265625 
Q 44.046875 -1.421875 31.78125 -1.421875 
Q 19.53125 -1.421875 13.0625 8.265625 
Q 6.59375 17.96875 6.59375 36.375 
Q 6.59375 54.828125 13.0625 64.515625 
Q 19.53125 74.21875 31.78125 74.21875 
z
" id="DejaVuSans-48"/>
      </defs>
      <g style="fill:#262626;" transform="translate(244.155938 690.338281)scale(0.11 -0.11)">
       <use xlink:href="#DejaVuSans-48"/>
      </g>
     </g>
    </g>
    <g id="xtick_2">
     <g id="text_2">
      <!-- 20 -->
      <defs>
       <path d="M 19.1875 8.296875 
L 53.609375 8.296875 
L 53.609375 0 
L 7.328125 0 
L 7.328125 8.296875 
Q 12.9375 14.109375 22.625 23.890625 
Q 32.328125 33.6875 34.8125 36.53125 
Q 39.546875 41.84375 41.421875 45.53125 
Q 43.3125 49.21875 43.3125 52.78125 
Q 43.3125 58.59375 39.234375 62.25 
Q 35.15625 65.921875 28.609375 65.921875 
Q 23.96875 65.921875 18.8125 64.3125 
Q 13.671875 62.703125 7.8125 59.421875 
L 7.8125 69.390625 
Q 13.765625 71.78125 18.9375 73 
Q 24.125 74.21875 28.421875 74.21875 
Q 39.75 74.21875 46.484375 68.546875 
Q 53.21875 62.890625 53.21875 53.421875 
Q 53.21875 48.921875 51.53125 44.890625 
Q 49.859375 40.875 45.40625 35.40625 
Q 44.1875 33.984375 37.640625 27.21875 
Q 31.109375 20.453125 19.1875 8.296875 
z
" id="DejaVuSans-50"/>
      </defs>
      <g style="fill:#262626;" transform="translate(284.503804 690.338281)scale(0.11 -0.11)">
       <use xlink:href="#DejaVuSans-50"/>
       <use x="63.623047" xlink:href="#DejaVuSans-48"/>
      </g>
     </g>
    </g>
    <g id="xtick_3">
     <g id="text_3">
      <!-- 40 -->
      <defs>
       <path d="M 37.796875 64.3125 
L 12.890625 25.390625 
L 37.796875 25.390625 
z
M 35.203125 72.90625 
L 47.609375 72.90625 
L 47.609375 25.390625 
L 58.015625 25.390625 
L 58.015625 17.1875 
L 47.609375 17.1875 
L 47.609375 0 
L 37.796875 0 
L 37.796875 17.1875 
L 4.890625 17.1875 
L 4.890625 26.703125 
z
" id="DejaVuSans-52"/>
      </defs>
      <g style="fill:#262626;" transform="translate(328.351046 690.338281)scale(0.11 -0.11)">
       <use xlink:href="#DejaVuSans-52"/>
       <use x="63.623047" xlink:href="#DejaVuSans-48"/>
      </g>
     </g>
    </g>
    <g id="xtick_4">
     <g id="text_4">
      <!-- 60 -->
      <defs>
       <path d="M 33.015625 40.375 
Q 26.375 40.375 22.484375 35.828125 
Q 18.609375 31.296875 18.609375 23.390625 
Q 18.609375 15.53125 22.484375 10.953125 
Q 26.375 6.390625 33.015625 6.390625 
Q 39.65625 6.390625 43.53125 10.953125 
Q 47.40625 15.53125 47.40625 23.390625 
Q 47.40625 31.296875 43.53125 35.828125 
Q 39.65625 40.375 33.015625 40.375 
z
M 52.59375 71.296875 
L 52.59375 62.3125 
Q 48.875 64.0625 45.09375 64.984375 
Q 41.3125 65.921875 37.59375 65.921875 
Q 27.828125 65.921875 22.671875 59.328125 
Q 17.53125 52.734375 16.796875 39.40625 
Q 19.671875 43.65625 24.015625 45.921875 
Q 28.375 48.1875 33.59375 48.1875 
Q 44.578125 48.1875 50.953125 41.515625 
Q 57.328125 34.859375 57.328125 23.390625 
Q 57.328125 12.15625 50.6875 5.359375 
Q 44.046875 -1.421875 33.015625 -1.421875 
Q 20.359375 -1.421875 13.671875 8.265625 
Q 6.984375 17.96875 6.984375 36.375 
Q 6.984375 53.65625 15.1875 63.9375 
Q 23.390625 74.21875 37.203125 74.21875 
Q 40.921875 74.21875 44.703125 73.484375 
Q 48.484375 72.75 52.59375 71.296875 
z
" id="DejaVuSans-54"/>
      </defs>
      <g style="fill:#262626;" transform="translate(372.198288 690.338281)scale(0.11 -0.11)">
       <use xlink:href="#DejaVuSans-54"/>
       <use x="63.623047" xlink:href="#DejaVuSans-48"/>
      </g>
     </g>
    </g>
    <g id="xtick_5">
     <g id="text_5">
      <!-- 80 -->
      <defs>
       <path d="M 31.78125 34.625 
Q 24.75 34.625 20.71875 30.859375 
Q 16.703125 27.09375 16.703125 20.515625 
Q 16.703125 13.921875 20.71875 10.15625 
Q 24.75 6.390625 31.78125 6.390625 
Q 38.8125 6.390625 42.859375 10.171875 
Q 46.921875 13.96875 46.921875 20.515625 
Q 46.921875 27.09375 42.890625 30.859375 
Q 38.875 34.625 31.78125 34.625 
z
M 21.921875 38.8125 
Q 15.578125 40.375 12.03125 44.71875 
Q 8.5 49.078125 8.5 55.328125 
Q 8.5 64.0625 14.71875 69.140625 
Q 20.953125 74.21875 31.78125 74.21875 
Q 42.671875 74.21875 48.875 69.140625 
Q 55.078125 64.0625 55.078125 55.328125 
Q 55.078125 49.078125 51.53125 44.71875 
Q 48 40.375 41.703125 38.8125 
Q 48.828125 37.15625 52.796875 32.3125 
Q 56.78125 27.484375 56.78125 20.515625 
Q 56.78125 9.90625 50.3125 4.234375 
Q 43.84375 -1.421875 31.78125 -1.421875 
Q 19.734375 -1.421875 13.25 4.234375 
Q 6.78125 9.90625 6.78125 20.515625 
Q 6.78125 27.484375 10.78125 32.3125 
Q 14.796875 37.15625 21.921875 38.8125 
z
M 18.3125 54.390625 
Q 18.3125 48.734375 21.84375 45.5625 
Q 25.390625 42.390625 31.78125 42.390625 
Q 38.140625 42.390625 41.71875 45.5625 
Q 45.3125 48.734375 45.3125 54.390625 
Q 45.3125 60.0625 41.71875 63.234375 
Q 38.140625 66.40625 31.78125 66.40625 
Q 25.390625 66.40625 21.84375 63.234375 
Q 18.3125 60.0625 18.3125 54.390625 
z
" id="DejaVuSans-56"/>
      </defs>
      <g style="fill:#262626;" transform="translate(416.04553 690.338281)scale(0.11 -0.11)">
       <use xlink:href="#DejaVuSans-56"/>
       <use x="63.623047" xlink:href="#DejaVuSans-48"/>
      </g>
     </g>
    </g>
    <g id="xtick_6">
     <g id="text_6">
      <!-- 100 -->
      <defs>
       <path d="M 12.40625 8.296875 
L 28.515625 8.296875 
L 28.515625 63.921875 
L 10.984375 60.40625 
L 10.984375 69.390625 
L 28.421875 72.90625 
L 38.28125 72.90625 
L 38.28125 8.296875 
L 54.390625 8.296875 
L 54.390625 0 
L 12.40625 0 
z
" id="DejaVuSans-49"/>
      </defs>
      <g style="fill:#262626;" transform="translate(456.393397 690.338281)scale(0.11 -0.11)">
       <use xlink:href="#DejaVuSans-49"/>
       <use x="63.623047" xlink:href="#DejaVuSans-48"/>
       <use x="127.246094" xlink:href="#DejaVuSans-48"/>
      </g>
     </g>
    </g>
    <g id="text_7">
     <!-- Number -->
     <defs>
      <path d="M 9.8125 72.90625 
L 23.09375 72.90625 
L 55.421875 11.921875 
L 55.421875 72.90625 
L 64.984375 72.90625 
L 64.984375 0 
L 51.703125 0 
L 19.390625 60.984375 
L 19.390625 0 
L 9.8125 0 
z
" id="DejaVuSans-78"/>
      <path d="M 8.5 21.578125 
L 8.5 54.6875 
L 17.484375 54.6875 
L 17.484375 21.921875 
Q 17.484375 14.15625 20.5 10.265625 
Q 23.53125 6.390625 29.59375 6.390625 
Q 36.859375 6.390625 41.078125 11.03125 
Q 45.3125 15.671875 45.3125 23.6875 
L 45.3125 54.6875 
L 54.296875 54.6875 
L 54.296875 0 
L 45.3125 0 
L 45.3125 8.40625 
Q 42.046875 3.421875 37.71875 1 
Q 33.40625 -1.421875 27.6875 -1.421875 
Q 18.265625 -1.421875 13.375 4.4375 
Q 8.5 10.296875 8.5 21.578125 
z
M 31.109375 56 
z
" id="DejaVuSans-117"/>
      <path d="M 52 44.1875 
Q 55.375 50.25 60.0625 53.125 
Q 64.75 56 71.09375 56 
Q 79.640625 56 84.28125 50.015625 
Q 88.921875 44.046875 88.921875 33.015625 
L 88.921875 0 
L 79.890625 0 
L 79.890625 32.71875 
Q 79.890625 40.578125 77.09375 44.375 
Q 74.3125 48.1875 68.609375 48.1875 
Q 61.625 48.1875 57.5625 43.546875 
Q 53.515625 38.921875 53.515625 30.90625 
L 53.515625 0 
L 44.484375 0 
L 44.484375 32.71875 
Q 44.484375 40.625 41.703125 44.40625 
Q 38.921875 48.1875 33.109375 48.1875 
Q 26.21875 48.1875 22.15625 43.53125 
Q 18.109375 38.875 18.109375 30.90625 
L 18.109375 0 
L 9.078125 0 
L 9.078125 54.6875 
L 18.109375 54.6875 
L 18.109375 46.1875 
Q 21.1875 51.21875 25.484375 53.609375 
Q 29.78125 56 35.6875 56 
Q 41.65625 56 45.828125 52.96875 
Q 50 49.953125 52 44.1875 
z
" id="DejaVuSans-109"/>
      <path d="M 48.6875 27.296875 
Q 48.6875 37.203125 44.609375 42.84375 
Q 40.53125 48.484375 33.40625 48.484375 
Q 26.265625 48.484375 22.1875 42.84375 
Q 18.109375 37.203125 18.109375 27.296875 
Q 18.109375 17.390625 22.1875 11.75 
Q 26.265625 6.109375 33.40625 6.109375 
Q 40.53125 6.109375 44.609375 11.75 
Q 48.6875 17.390625 48.6875 27.296875 
z
M 18.109375 46.390625 
Q 20.953125 51.265625 25.265625 53.625 
Q 29.59375 56 35.59375 56 
Q 45.5625 56 51.78125 48.09375 
Q 58.015625 40.1875 58.015625 27.296875 
Q 58.015625 14.40625 51.78125 6.484375 
Q 45.5625 -1.421875 35.59375 -1.421875 
Q 29.59375 -1.421875 25.265625 0.953125 
Q 20.953125 3.328125 18.109375 8.203125 
L 18.109375 0 
L 9.078125 0 
L 9.078125 75.984375 
L 18.109375 75.984375 
z
" id="DejaVuSans-98"/>
      <path d="M 56.203125 29.59375 
L 56.203125 25.203125 
L 14.890625 25.203125 
Q 15.484375 15.921875 20.484375 11.0625 
Q 25.484375 6.203125 34.421875 6.203125 
Q 39.59375 6.203125 44.453125 7.46875 
Q 49.3125 8.734375 54.109375 11.28125 
L 54.109375 2.78125 
Q 49.265625 0.734375 44.1875 -0.34375 
Q 39.109375 -1.421875 33.890625 -1.421875 
Q 20.796875 -1.421875 13.15625 6.1875 
Q 5.515625 13.8125 5.515625 26.8125 
Q 5.515625 40.234375 12.765625 48.109375 
Q 20.015625 56 32.328125 56 
Q 43.359375 56 49.78125 48.890625 
Q 56.203125 41.796875 56.203125 29.59375 
z
M 47.21875 32.234375 
Q 47.125 39.59375 43.09375 43.984375 
Q 39.0625 48.390625 32.421875 48.390625 
Q 24.90625 48.390625 20.390625 44.140625 
Q 15.875 39.890625 15.1875 32.171875 
z
" id="DejaVuSans-101"/>
      <path d="M 41.109375 46.296875 
Q 39.59375 47.171875 37.8125 47.578125 
Q 36.03125 48 33.890625 48 
Q 26.265625 48 22.1875 43.046875 
Q 18.109375 38.09375 18.109375 28.8125 
L 18.109375 0 
L 9.078125 0 
L 9.078125 54.6875 
L 18.109375 54.6875 
L 18.109375 46.1875 
Q 20.953125 51.171875 25.484375 53.578125 
Q 30.03125 56 36.53125 56 
Q 37.453125 56 38.578125 55.875 
Q 39.703125 55.765625 41.0625 55.515625 
z
" id="DejaVuSans-114"/>
     </defs>
     <g style="fill:#262626;" transform="translate(335.152188 705.744063)scale(0.12 -0.12)">
      <use xlink:href="#DejaVuSans-78"/>
      <use x="74.804688" xlink:href="#DejaVuSans-117"/>
      <use x="138.183594" xlink:href="#DejaVuSans-109"/>
      <use x="235.595703" xlink:href="#DejaVuSans-98"/>
      <use x="299.072266" xlink:href="#DejaVuSans-101"/>
      <use x="360.595703" xlink:href="#DejaVuSans-114"/>
     </g>
    </g>
   </g>
   <g id="matplotlib.axis_2">
    <g id="ytick_1">
     <g id="text_8">
      <!-- Cellular community - prokaryotes -->
      <defs>
       <path d="M 64.40625 67.28125 
L 64.40625 56.890625 
Q 59.421875 61.53125 53.78125 63.8125 
Q 48.140625 66.109375 41.796875 66.109375 
Q 29.296875 66.109375 22.65625 58.46875 
Q 16.015625 50.828125 16.015625 36.375 
Q 16.015625 21.96875 22.65625 14.328125 
Q 29.296875 6.6875 41.796875 6.6875 
Q 48.140625 6.6875 53.78125 8.984375 
Q 59.421875 11.28125 64.40625 15.921875 
L 64.40625 5.609375 
Q 59.234375 2.09375 53.4375 0.328125 
Q 47.65625 -1.421875 41.21875 -1.421875 
Q 24.65625 -1.421875 15.125 8.703125 
Q 5.609375 18.84375 5.609375 36.375 
Q 5.609375 53.953125 15.125 64.078125 
Q 24.65625 74.21875 41.21875 74.21875 
Q 47.75 74.21875 53.53125 72.484375 
Q 59.328125 70.75 64.40625 67.28125 
z
" id="DejaVuSans-67"/>
       <path d="M 9.421875 75.984375 
L 18.40625 75.984375 
L 18.40625 0 
L 9.421875 0 
z
" id="DejaVuSans-108"/>
       <path d="M 34.28125 27.484375 
Q 23.390625 27.484375 19.1875 25 
Q 14.984375 22.515625 14.984375 16.5 
Q 14.984375 11.71875 18.140625 8.90625 
Q 21.296875 6.109375 26.703125 6.109375 
Q 34.1875 6.109375 38.703125 11.40625 
Q 43.21875 16.703125 43.21875 25.484375 
L 43.21875 27.484375 
z
M 52.203125 31.203125 
L 52.203125 0 
L 43.21875 0 
L 43.21875 8.296875 
Q 40.140625 3.328125 35.546875 0.953125 
Q 30.953125 -1.421875 24.3125 -1.421875 
Q 15.921875 -1.421875 10.953125 3.296875 
Q 6 8.015625 6 15.921875 
Q 6 25.140625 12.171875 29.828125 
Q 18.359375 34.515625 30.609375 34.515625 
L 43.21875 34.515625 
L 43.21875 35.40625 
Q 43.21875 41.609375 39.140625 45 
Q 35.0625 48.390625 27.6875 48.390625 
Q 23 48.390625 18.546875 47.265625 
Q 14.109375 46.140625 10.015625 43.890625 
L 10.015625 52.203125 
Q 14.9375 54.109375 19.578125 55.046875 
Q 24.21875 56 28.609375 56 
Q 40.484375 56 46.34375 49.84375 
Q 52.203125 43.703125 52.203125 31.203125 
z
" id="DejaVuSans-97"/>
       <path id="DejaVuSans-32"/>
       <path d="M 48.78125 52.59375 
L 48.78125 44.1875 
Q 44.96875 46.296875 41.140625 47.34375 
Q 37.3125 48.390625 33.40625 48.390625 
Q 24.65625 48.390625 19.8125 42.84375 
Q 14.984375 37.3125 14.984375 27.296875 
Q 14.984375 17.28125 19.8125 11.734375 
Q 24.65625 6.203125 33.40625 6.203125 
Q 37.3125 6.203125 41.140625 7.25 
Q 44.96875 8.296875 48.78125 10.40625 
L 48.78125 2.09375 
Q 45.015625 0.34375 40.984375 -0.53125 
Q 36.96875 -1.421875 32.421875 -1.421875 
Q 20.0625 -1.421875 12.78125 6.34375 
Q 5.515625 14.109375 5.515625 27.296875 
Q 5.515625 40.671875 12.859375 48.328125 
Q 20.21875 56 33.015625 56 
Q 37.15625 56 41.109375 55.140625 
Q 45.0625 54.296875 48.78125 52.59375 
z
" id="DejaVuSans-99"/>
       <path d="M 30.609375 48.390625 
Q 23.390625 48.390625 19.1875 42.75 
Q 14.984375 37.109375 14.984375 27.296875 
Q 14.984375 17.484375 19.15625 11.84375 
Q 23.34375 6.203125 30.609375 6.203125 
Q 37.796875 6.203125 41.984375 11.859375 
Q 46.1875 17.53125 46.1875 27.296875 
Q 46.1875 37.015625 41.984375 42.703125 
Q 37.796875 48.390625 30.609375 48.390625 
z
M 30.609375 56 
Q 42.328125 56 49.015625 48.375 
Q 55.71875 40.765625 55.71875 27.296875 
Q 55.71875 13.875 49.015625 6.21875 
Q 42.328125 -1.421875 30.609375 -1.421875 
Q 18.84375 -1.421875 12.171875 6.21875 
Q 5.515625 13.875 5.515625 27.296875 
Q 5.515625 40.765625 12.171875 48.375 
Q 18.84375 56 30.609375 56 
z
" id="DejaVuSans-111"/>
       <path d="M 54.890625 33.015625 
L 54.890625 0 
L 45.90625 0 
L 45.90625 32.71875 
Q 45.90625 40.484375 42.875 44.328125 
Q 39.84375 48.1875 33.796875 48.1875 
Q 26.515625 48.1875 22.3125 43.546875 
Q 18.109375 38.921875 18.109375 30.90625 
L 18.109375 0 
L 9.078125 0 
L 9.078125 54.6875 
L 18.109375 54.6875 
L 18.109375 46.1875 
Q 21.34375 51.125 25.703125 53.5625 
Q 30.078125 56 35.796875 56 
Q 45.21875 56 50.046875 50.171875 
Q 54.890625 44.34375 54.890625 33.015625 
z
" id="DejaVuSans-110"/>
       <path d="M 9.421875 54.6875 
L 18.40625 54.6875 
L 18.40625 0 
L 9.421875 0 
z
M 9.421875 75.984375 
L 18.40625 75.984375 
L 18.40625 64.59375 
L 9.421875 64.59375 
z
" id="DejaVuSans-105"/>
       <path d="M 18.3125 70.21875 
L 18.3125 54.6875 
L 36.8125 54.6875 
L 36.8125 47.703125 
L 18.3125 47.703125 
L 18.3125 18.015625 
Q 18.3125 11.328125 20.140625 9.421875 
Q 21.96875 7.515625 27.59375 7.515625 
L 36.8125 7.515625 
L 36.8125 0 
L 27.59375 0 
Q 17.1875 0 13.234375 3.875 
Q 9.28125 7.765625 9.28125 18.015625 
L 9.28125 47.703125 
L 2.6875 47.703125 
L 2.6875 54.6875 
L 9.28125 54.6875 
L 9.28125 70.21875 
z
" id="DejaVuSans-116"/>
       <path d="M 32.171875 -5.078125 
Q 28.375 -14.84375 24.75 -17.8125 
Q 21.140625 -20.796875 15.09375 -20.796875 
L 7.90625 -20.796875 
L 7.90625 -13.28125 
L 13.1875 -13.28125 
Q 16.890625 -13.28125 18.9375 -11.515625 
Q 21 -9.765625 23.484375 -3.21875 
L 25.09375 0.875 
L 2.984375 54.6875 
L 12.5 54.6875 
L 29.59375 11.921875 
L 46.6875 54.6875 
L 56.203125 54.6875 
z
" id="DejaVuSans-121"/>
       <path d="M 4.890625 31.390625 
L 31.203125 31.390625 
L 31.203125 23.390625 
L 4.890625 23.390625 
z
" id="DejaVuSans-45"/>
       <path d="M 18.109375 8.203125 
L 18.109375 -20.796875 
L 9.078125 -20.796875 
L 9.078125 54.6875 
L 18.109375 54.6875 
L 18.109375 46.390625 
Q 20.953125 51.265625 25.265625 53.625 
Q 29.59375 56 35.59375 56 
Q 45.5625 56 51.78125 48.09375 
Q 58.015625 40.1875 58.015625 27.296875 
Q 58.015625 14.40625 51.78125 6.484375 
Q 45.5625 -1.421875 35.59375 -1.421875 
Q 29.59375 -1.421875 25.265625 0.953125 
Q 20.953125 3.328125 18.109375 8.203125 
z
M 48.6875 27.296875 
Q 48.6875 37.203125 44.609375 42.84375 
Q 40.53125 48.484375 33.40625 48.484375 
Q 26.265625 48.484375 22.1875 42.84375 
Q 18.109375 37.203125 18.109375 27.296875 
Q 18.109375 17.390625 22.1875 11.75 
Q 26.265625 6.109375 33.40625 6.109375 
Q 40.53125 6.109375 44.609375 11.75 
Q 48.6875 17.390625 48.6875 27.296875 
z
" id="DejaVuSans-112"/>
       <path d="M 9.078125 75.984375 
L 18.109375 75.984375 
L 18.109375 31.109375 
L 44.921875 54.6875 
L 56.390625 54.6875 
L 27.390625 29.109375 
L 57.625 0 
L 45.90625 0 
L 18.109375 26.703125 
L 18.109375 0 
L 9.078125 0 
z
" id="DejaVuSans-107"/>
       <path d="M 44.28125 53.078125 
L 44.28125 44.578125 
Q 40.484375 46.53125 36.375 47.5 
Q 32.28125 48.484375 27.875 48.484375 
Q 21.1875 48.484375 17.84375 46.4375 
Q 14.5 44.390625 14.5 40.28125 
Q 14.5 37.15625 16.890625 35.375 
Q 19.28125 33.59375 26.515625 31.984375 
L 29.59375 31.296875 
Q 39.15625 29.25 43.1875 25.515625 
Q 47.21875 21.78125 47.21875 15.09375 
Q 47.21875 7.46875 41.1875 3.015625 
Q 35.15625 -1.421875 24.609375 -1.421875 
Q 20.21875 -1.421875 15.453125 -0.5625 
Q 10.6875 0.296875 5.421875 2 
L 5.421875 11.28125 
Q 10.40625 8.6875 15.234375 7.390625 
Q 20.0625 6.109375 24.8125 6.109375 
Q 31.15625 6.109375 34.5625 8.28125 
Q 37.984375 10.453125 37.984375 14.40625 
Q 37.984375 18.0625 35.515625 20.015625 
Q 33.0625 21.96875 24.703125 23.78125 
L 21.578125 24.515625 
Q 13.234375 26.265625 9.515625 29.90625 
Q 5.8125 33.546875 5.8125 39.890625 
Q 5.8125 47.609375 11.28125 51.796875 
Q 16.75 56 26.8125 56 
Q 31.78125 56 36.171875 55.265625 
Q 40.578125 54.546875 44.28125 53.078125 
z
" id="DejaVuSans-115"/>
      </defs>
      <g style="fill:#262626;" transform="translate(53.901875 56.930533)scale(0.11 -0.11)">
       <use xlink:href="#DejaVuSans-67"/>
       <use x="69.824219" xlink:href="#DejaVuSans-101"/>
       <use x="131.347656" xlink:href="#DejaVuSans-108"/>
       <use x="159.130859" xlink:href="#DejaVuSans-108"/>
       <use x="186.914062" xlink:href="#DejaVuSans-117"/>
       <use x="250.292969" xlink:href="#DejaVuSans-108"/>
       <use x="278.076172" xlink:href="#DejaVuSans-97"/>
       <use x="339.355469" xlink:href="#DejaVuSans-114"/>
       <use x="380.46875" xlink:href="#DejaVuSans-32"/>
       <use x="412.255859" xlink:href="#DejaVuSans-99"/>
       <use x="467.236328" xlink:href="#DejaVuSans-111"/>
       <use x="528.417969" xlink:href="#DejaVuSans-109"/>
       <use x="625.830078" xlink:href="#DejaVuSans-109"/>
       <use x="723.242188" xlink:href="#DejaVuSans-117"/>
       <use x="786.621094" xlink:href="#DejaVuSans-110"/>
       <use x="850" xlink:href="#DejaVuSans-105"/>
       <use x="877.783203" xlink:href="#DejaVuSans-116"/>
       <use x="916.992188" xlink:href="#DejaVuSans-121"/>
       <use x="976.171875" xlink:href="#DejaVuSans-32"/>
       <use x="1007.958984" xlink:href="#DejaVuSans-45"/>
       <use x="1044.042969" xlink:href="#DejaVuSans-32"/>
       <use x="1075.830078" xlink:href="#DejaVuSans-112"/>
       <use x="1139.306641" xlink:href="#DejaVuSans-114"/>
       <use x="1180.388672" xlink:href="#DejaVuSans-111"/>
       <use x="1241.570312" xlink:href="#DejaVuSans-107"/>
       <use x="1299.464844" xlink:href="#DejaVuSans-97"/>
       <use x="1360.744141" xlink:href="#DejaVuSans-114"/>
       <use x="1401.857422" xlink:href="#DejaVuSans-121"/>
       <use x="1461.037109" xlink:href="#DejaVuSans-111"/>
       <use x="1522.21875" xlink:href="#DejaVuSans-116"/>
       <use x="1561.427734" xlink:href="#DejaVuSans-101"/>
       <use x="1622.951172" xlink:href="#DejaVuSans-115"/>
      </g>
     </g>
    </g>
    <g id="ytick_2">
     <g id="text_9">
      <!-- Membrane transport -->
      <defs>
       <path d="M 9.8125 72.90625 
L 24.515625 72.90625 
L 43.109375 23.296875 
L 61.8125 72.90625 
L 76.515625 72.90625 
L 76.515625 0 
L 66.890625 0 
L 66.890625 64.015625 
L 48.09375 14.015625 
L 38.1875 14.015625 
L 19.390625 64.015625 
L 19.390625 0 
L 9.8125 0 
z
" id="DejaVuSans-77"/>
      </defs>
      <g style="fill:#262626;" transform="translate(124.874219 95.209014)scale(0.11 -0.11)">
       <use xlink:href="#DejaVuSans-77"/>
       <use x="86.279297" xlink:href="#DejaVuSans-101"/>
       <use x="147.802734" xlink:href="#DejaVuSans-109"/>
       <use x="245.214844" xlink:href="#DejaVuSans-98"/>
       <use x="308.691406" xlink:href="#DejaVuSans-114"/>
       <use x="349.804688" xlink:href="#DejaVuSans-97"/>
       <use x="411.083984" xlink:href="#DejaVuSans-110"/>
       <use x="474.462891" xlink:href="#DejaVuSans-101"/>
       <use x="535.986328" xlink:href="#DejaVuSans-32"/>
       <use x="567.773438" xlink:href="#DejaVuSans-116"/>
       <use x="606.982422" xlink:href="#DejaVuSans-114"/>
       <use x="648.095703" xlink:href="#DejaVuSans-97"/>
       <use x="709.375" xlink:href="#DejaVuSans-110"/>
       <use x="772.753906" xlink:href="#DejaVuSans-115"/>
       <use x="824.853516" xlink:href="#DejaVuSans-112"/>
       <use x="888.330078" xlink:href="#DejaVuSans-111"/>
       <use x="949.511719" xlink:href="#DejaVuSans-114"/>
       <use x="990.625" xlink:href="#DejaVuSans-116"/>
      </g>
     </g>
    </g>
    <g id="ytick_3">
     <g id="text_10">
      <!-- Signal transduction -->
      <defs>
       <path d="M 53.515625 70.515625 
L 53.515625 60.890625 
Q 47.90625 63.578125 42.921875 64.890625 
Q 37.9375 66.21875 33.296875 66.21875 
Q 25.25 66.21875 20.875 63.09375 
Q 16.5 59.96875 16.5 54.203125 
Q 16.5 49.359375 19.40625 46.890625 
Q 22.3125 44.4375 30.421875 42.921875 
L 36.375 41.703125 
Q 47.40625 39.59375 52.65625 34.296875 
Q 57.90625 29 57.90625 20.125 
Q 57.90625 9.515625 50.796875 4.046875 
Q 43.703125 -1.421875 29.984375 -1.421875 
Q 24.8125 -1.421875 18.96875 -0.25 
Q 13.140625 0.921875 6.890625 3.21875 
L 6.890625 13.375 
Q 12.890625 10.015625 18.65625 8.296875 
Q 24.421875 6.59375 29.984375 6.59375 
Q 38.421875 6.59375 43.015625 9.90625 
Q 47.609375 13.234375 47.609375 19.390625 
Q 47.609375 24.75 44.3125 27.78125 
Q 41.015625 30.8125 33.5 32.328125 
L 27.484375 33.5 
Q 16.453125 35.6875 11.515625 40.375 
Q 6.59375 45.0625 6.59375 53.421875 
Q 6.59375 63.09375 13.40625 68.65625 
Q 20.21875 74.21875 32.171875 74.21875 
Q 37.3125 74.21875 42.625 73.28125 
Q 47.953125 72.359375 53.515625 70.515625 
z
" id="DejaVuSans-83"/>
       <path d="M 45.40625 27.984375 
Q 45.40625 37.75 41.375 43.109375 
Q 37.359375 48.484375 30.078125 48.484375 
Q 22.859375 48.484375 18.828125 43.109375 
Q 14.796875 37.75 14.796875 27.984375 
Q 14.796875 18.265625 18.828125 12.890625 
Q 22.859375 7.515625 30.078125 7.515625 
Q 37.359375 7.515625 41.375 12.890625 
Q 45.40625 18.265625 45.40625 27.984375 
z
M 54.390625 6.78125 
Q 54.390625 -7.171875 48.1875 -13.984375 
Q 42 -20.796875 29.203125 -20.796875 
Q 24.46875 -20.796875 20.265625 -20.09375 
Q 16.0625 -19.390625 12.109375 -17.921875 
L 12.109375 -9.1875 
Q 16.0625 -11.328125 19.921875 -12.34375 
Q 23.78125 -13.375 27.78125 -13.375 
Q 36.625 -13.375 41.015625 -8.765625 
Q 45.40625 -4.15625 45.40625 5.171875 
L 45.40625 9.625 
Q 42.625 4.78125 38.28125 2.390625 
Q 33.9375 0 27.875 0 
Q 17.828125 0 11.671875 7.65625 
Q 5.515625 15.328125 5.515625 27.984375 
Q 5.515625 40.671875 11.671875 48.328125 
Q 17.828125 56 27.875 56 
Q 33.9375 56 38.28125 53.609375 
Q 42.625 51.21875 45.40625 46.390625 
L 45.40625 54.6875 
L 54.390625 54.6875 
z
" id="DejaVuSans-103"/>
       <path d="M 45.40625 46.390625 
L 45.40625 75.984375 
L 54.390625 75.984375 
L 54.390625 0 
L 45.40625 0 
L 45.40625 8.203125 
Q 42.578125 3.328125 38.25 0.953125 
Q 33.9375 -1.421875 27.875 -1.421875 
Q 17.96875 -1.421875 11.734375 6.484375 
Q 5.515625 14.40625 5.515625 27.296875 
Q 5.515625 40.1875 11.734375 48.09375 
Q 17.96875 56 27.875 56 
Q 33.9375 56 38.25 53.625 
Q 42.578125 51.265625 45.40625 46.390625 
z
M 14.796875 27.296875 
Q 14.796875 17.390625 18.875 11.75 
Q 22.953125 6.109375 30.078125 6.109375 
Q 37.203125 6.109375 41.296875 11.75 
Q 45.40625 17.390625 45.40625 27.296875 
Q 45.40625 37.203125 41.296875 42.84375 
Q 37.203125 48.484375 30.078125 48.484375 
Q 22.953125 48.484375 18.875 42.84375 
Q 14.796875 37.203125 14.796875 27.296875 
z
" id="DejaVuSans-100"/>
      </defs>
      <g style="fill:#262626;" transform="translate(131.518906 133.487495)scale(0.11 -0.11)">
       <use xlink:href="#DejaVuSans-83"/>
       <use x="63.476562" xlink:href="#DejaVuSans-105"/>
       <use x="91.259766" xlink:href="#DejaVuSans-103"/>
       <use x="154.736328" xlink:href="#DejaVuSans-110"/>
       <use x="218.115234" xlink:href="#DejaVuSans-97"/>
       <use x="279.394531" xlink:href="#DejaVuSans-108"/>
       <use x="307.177734" xlink:href="#DejaVuSans-32"/>
       <use x="338.964844" xlink:href="#DejaVuSans-116"/>
       <use x="378.173828" xlink:href="#DejaVuSans-114"/>
       <use x="419.287109" xlink:href="#DejaVuSans-97"/>
       <use x="480.566406" xlink:href="#DejaVuSans-110"/>
       <use x="543.945312" xlink:href="#DejaVuSans-115"/>
       <use x="596.044922" xlink:href="#DejaVuSans-100"/>
       <use x="659.521484" xlink:href="#DejaVuSans-117"/>
       <use x="722.900391" xlink:href="#DejaVuSans-99"/>
       <use x="777.880859" xlink:href="#DejaVuSans-116"/>
       <use x="817.089844" xlink:href="#DejaVuSans-105"/>
       <use x="844.873047" xlink:href="#DejaVuSans-111"/>
       <use x="906.054688" xlink:href="#DejaVuSans-110"/>
      </g>
     </g>
    </g>
    <g id="ytick_4">
     <g id="text_11">
      <!-- Folding, sorting and degradation -->
      <defs>
       <path d="M 9.8125 72.90625 
L 51.703125 72.90625 
L 51.703125 64.59375 
L 19.671875 64.59375 
L 19.671875 43.109375 
L 48.578125 43.109375 
L 48.578125 34.8125 
L 19.671875 34.8125 
L 19.671875 0 
L 9.8125 0 
z
" id="DejaVuSans-70"/>
       <path d="M 11.71875 12.40625 
L 22.015625 12.40625 
L 22.015625 4 
L 14.015625 -11.625 
L 7.71875 -11.625 
L 11.71875 4 
z
" id="DejaVuSans-44"/>
      </defs>
      <g style="fill:#262626;" transform="translate(58.276094 171.765976)scale(0.11 -0.11)">
       <use xlink:href="#DejaVuSans-70"/>
       <use x="57.472656" xlink:href="#DejaVuSans-111"/>
       <use x="118.654297" xlink:href="#DejaVuSans-108"/>
       <use x="146.4375" xlink:href="#DejaVuSans-100"/>
       <use x="209.914062" xlink:href="#DejaVuSans-105"/>
       <use x="237.697266" xlink:href="#DejaVuSans-110"/>
       <use x="301.076172" xlink:href="#DejaVuSans-103"/>
       <use x="364.552734" xlink:href="#DejaVuSans-44"/>
       <use x="396.339844" xlink:href="#DejaVuSans-32"/>
       <use x="428.126953" xlink:href="#DejaVuSans-115"/>
       <use x="480.226562" xlink:href="#DejaVuSans-111"/>
       <use x="541.408203" xlink:href="#DejaVuSans-114"/>
       <use x="582.521484" xlink:href="#DejaVuSans-116"/>
       <use x="621.730469" xlink:href="#DejaVuSans-105"/>
       <use x="649.513672" xlink:href="#DejaVuSans-110"/>
       <use x="712.892578" xlink:href="#DejaVuSans-103"/>
       <use x="776.369141" xlink:href="#DejaVuSans-32"/>
       <use x="808.15625" xlink:href="#DejaVuSans-97"/>
       <use x="869.435547" xlink:href="#DejaVuSans-110"/>
       <use x="932.814453" xlink:href="#DejaVuSans-100"/>
       <use x="996.291016" xlink:href="#DejaVuSans-32"/>
       <use x="1028.078125" xlink:href="#DejaVuSans-100"/>
       <use x="1091.554688" xlink:href="#DejaVuSans-101"/>
       <use x="1153.078125" xlink:href="#DejaVuSans-103"/>
       <use x="1216.554688" xlink:href="#DejaVuSans-114"/>
       <use x="1257.667969" xlink:href="#DejaVuSans-97"/>
       <use x="1318.947266" xlink:href="#DejaVuSans-100"/>
       <use x="1382.423828" xlink:href="#DejaVuSans-97"/>
       <use x="1443.703125" xlink:href="#DejaVuSans-116"/>
       <use x="1482.912109" xlink:href="#DejaVuSans-105"/>
       <use x="1510.695312" xlink:href="#DejaVuSans-111"/>
       <use x="1571.876953" xlink:href="#DejaVuSans-110"/>
      </g>
     </g>
    </g>
    <g id="ytick_5">
     <g id="text_12">
      <!-- Replication and repair -->
      <defs>
       <path d="M 44.390625 34.1875 
Q 47.5625 33.109375 50.5625 29.59375 
Q 53.5625 26.078125 56.59375 19.921875 
L 66.609375 0 
L 56 0 
L 46.6875 18.703125 
Q 43.0625 26.03125 39.671875 28.421875 
Q 36.28125 30.8125 30.421875 30.8125 
L 19.671875 30.8125 
L 19.671875 0 
L 9.8125 0 
L 9.8125 72.90625 
L 32.078125 72.90625 
Q 44.578125 72.90625 50.734375 67.671875 
Q 56.890625 62.453125 56.890625 51.90625 
Q 56.890625 45.015625 53.6875 40.46875 
Q 50.484375 35.9375 44.390625 34.1875 
z
M 19.671875 64.796875 
L 19.671875 38.921875 
L 32.078125 38.921875 
Q 39.203125 38.921875 42.84375 42.21875 
Q 46.484375 45.515625 46.484375 51.90625 
Q 46.484375 58.296875 42.84375 61.546875 
Q 39.203125 64.796875 32.078125 64.796875 
z
" id="DejaVuSans-82"/>
      </defs>
      <g style="fill:#262626;" transform="translate(116.519375 210.044457)scale(0.11 -0.11)">
       <use xlink:href="#DejaVuSans-82"/>
       <use x="69.419922" xlink:href="#DejaVuSans-101"/>
       <use x="130.943359" xlink:href="#DejaVuSans-112"/>
       <use x="194.419922" xlink:href="#DejaVuSans-108"/>
       <use x="222.203125" xlink:href="#DejaVuSans-105"/>
       <use x="249.986328" xlink:href="#DejaVuSans-99"/>
       <use x="304.966797" xlink:href="#DejaVuSans-97"/>
       <use x="366.246094" xlink:href="#DejaVuSans-116"/>
       <use x="405.455078" xlink:href="#DejaVuSans-105"/>
       <use x="433.238281" xlink:href="#DejaVuSans-111"/>
       <use x="494.419922" xlink:href="#DejaVuSans-110"/>
       <use x="557.798828" xlink:href="#DejaVuSans-32"/>
       <use x="589.585938" xlink:href="#DejaVuSans-97"/>
       <use x="650.865234" xlink:href="#DejaVuSans-110"/>
       <use x="714.244141" xlink:href="#DejaVuSans-100"/>
       <use x="777.720703" xlink:href="#DejaVuSans-32"/>
       <use x="809.507812" xlink:href="#DejaVuSans-114"/>
       <use x="850.589844" xlink:href="#DejaVuSans-101"/>
       <use x="912.113281" xlink:href="#DejaVuSans-112"/>
       <use x="975.589844" xlink:href="#DejaVuSans-97"/>
       <use x="1036.869141" xlink:href="#DejaVuSans-105"/>
       <use x="1064.652344" xlink:href="#DejaVuSans-114"/>
      </g>
     </g>
    </g>
    <g id="ytick_6">
     <g id="text_13">
      <!-- Transcription -->
      <defs>
       <path d="M -0.296875 72.90625 
L 61.375 72.90625 
L 61.375 64.59375 
L 35.5 64.59375 
L 35.5 0 
L 25.59375 0 
L 25.59375 64.59375 
L -0.296875 64.59375 
z
" id="DejaVuSans-84"/>
      </defs>
      <g style="fill:#262626;" transform="translate(165.816563 248.322938)scale(0.11 -0.11)">
       <use xlink:href="#DejaVuSans-84"/>
       <use x="60.865234" xlink:href="#DejaVuSans-114"/>
       <use x="101.978516" xlink:href="#DejaVuSans-97"/>
       <use x="163.257812" xlink:href="#DejaVuSans-110"/>
       <use x="226.636719" xlink:href="#DejaVuSans-115"/>
       <use x="278.736328" xlink:href="#DejaVuSans-99"/>
       <use x="333.716797" xlink:href="#DejaVuSans-114"/>
       <use x="374.830078" xlink:href="#DejaVuSans-105"/>
       <use x="402.613281" xlink:href="#DejaVuSans-112"/>
       <use x="466.089844" xlink:href="#DejaVuSans-116"/>
       <use x="505.298828" xlink:href="#DejaVuSans-105"/>
       <use x="533.082031" xlink:href="#DejaVuSans-111"/>
       <use x="594.263672" xlink:href="#DejaVuSans-110"/>
      </g>
     </g>
    </g>
    <g id="ytick_7">
     <g id="text_14">
      <!-- Translation -->
      <g style="fill:#262626;" transform="translate(176.629219 286.601419)scale(0.11 -0.11)">
       <use xlink:href="#DejaVuSans-84"/>
       <use x="60.865234" xlink:href="#DejaVuSans-114"/>
       <use x="101.978516" xlink:href="#DejaVuSans-97"/>
       <use x="163.257812" xlink:href="#DejaVuSans-110"/>
       <use x="226.636719" xlink:href="#DejaVuSans-115"/>
       <use x="278.736328" xlink:href="#DejaVuSans-108"/>
       <use x="306.519531" xlink:href="#DejaVuSans-97"/>
       <use x="367.798828" xlink:href="#DejaVuSans-116"/>
       <use x="407.007812" xlink:href="#DejaVuSans-105"/>
       <use x="434.791016" xlink:href="#DejaVuSans-111"/>
       <use x="495.972656" xlink:href="#DejaVuSans-110"/>
      </g>
     </g>
    </g>
    <g id="ytick_8">
     <g id="text_15">
      <!-- Drug resistance -->
      <defs>
       <path d="M 19.671875 64.796875 
L 19.671875 8.109375 
L 31.59375 8.109375 
Q 46.6875 8.109375 53.6875 14.9375 
Q 60.6875 21.78125 60.6875 36.53125 
Q 60.6875 51.171875 53.6875 57.984375 
Q 46.6875 64.796875 31.59375 64.796875 
z
M 9.8125 72.90625 
L 30.078125 72.90625 
Q 51.265625 72.90625 61.171875 64.09375 
Q 71.09375 55.28125 71.09375 36.53125 
Q 71.09375 17.671875 61.125 8.828125 
Q 51.171875 0 30.078125 0 
L 9.8125 0 
z
" id="DejaVuSans-68"/>
      </defs>
      <g style="fill:#262626;" transform="translate(151.067969 324.8799)scale(0.11 -0.11)">
       <use xlink:href="#DejaVuSans-68"/>
       <use x="77.001953" xlink:href="#DejaVuSans-114"/>
       <use x="118.115234" xlink:href="#DejaVuSans-117"/>
       <use x="181.494141" xlink:href="#DejaVuSans-103"/>
       <use x="244.970703" xlink:href="#DejaVuSans-32"/>
       <use x="276.757812" xlink:href="#DejaVuSans-114"/>
       <use x="317.839844" xlink:href="#DejaVuSans-101"/>
       <use x="379.363281" xlink:href="#DejaVuSans-115"/>
       <use x="431.462891" xlink:href="#DejaVuSans-105"/>
       <use x="459.246094" xlink:href="#DejaVuSans-115"/>
       <use x="511.345703" xlink:href="#DejaVuSans-116"/>
       <use x="550.554688" xlink:href="#DejaVuSans-97"/>
       <use x="611.833984" xlink:href="#DejaVuSans-110"/>
       <use x="675.212891" xlink:href="#DejaVuSans-99"/>
       <use x="730.193359" xlink:href="#DejaVuSans-101"/>
      </g>
     </g>
    </g>
    <g id="ytick_9">
     <g id="text_16">
      <!-- Amino acid metabolism -->
      <defs>
       <path d="M 34.1875 63.1875 
L 20.796875 26.90625 
L 47.609375 26.90625 
z
M 28.609375 72.90625 
L 39.796875 72.90625 
L 67.578125 0 
L 57.328125 0 
L 50.6875 18.703125 
L 17.828125 18.703125 
L 11.1875 0 
L 0.78125 0 
z
" id="DejaVuSans-65"/>
      </defs>
      <g style="fill:#262626;" transform="translate(108.530625 363.158381)scale(0.11 -0.11)">
       <use xlink:href="#DejaVuSans-65"/>
       <use x="68.408203" xlink:href="#DejaVuSans-109"/>
       <use x="165.820312" xlink:href="#DejaVuSans-105"/>
       <use x="193.603516" xlink:href="#DejaVuSans-110"/>
       <use x="256.982422" xlink:href="#DejaVuSans-111"/>
       <use x="318.164062" xlink:href="#DejaVuSans-32"/>
       <use x="349.951172" xlink:href="#DejaVuSans-97"/>
       <use x="411.230469" xlink:href="#DejaVuSans-99"/>
       <use x="466.210938" xlink:href="#DejaVuSans-105"/>
       <use x="493.994141" xlink:href="#DejaVuSans-100"/>
       <use x="557.470703" xlink:href="#DejaVuSans-32"/>
       <use x="589.257812" xlink:href="#DejaVuSans-109"/>
       <use x="686.669922" xlink:href="#DejaVuSans-101"/>
       <use x="748.193359" xlink:href="#DejaVuSans-116"/>
       <use x="787.402344" xlink:href="#DejaVuSans-97"/>
       <use x="848.681641" xlink:href="#DejaVuSans-98"/>
       <use x="912.158203" xlink:href="#DejaVuSans-111"/>
       <use x="973.339844" xlink:href="#DejaVuSans-108"/>
       <use x="1001.123047" xlink:href="#DejaVuSans-105"/>
       <use x="1028.90625" xlink:href="#DejaVuSans-115"/>
       <use x="1081.005859" xlink:href="#DejaVuSans-109"/>
      </g>
     </g>
    </g>
    <g id="ytick_10">
     <g id="text_17">
      <!-- Carbohydrate metabolism -->
      <defs>
       <path d="M 54.890625 33.015625 
L 54.890625 0 
L 45.90625 0 
L 45.90625 32.71875 
Q 45.90625 40.484375 42.875 44.328125 
Q 39.84375 48.1875 33.796875 48.1875 
Q 26.515625 48.1875 22.3125 43.546875 
Q 18.109375 38.921875 18.109375 30.90625 
L 18.109375 0 
L 9.078125 0 
L 9.078125 75.984375 
L 18.109375 75.984375 
L 18.109375 46.1875 
Q 21.34375 51.125 25.703125 53.5625 
Q 30.078125 56 35.796875 56 
Q 45.21875 56 50.046875 50.171875 
Q 54.890625 44.34375 54.890625 33.015625 
z
" id="DejaVuSans-104"/>
      </defs>
      <g style="fill:#262626;" transform="translate(94.385312 401.436862)scale(0.11 -0.11)">
       <use xlink:href="#DejaVuSans-67"/>
       <use x="69.824219" xlink:href="#DejaVuSans-97"/>
       <use x="131.103516" xlink:href="#DejaVuSans-114"/>
       <use x="172.216797" xlink:href="#DejaVuSans-98"/>
       <use x="235.693359" xlink:href="#DejaVuSans-111"/>
       <use x="296.875" xlink:href="#DejaVuSans-104"/>
       <use x="360.253906" xlink:href="#DejaVuSans-121"/>
       <use x="419.433594" xlink:href="#DejaVuSans-100"/>
       <use x="482.910156" xlink:href="#DejaVuSans-114"/>
       <use x="524.023438" xlink:href="#DejaVuSans-97"/>
       <use x="585.302734" xlink:href="#DejaVuSans-116"/>
       <use x="624.511719" xlink:href="#DejaVuSans-101"/>
       <use x="686.035156" xlink:href="#DejaVuSans-32"/>
       <use x="717.822266" xlink:href="#DejaVuSans-109"/>
       <use x="815.234375" xlink:href="#DejaVuSans-101"/>
       <use x="876.757812" xlink:href="#DejaVuSans-116"/>
       <use x="915.966797" xlink:href="#DejaVuSans-97"/>
       <use x="977.246094" xlink:href="#DejaVuSans-98"/>
       <use x="1040.722656" xlink:href="#DejaVuSans-111"/>
       <use x="1101.904297" xlink:href="#DejaVuSans-108"/>
       <use x="1129.6875" xlink:href="#DejaVuSans-105"/>
       <use x="1157.470703" xlink:href="#DejaVuSans-115"/>
       <use x="1209.570312" xlink:href="#DejaVuSans-109"/>
      </g>
     </g>
    </g>
    <g id="ytick_11">
     <g id="text_18">
      <!-- Energy metabolism -->
      <defs>
       <path d="M 9.8125 72.90625 
L 55.90625 72.90625 
L 55.90625 64.59375 
L 19.671875 64.59375 
L 19.671875 43.015625 
L 54.390625 43.015625 
L 54.390625 34.71875 
L 19.671875 34.71875 
L 19.671875 8.296875 
L 56.78125 8.296875 
L 56.78125 0 
L 9.8125 0 
z
" id="DejaVuSans-69"/>
      </defs>
      <g style="fill:#262626;" transform="translate(131.147656 439.715343)scale(0.11 -0.11)">
       <use xlink:href="#DejaVuSans-69"/>
       <use x="63.183594" xlink:href="#DejaVuSans-110"/>
       <use x="126.5625" xlink:href="#DejaVuSans-101"/>
       <use x="188.085938" xlink:href="#DejaVuSans-114"/>
       <use x="229.183594" xlink:href="#DejaVuSans-103"/>
       <use x="292.660156" xlink:href="#DejaVuSans-121"/>
       <use x="351.839844" xlink:href="#DejaVuSans-32"/>
       <use x="383.626953" xlink:href="#DejaVuSans-109"/>
       <use x="481.039062" xlink:href="#DejaVuSans-101"/>
       <use x="542.5625" xlink:href="#DejaVuSans-116"/>
       <use x="581.771484" xlink:href="#DejaVuSans-97"/>
       <use x="643.050781" xlink:href="#DejaVuSans-98"/>
       <use x="706.527344" xlink:href="#DejaVuSans-111"/>
       <use x="767.708984" xlink:href="#DejaVuSans-108"/>
       <use x="795.492188" xlink:href="#DejaVuSans-105"/>
       <use x="823.275391" xlink:href="#DejaVuSans-115"/>
       <use x="875.375" xlink:href="#DejaVuSans-109"/>
      </g>
     </g>
    </g>
    <g id="ytick_12">
     <g id="text_19">
      <!-- Lipid metabolism -->
      <defs>
       <path d="M 9.8125 72.90625 
L 19.671875 72.90625 
L 19.671875 8.296875 
L 55.171875 8.296875 
L 55.171875 0 
L 9.8125 0 
z
" id="DejaVuSans-76"/>
      </defs>
      <g style="fill:#262626;" transform="translate(143.644688 477.993824)scale(0.11 -0.11)">
       <use xlink:href="#DejaVuSans-76"/>
       <use x="55.712891" xlink:href="#DejaVuSans-105"/>
       <use x="83.496094" xlink:href="#DejaVuSans-112"/>
       <use x="146.972656" xlink:href="#DejaVuSans-105"/>
       <use x="174.755859" xlink:href="#DejaVuSans-100"/>
       <use x="238.232422" xlink:href="#DejaVuSans-32"/>
       <use x="270.019531" xlink:href="#DejaVuSans-109"/>
       <use x="367.431641" xlink:href="#DejaVuSans-101"/>
       <use x="428.955078" xlink:href="#DejaVuSans-116"/>
       <use x="468.164062" xlink:href="#DejaVuSans-97"/>
       <use x="529.443359" xlink:href="#DejaVuSans-98"/>
       <use x="592.919922" xlink:href="#DejaVuSans-111"/>
       <use x="654.101562" xlink:href="#DejaVuSans-108"/>
       <use x="681.884766" xlink:href="#DejaVuSans-105"/>
       <use x="709.667969" xlink:href="#DejaVuSans-115"/>
       <use x="761.767578" xlink:href="#DejaVuSans-109"/>
      </g>
     </g>
    </g>
    <g id="ytick_13">
     <g id="text_20">
      <!-- Metabolism of cofactors and vitamins -->
      <defs>
       <path d="M 37.109375 75.984375 
L 37.109375 68.5 
L 28.515625 68.5 
Q 23.6875 68.5 21.796875 66.546875 
Q 19.921875 64.59375 19.921875 59.515625 
L 19.921875 54.6875 
L 34.71875 54.6875 
L 34.71875 47.703125 
L 19.921875 47.703125 
L 19.921875 0 
L 10.890625 0 
L 10.890625 47.703125 
L 2.296875 47.703125 
L 2.296875 54.6875 
L 10.890625 54.6875 
L 10.890625 58.5 
Q 10.890625 67.625 15.140625 71.796875 
Q 19.390625 75.984375 28.609375 75.984375 
z
" id="DejaVuSans-102"/>
       <path d="M 2.984375 54.6875 
L 12.5 54.6875 
L 29.59375 8.796875 
L 46.6875 54.6875 
L 56.203125 54.6875 
L 35.6875 0 
L 23.484375 0 
z
" id="DejaVuSans-118"/>
      </defs>
      <g style="fill:#262626;" transform="translate(31.461875 516.272305)scale(0.11 -0.11)">
       <use xlink:href="#DejaVuSans-77"/>
       <use x="86.279297" xlink:href="#DejaVuSans-101"/>
       <use x="147.802734" xlink:href="#DejaVuSans-116"/>
       <use x="187.011719" xlink:href="#DejaVuSans-97"/>
       <use x="248.291016" xlink:href="#DejaVuSans-98"/>
       <use x="311.767578" xlink:href="#DejaVuSans-111"/>
       <use x="372.949219" xlink:href="#DejaVuSans-108"/>
       <use x="400.732422" xlink:href="#DejaVuSans-105"/>
       <use x="428.515625" xlink:href="#DejaVuSans-115"/>
       <use x="480.615234" xlink:href="#DejaVuSans-109"/>
       <use x="578.027344" xlink:href="#DejaVuSans-32"/>
       <use x="609.814453" xlink:href="#DejaVuSans-111"/>
       <use x="670.996094" xlink:href="#DejaVuSans-102"/>
       <use x="706.201172" xlink:href="#DejaVuSans-32"/>
       <use x="737.988281" xlink:href="#DejaVuSans-99"/>
       <use x="792.96875" xlink:href="#DejaVuSans-111"/>
       <use x="854.150391" xlink:href="#DejaVuSans-102"/>
       <use x="889.355469" xlink:href="#DejaVuSans-97"/>
       <use x="950.634766" xlink:href="#DejaVuSans-99"/>
       <use x="1005.615234" xlink:href="#DejaVuSans-116"/>
       <use x="1044.824219" xlink:href="#DejaVuSans-111"/>
       <use x="1106.005859" xlink:href="#DejaVuSans-114"/>
       <use x="1147.119141" xlink:href="#DejaVuSans-115"/>
       <use x="1199.21875" xlink:href="#DejaVuSans-32"/>
       <use x="1231.005859" xlink:href="#DejaVuSans-97"/>
       <use x="1292.285156" xlink:href="#DejaVuSans-110"/>
       <use x="1355.664062" xlink:href="#DejaVuSans-100"/>
       <use x="1419.140625" xlink:href="#DejaVuSans-32"/>
       <use x="1450.927734" xlink:href="#DejaVuSans-118"/>
       <use x="1510.107422" xlink:href="#DejaVuSans-105"/>
       <use x="1537.890625" xlink:href="#DejaVuSans-116"/>
       <use x="1577.099609" xlink:href="#DejaVuSans-97"/>
       <use x="1638.378906" xlink:href="#DejaVuSans-109"/>
       <use x="1735.791016" xlink:href="#DejaVuSans-105"/>
       <use x="1763.574219" xlink:href="#DejaVuSans-110"/>
       <use x="1826.953125" xlink:href="#DejaVuSans-115"/>
      </g>
     </g>
    </g>
    <g id="ytick_14">
     <g id="text_21">
      <!-- Metabolism of other amino acids -->
      <g style="fill:#262626;" transform="translate(57.908281 554.550786)scale(0.11 -0.11)">
       <use xlink:href="#DejaVuSans-77"/>
       <use x="86.279297" xlink:href="#DejaVuSans-101"/>
       <use x="147.802734" xlink:href="#DejaVuSans-116"/>
       <use x="187.011719" xlink:href="#DejaVuSans-97"/>
       <use x="248.291016" xlink:href="#DejaVuSans-98"/>
       <use x="311.767578" xlink:href="#DejaVuSans-111"/>
       <use x="372.949219" xlink:href="#DejaVuSans-108"/>
       <use x="400.732422" xlink:href="#DejaVuSans-105"/>
       <use x="428.515625" xlink:href="#DejaVuSans-115"/>
       <use x="480.615234" xlink:href="#DejaVuSans-109"/>
       <use x="578.027344" xlink:href="#DejaVuSans-32"/>
       <use x="609.814453" xlink:href="#DejaVuSans-111"/>
       <use x="670.996094" xlink:href="#DejaVuSans-102"/>
       <use x="706.201172" xlink:href="#DejaVuSans-32"/>
       <use x="737.988281" xlink:href="#DejaVuSans-111"/>
       <use x="799.169922" xlink:href="#DejaVuSans-116"/>
       <use x="838.378906" xlink:href="#DejaVuSans-104"/>
       <use x="901.757812" xlink:href="#DejaVuSans-101"/>
       <use x="963.28125" xlink:href="#DejaVuSans-114"/>
       <use x="1004.394531" xlink:href="#DejaVuSans-32"/>
       <use x="1036.181641" xlink:href="#DejaVuSans-97"/>
       <use x="1097.460938" xlink:href="#DejaVuSans-109"/>
       <use x="1194.873047" xlink:href="#DejaVuSans-105"/>
       <use x="1222.65625" xlink:href="#DejaVuSans-110"/>
       <use x="1286.035156" xlink:href="#DejaVuSans-111"/>
       <use x="1347.216797" xlink:href="#DejaVuSans-32"/>
       <use x="1379.003906" xlink:href="#DejaVuSans-97"/>
       <use x="1440.283203" xlink:href="#DejaVuSans-99"/>
       <use x="1495.263672" xlink:href="#DejaVuSans-105"/>
       <use x="1523.046875" xlink:href="#DejaVuSans-100"/>
       <use x="1586.523438" xlink:href="#DejaVuSans-115"/>
      </g>
     </g>
    </g>
    <g id="ytick_15">
     <g id="text_22">
      <!-- Metabolism of terpenoids and polyketides -->
      <g style="fill:#262626;" transform="translate(7.2 592.829267)scale(0.11 -0.11)">
       <use xlink:href="#DejaVuSans-77"/>
       <use x="86.279297" xlink:href="#DejaVuSans-101"/>
       <use x="147.802734" xlink:href="#DejaVuSans-116"/>
       <use x="187.011719" xlink:href="#DejaVuSans-97"/>
       <use x="248.291016" xlink:href="#DejaVuSans-98"/>
       <use x="311.767578" xlink:href="#DejaVuSans-111"/>
       <use x="372.949219" xlink:href="#DejaVuSans-108"/>
       <use x="400.732422" xlink:href="#DejaVuSans-105"/>
       <use x="428.515625" xlink:href="#DejaVuSans-115"/>
       <use x="480.615234" xlink:href="#DejaVuSans-109"/>
       <use x="578.027344" xlink:href="#DejaVuSans-32"/>
       <use x="609.814453" xlink:href="#DejaVuSans-111"/>
       <use x="670.996094" xlink:href="#DejaVuSans-102"/>
       <use x="706.201172" xlink:href="#DejaVuSans-32"/>
       <use x="737.988281" xlink:href="#DejaVuSans-116"/>
       <use x="777.197266" xlink:href="#DejaVuSans-101"/>
       <use x="838.720703" xlink:href="#DejaVuSans-114"/>
       <use x="879.833984" xlink:href="#DejaVuSans-112"/>
       <use x="943.310547" xlink:href="#DejaVuSans-101"/>
       <use x="1004.833984" xlink:href="#DejaVuSans-110"/>
       <use x="1068.212891" xlink:href="#DejaVuSans-111"/>
       <use x="1129.394531" xlink:href="#DejaVuSans-105"/>
       <use x="1157.177734" xlink:href="#DejaVuSans-100"/>
       <use x="1220.654297" xlink:href="#DejaVuSans-115"/>
       <use x="1272.753906" xlink:href="#DejaVuSans-32"/>
       <use x="1304.541016" xlink:href="#DejaVuSans-97"/>
       <use x="1365.820312" xlink:href="#DejaVuSans-110"/>
       <use x="1429.199219" xlink:href="#DejaVuSans-100"/>
       <use x="1492.675781" xlink:href="#DejaVuSans-32"/>
       <use x="1524.462891" xlink:href="#DejaVuSans-112"/>
       <use x="1587.939453" xlink:href="#DejaVuSans-111"/>
       <use x="1649.121094" xlink:href="#DejaVuSans-108"/>
       <use x="1676.904297" xlink:href="#DejaVuSans-121"/>
       <use x="1736.083984" xlink:href="#DejaVuSans-107"/>
       <use x="1793.947266" xlink:href="#DejaVuSans-101"/>
       <use x="1855.470703" xlink:href="#DejaVuSans-116"/>
       <use x="1894.679688" xlink:href="#DejaVuSans-105"/>
       <use x="1922.462891" xlink:href="#DejaVuSans-100"/>
       <use x="1985.939453" xlink:href="#DejaVuSans-101"/>
       <use x="2047.462891" xlink:href="#DejaVuSans-115"/>
      </g>
     </g>
    </g>
    <g id="ytick_16">
     <g id="text_23">
      <!-- Nucleotide metabolism -->
      <g style="fill:#262626;" transform="translate(110.928281 631.107748)scale(0.11 -0.11)">
       <use xlink:href="#DejaVuSans-78"/>
       <use x="74.804688" xlink:href="#DejaVuSans-117"/>
       <use x="138.183594" xlink:href="#DejaVuSans-99"/>
       <use x="193.164062" xlink:href="#DejaVuSans-108"/>
       <use x="220.947266" xlink:href="#DejaVuSans-101"/>
       <use x="282.470703" xlink:href="#DejaVuSans-111"/>
       <use x="343.652344" xlink:href="#DejaVuSans-116"/>
       <use x="382.861328" xlink:href="#DejaVuSans-105"/>
       <use x="410.644531" xlink:href="#DejaVuSans-100"/>
       <use x="474.121094" xlink:href="#DejaVuSans-101"/>
       <use x="535.644531" xlink:href="#DejaVuSans-32"/>
       <use x="567.431641" xlink:href="#DejaVuSans-109"/>
       <use x="664.84375" xlink:href="#DejaVuSans-101"/>
       <use x="726.367188" xlink:href="#DejaVuSans-116"/>
       <use x="765.576172" xlink:href="#DejaVuSans-97"/>
       <use x="826.855469" xlink:href="#DejaVuSans-98"/>
       <use x="890.332031" xlink:href="#DejaVuSans-111"/>
       <use x="951.513672" xlink:href="#DejaVuSans-108"/>
       <use x="979.296875" xlink:href="#DejaVuSans-105"/>
       <use x="1007.080078" xlink:href="#DejaVuSans-115"/>
       <use x="1059.179688" xlink:href="#DejaVuSans-109"/>
      </g>
     </g>
    </g>
   </g>
   <g id="patch_3">
    <path clip-path="url(#pcbc08165e9)" d="M 247.655313 37.44 
L 276.15602 37.44 
L 276.15602 43.564557 
L 247.655313 43.564557 
z
" style="fill:#96cac1;stroke:#ffffff;stroke-linejoin:miter;"/>
   </g>
   <g id="patch_4">
    <path clip-path="url(#pcbc08165e9)" d="M 247.655313 75.718481 
L 370.42759 75.718481 
L 370.42759 81.843038 
L 247.655313 81.843038 
z
" style="fill:#96cac1;stroke:#ffffff;stroke-linejoin:miter;"/>
   </g>
   <g id="patch_5">
    <path clip-path="url(#pcbc08165e9)" d="M 247.655313 113.996962 
L 339.73452 113.996962 
L 339.73452 120.121519 
L 247.655313 120.121519 
z
" style="fill:#96cac1;stroke:#ffffff;stroke-linejoin:miter;"/>
   </g>
   <g id="patch_6">
    <path clip-path="url(#pcbc08165e9)" d="M 247.655313 152.275443 
L 427.429004 152.275443 
L 427.429004 158.4 
L 247.655313 158.4 
z
" style="fill:#96cac1;stroke:#ffffff;stroke-linejoin:miter;"/>
   </g>
   <g id="patch_7">
    <path clip-path="url(#pcbc08165e9)" d="M 247.655313 190.553924 
L 396.735935 190.553924 
L 396.735935 196.678481 
L 247.655313 196.678481 
z
" style="fill:#96cac1;stroke:#ffffff;stroke-linejoin:miter;"/>
   </g>
   <g id="patch_8">
    <path clip-path="url(#pcbc08165e9)" d="M 247.655313 228.832405 
L 309.041451 228.832405 
L 309.041451 234.956962 
L 247.655313 234.956962 
z
" style="fill:#96cac1;stroke:#ffffff;stroke-linejoin:miter;"/>
   </g>
   <g id="patch_9">
    <path clip-path="url(#pcbc08165e9)" d="M 247.655313 267.110886 
L 372.619952 267.110886 
L 372.619952 273.235443 
L 247.655313 273.235443 
z
" style="fill:#96cac1;stroke:#ffffff;stroke-linejoin:miter;"/>
   </g>
   <g id="patch_10">
    <path clip-path="url(#pcbc08165e9)" d="M 247.655313 305.389367 
L 298.079641 305.389367 
L 298.079641 311.513924 
L 247.655313 311.513924 
z
" style="fill:#96cac1;stroke:#ffffff;stroke-linejoin:miter;"/>
   </g>
   <g id="patch_11">
    <path clip-path="url(#pcbc08165e9)" d="M 247.655313 343.667848 
L 280.540744 343.667848 
L 280.540744 349.792405 
L 247.655313 349.792405 
z
" style="fill:#96cac1;stroke:#ffffff;stroke-linejoin:miter;"/>
   </g>
   <g id="patch_12">
    <path clip-path="url(#pcbc08165e9)" d="M 247.655313 381.946329 
L 370.42759 381.946329 
L 370.42759 388.070886 
L 247.655313 388.070886 
z
" style="fill:#96cac1;stroke:#ffffff;stroke-linejoin:miter;"/>
   </g>
   <g id="patch_13">
    <path clip-path="url(#pcbc08165e9)" d="M 247.655313 420.22481 
L 282.733106 420.22481 
L 282.733106 426.349367 
L 247.655313 426.349367 
z
" style="fill:#96cac1;stroke:#ffffff;stroke-linejoin:miter;"/>
   </g>
   <g id="patch_14">
    <path clip-path="url(#pcbc08165e9)" d="M 247.655313 458.503291 
L 383.581762 458.503291 
L 383.581762 464.627848 
L 247.655313 464.627848 
z
" style="fill:#96cac1;stroke:#ffffff;stroke-linejoin:miter;"/>
   </g>
   <g id="patch_15">
    <path clip-path="url(#pcbc08165e9)" d="M 247.655313 496.781772 
L 295.887279 496.781772 
L 295.887279 502.906329 
L 247.655313 502.906329 
z
" style="fill:#96cac1;stroke:#ffffff;stroke-linejoin:miter;"/>
   </g>
   <g id="patch_16">
    <path clip-path="url(#pcbc08165e9)" d="M 247.655313 535.060253 
L 280.540744 535.060253 
L 280.540744 541.18481 
L 247.655313 541.18481 
z
" style="fill:#96cac1;stroke:#ffffff;stroke-linejoin:miter;"/>
   </g>
   <g id="patch_17">
    <path clip-path="url(#pcbc08165e9)" d="M 247.655313 573.338734 
L 256.424761 573.338734 
L 256.424761 579.463291 
L 247.655313 579.463291 
z
" style="fill:#96cac1;stroke:#ffffff;stroke-linejoin:miter;"/>
   </g>
   <g id="patch_18">
    <path clip-path="url(#pcbc08165e9)" d="M 247.655313 611.617215 
L 381.3894 611.617215 
L 381.3894 617.741772 
L 247.655313 617.741772 
z
" style="fill:#96cac1;stroke:#ffffff;stroke-linejoin:miter;"/>
   </g>
   <g id="patch_19">
    <path clip-path="url(#pcbc08165e9)" d="M 247.655313 43.564557 
L 372.619952 43.564557 
L 372.619952 49.689114 
L 247.655313 49.689114 
z
" style="fill:#f6f6bc;stroke:#ffffff;stroke-linejoin:miter;"/>
   </g>
   <g id="patch_20">
    <path clip-path="url(#pcbc08165e9)" d="M 247.655313 81.843038 
L 350.696331 81.843038 
L 350.696331 87.967595 
L 247.655313 87.967595 
z
" style="fill:#f6f6bc;stroke:#ffffff;stroke-linejoin:miter;"/>
   </g>
   <g id="patch_21">
    <path clip-path="url(#pcbc08165e9)" d="M 247.655313 120.121519 
L 339.73452 120.121519 
L 339.73452 126.246076 
L 247.655313 126.246076 
z
" style="fill:#f6f6bc;stroke:#ffffff;stroke-linejoin:miter;"/>
   </g>
   <g id="patch_22">
    <path clip-path="url(#pcbc08165e9)" d="M 247.655313 158.4 
L 420.851918 158.4 
L 420.851918 164.524557 
L 247.655313 164.524557 
z
" style="fill:#f6f6bc;stroke:#ffffff;stroke-linejoin:miter;"/>
   </g>
   <g id="patch_23">
    <path clip-path="url(#pcbc08165e9)" d="M 247.655313 196.678481 
L 394.543573 196.678481 
L 394.543573 202.803038 
L 247.655313 202.803038 
z
" style="fill:#f6f6bc;stroke:#ffffff;stroke-linejoin:miter;"/>
   </g>
   <g id="patch_24">
    <path clip-path="url(#pcbc08165e9)" d="M 247.655313 234.956962 
L 291.502554 234.956962 
L 291.502554 241.081519 
L 247.655313 241.081519 
z
" style="fill:#f6f6bc;stroke:#ffffff;stroke-linejoin:miter;"/>
   </g>
   <g id="patch_25">
    <path clip-path="url(#pcbc08165e9)" d="M 247.655313 273.235443 
L 363.850503 273.235443 
L 363.850503 279.36 
L 247.655313 279.36 
z
" style="fill:#f6f6bc;stroke:#ffffff;stroke-linejoin:miter;"/>
   </g>
   <g id="patch_26">
    <path clip-path="url(#pcbc08165e9)" d="M 247.655313 311.513924 
L 278.348382 311.513924 
L 278.348382 317.638481 
L 247.655313 317.638481 
z
" style="fill:#f6f6bc;stroke:#ffffff;stroke-linejoin:miter;"/>
   </g>
   <g id="patch_27">
    <path clip-path="url(#pcbc08165e9)" d="M 247.655313 349.792405 
L 278.348382 349.792405 
L 278.348382 355.916962 
L 247.655313 355.916962 
z
" style="fill:#f6f6bc;stroke:#ffffff;stroke-linejoin:miter;"/>
   </g>
   <g id="patch_28">
    <path clip-path="url(#pcbc08165e9)" d="M 247.655313 388.070886 
L 359.465779 388.070886 
L 359.465779 394.195443 
L 247.655313 394.195443 
z
" style="fill:#f6f6bc;stroke:#ffffff;stroke-linejoin:miter;"/>
   </g>
   <g id="patch_29">
    <path clip-path="url(#pcbc08165e9)" d="M 247.655313 426.349367 
L 280.540744 426.349367 
L 280.540744 432.473924 
L 247.655313 432.473924 
z
" style="fill:#f6f6bc;stroke:#ffffff;stroke-linejoin:miter;"/>
   </g>
   <g id="patch_30">
    <path clip-path="url(#pcbc08165e9)" d="M 247.655313 464.627848 
L 372.619952 464.627848 
L 372.619952 470.752405 
L 247.655313 470.752405 
z
" style="fill:#f6f6bc;stroke:#ffffff;stroke-linejoin:miter;"/>
   </g>
   <g id="patch_31">
    <path clip-path="url(#pcbc08165e9)" d="M 247.655313 502.906329 
L 289.310192 502.906329 
L 289.310192 509.030886 
L 247.655313 509.030886 
z
" style="fill:#f6f6bc;stroke:#ffffff;stroke-linejoin:miter;"/>
   </g>
   <g id="patch_32">
    <path clip-path="url(#pcbc08165e9)" d="M 247.655313 541.18481 
L 271.771296 541.18481 
L 271.771296 547.309367 
L 247.655313 547.309367 
z
" style="fill:#f6f6bc;stroke:#ffffff;stroke-linejoin:miter;"/>
   </g>
   <g id="patch_33">
    <path clip-path="url(#pcbc08165e9)" d="M 247.655313 579.463291 
L 258.617123 579.463291 
L 258.617123 585.587848 
L 247.655313 585.587848 
z
" style="fill:#f6f6bc;stroke:#ffffff;stroke-linejoin:miter;"/>
   </g>
   <g id="patch_34">
    <path clip-path="url(#pcbc08165e9)" d="M 247.655313 617.741772 
L 387.966486 617.741772 
L 387.966486 623.866329 
L 247.655313 623.866329 
z
" style="fill:#f6f6bc;stroke:#ffffff;stroke-linejoin:miter;"/>
   </g>
   <g id="patch_35">
    <path clip-path="url(#pcbc08165e9)" d="M 247.655313 49.689114 
L 328.77271 49.689114 
L 328.77271 55.813671 
L 247.655313 55.813671 
z
" style="fill:#c1bed6;stroke:#ffffff;stroke-linejoin:miter;"/>
   </g>
   <g id="patch_36">
    <path clip-path="url(#pcbc08165e9)" d="M 247.655313 87.967595 
L 348.503969 87.967595 
L 348.503969 94.092152 
L 247.655313 94.092152 
z
" style="fill:#c1bed6;stroke:#ffffff;stroke-linejoin:miter;"/>
   </g>
   <g id="patch_37">
    <path clip-path="url(#pcbc08165e9)" d="M 247.655313 126.246076 
L 346.311607 126.246076 
L 346.311607 132.370633 
L 247.655313 132.370633 
z
" style="fill:#c1bed6;stroke:#ffffff;stroke-linejoin:miter;"/>
   </g>
   <g id="patch_38">
    <path clip-path="url(#pcbc08165e9)" d="M 247.655313 164.524557 
L 412.08247 164.524557 
L 412.08247 170.649114 
L 247.655313 170.649114 
z
" style="fill:#c1bed6;stroke:#ffffff;stroke-linejoin:miter;"/>
   </g>
   <g id="patch_39">
    <path clip-path="url(#pcbc08165e9)" d="M 247.655313 202.803038 
L 387.966486 202.803038 
L 387.966486 208.927595 
L 247.655313 208.927595 
z
" style="fill:#c1bed6;stroke:#ffffff;stroke-linejoin:miter;"/>
   </g>
   <g id="patch_40">
    <path clip-path="url(#pcbc08165e9)" d="M 247.655313 241.081519 
L 276.15602 241.081519 
L 276.15602 247.206076 
L 247.655313 247.206076 
z
" style="fill:#c1bed6;stroke:#ffffff;stroke-linejoin:miter;"/>
   </g>
   <g id="patch_41">
    <path clip-path="url(#pcbc08165e9)" d="M 247.655313 279.36 
L 359.465779 279.36 
L 359.465779 285.484557 
L 247.655313 285.484557 
z
" style="fill:#c1bed6;stroke:#ffffff;stroke-linejoin:miter;"/>
   </g>
   <g id="patch_42">
    <path clip-path="url(#pcbc08165e9)" d="M 247.655313 317.638481 
L 278.348382 317.638481 
L 278.348382 323.763038 
L 247.655313 323.763038 
z
" style="fill:#c1bed6;stroke:#ffffff;stroke-linejoin:miter;"/>
   </g>
   <g id="patch_43">
    <path clip-path="url(#pcbc08165e9)" d="M 247.655313 355.916962 
L 278.348382 355.916962 
L 278.348382 362.041519 
L 247.655313 362.041519 
z
" style="fill:#c1bed6;stroke:#ffffff;stroke-linejoin:miter;"/>
   </g>
   <g id="patch_44">
    <path clip-path="url(#pcbc08165e9)" d="M 247.655313 394.195443 
L 355.081055 394.195443 
L 355.081055 400.32 
L 247.655313 400.32 
z
" style="fill:#c1bed6;stroke:#ffffff;stroke-linejoin:miter;"/>
   </g>
   <g id="patch_45">
    <path clip-path="url(#pcbc08165e9)" d="M 247.655313 432.473924 
L 278.348382 432.473924 
L 278.348382 438.598481 
L 247.655313 438.598481 
z
" style="fill:#c1bed6;stroke:#ffffff;stroke-linejoin:miter;"/>
   </g>
   <g id="patch_46">
    <path clip-path="url(#pcbc08165e9)" d="M 247.655313 470.752405 
L 368.235228 470.752405 
L 368.235228 476.876962 
L 247.655313 476.876962 
z
" style="fill:#c1bed6;stroke:#ffffff;stroke-linejoin:miter;"/>
   </g>
   <g id="patch_47">
    <path clip-path="url(#pcbc08165e9)" d="M 247.655313 509.030886 
L 295.887279 509.030886 
L 295.887279 515.155443 
L 247.655313 515.155443 
z
" style="fill:#c1bed6;stroke:#ffffff;stroke-linejoin:miter;"/>
   </g>
   <g id="patch_48">
    <path clip-path="url(#pcbc08165e9)" d="M 247.655313 547.309367 
L 269.578933 547.309367 
L 269.578933 553.433924 
L 247.655313 553.433924 
z
" style="fill:#c1bed6;stroke:#ffffff;stroke-linejoin:miter;"/>
   </g>
   <g id="patch_49">
    <path clip-path="url(#pcbc08165e9)" d="M 247.655313 585.587848 
L 258.617123 585.587848 
L 258.617123 591.712405 
L 247.655313 591.712405 
z
" style="fill:#c1bed6;stroke:#ffffff;stroke-linejoin:miter;"/>
   </g>
   <g id="patch_50">
    <path clip-path="url(#pcbc08165e9)" d="M 247.655313 623.866329 
L 379.197038 623.866329 
L 379.197038 629.990886 
L 247.655313 629.990886 
z
" style="fill:#c1bed6;stroke:#ffffff;stroke-linejoin:miter;"/>
   </g>
   <g id="patch_51">
    <path clip-path="url(#pcbc08165e9)" d="M 247.655313 55.813671 
L 330.965072 55.813671 
L 330.965072 61.938228 
L 247.655313 61.938228 
z
" style="fill:#ea8e83;stroke:#ffffff;stroke-linejoin:miter;"/>
   </g>
   <g id="patch_52">
    <path clip-path="url(#pcbc08165e9)" d="M 247.655313 94.092152 
L 355.081055 94.092152 
L 355.081055 100.216709 
L 247.655313 100.216709 
z
" style="fill:#ea8e83;stroke:#ffffff;stroke-linejoin:miter;"/>
   </g>
   <g id="patch_53">
    <path clip-path="url(#pcbc08165e9)" d="M 247.655313 132.370633 
L 348.503969 132.370633 
L 348.503969 138.49519 
L 247.655313 138.49519 
z
" style="fill:#ea8e83;stroke:#ffffff;stroke-linejoin:miter;"/>
   </g>
   <g id="patch_54">
    <path clip-path="url(#pcbc08165e9)" d="M 247.655313 170.649114 
L 420.851918 170.649114 
L 420.851918 176.773671 
L 247.655313 176.773671 
z
" style="fill:#ea8e83;stroke:#ffffff;stroke-linejoin:miter;"/>
   </g>
   <g id="patch_55">
    <path clip-path="url(#pcbc08165e9)" d="M 247.655313 208.927595 
L 385.774124 208.927595 
L 385.774124 215.052152 
L 247.655313 215.052152 
z
" style="fill:#ea8e83;stroke:#ffffff;stroke-linejoin:miter;"/>
   </g>
   <g id="patch_56">
    <path clip-path="url(#pcbc08165e9)" d="M 247.655313 247.206076 
L 282.733106 247.206076 
L 282.733106 253.330633 
L 247.655313 253.330633 
z
" style="fill:#ea8e83;stroke:#ffffff;stroke-linejoin:miter;"/>
   </g>
   <g id="patch_57">
    <path clip-path="url(#pcbc08165e9)" d="M 247.655313 285.484557 
L 357.273417 285.484557 
L 357.273417 291.609114 
L 247.655313 291.609114 
z
" style="fill:#ea8e83;stroke:#ffffff;stroke-linejoin:miter;"/>
   </g>
   <g id="patch_58">
    <path clip-path="url(#pcbc08165e9)" d="M 247.655313 323.763038 
L 282.733106 323.763038 
L 282.733106 329.887595 
L 247.655313 329.887595 
z
" style="fill:#ea8e83;stroke:#ffffff;stroke-linejoin:miter;"/>
   </g>
   <g id="patch_59">
    <path clip-path="url(#pcbc08165e9)" d="M 247.655313 362.041519 
L 276.15602 362.041519 
L 276.15602 368.166076 
L 247.655313 368.166076 
z
" style="fill:#ea8e83;stroke:#ffffff;stroke-linejoin:miter;"/>
   </g>
   <g id="patch_60">
    <path clip-path="url(#pcbc08165e9)" d="M 247.655313 400.32 
L 346.311607 400.32 
L 346.311607 406.444557 
L 247.655313 406.444557 
z
" style="fill:#ea8e83;stroke:#ffffff;stroke-linejoin:miter;"/>
   </g>
   <g id="patch_61">
    <path clip-path="url(#pcbc08165e9)" d="M 247.655313 438.598481 
L 278.348382 438.598481 
L 278.348382 444.723038 
L 247.655313 444.723038 
z
" style="fill:#ea8e83;stroke:#ffffff;stroke-linejoin:miter;"/>
   </g>
   <g id="patch_62">
    <path clip-path="url(#pcbc08165e9)" d="M 247.655313 476.876962 
L 363.850503 476.876962 
L 363.850503 483.001519 
L 247.655313 483.001519 
z
" style="fill:#ea8e83;stroke:#ffffff;stroke-linejoin:miter;"/>
   </g>
   <g id="patch_63">
    <path clip-path="url(#pcbc08165e9)" d="M 247.655313 515.155443 
L 289.310192 515.155443 
L 289.310192 521.28 
L 247.655313 521.28 
z
" style="fill:#ea8e83;stroke:#ffffff;stroke-linejoin:miter;"/>
   </g>
   <g id="patch_64">
    <path clip-path="url(#pcbc08165e9)" d="M 247.655313 553.433924 
L 271.771296 553.433924 
L 271.771296 559.558481 
L 247.655313 559.558481 
z
" style="fill:#ea8e83;stroke:#ffffff;stroke-linejoin:miter;"/>
   </g>
   <g id="patch_65">
    <path clip-path="url(#pcbc08165e9)" d="M 247.655313 591.712405 
L 258.617123 591.712405 
L 258.617123 597.836962 
L 247.655313 597.836962 
z
" style="fill:#ea8e83;stroke:#ffffff;stroke-linejoin:miter;"/>
   </g>
   <g id="patch_66">
    <path clip-path="url(#pcbc08165e9)" d="M 247.655313 629.990886 
L 398.928297 629.990886 
L 398.928297 636.115443 
L 247.655313 636.115443 
z
" style="fill:#ea8e83;stroke:#ffffff;stroke-linejoin:miter;"/>
   </g>
   <g id="patch_67">
    <path clip-path="url(#pcbc08165e9)" d="M 247.655313 61.938228 
L 333.157434 61.938228 
L 333.157434 68.062785 
L 247.655313 68.062785 
z
" style="fill:#8aafc9;stroke:#ffffff;stroke-linejoin:miter;"/>
   </g>
   <g id="patch_68">
    <path clip-path="url(#pcbc08165e9)" d="M 247.655313 100.216709 
L 405.505383 100.216709 
L 405.505383 106.341266 
L 247.655313 106.341266 
z
" style="fill:#8aafc9;stroke:#ffffff;stroke-linejoin:miter;"/>
   </g>
   <g id="patch_69">
    <path clip-path="url(#pcbc08165e9)" d="M 247.655313 138.49519 
L 366.042866 138.49519 
L 366.042866 144.619747 
L 247.655313 144.619747 
z
" style="fill:#8aafc9;stroke:#ffffff;stroke-linejoin:miter;"/>
   </g>
   <g id="patch_70">
    <path clip-path="url(#pcbc08165e9)" d="M 247.655313 176.773671 
L 458.122073 176.773671 
L 458.122073 182.898228 
L 247.655313 182.898228 
z
" style="fill:#8aafc9;stroke:#ffffff;stroke-linejoin:miter;"/>
   </g>
   <g id="patch_71">
    <path clip-path="url(#pcbc08165e9)" d="M 247.655313 215.052152 
L 387.966486 215.052152 
L 387.966486 221.176709 
L 247.655313 221.176709 
z
" style="fill:#8aafc9;stroke:#ffffff;stroke-linejoin:miter;"/>
   </g>
   <g id="patch_72">
    <path clip-path="url(#pcbc08165e9)" d="M 247.655313 253.330633 
L 302.464365 253.330633 
L 302.464365 259.45519 
L 247.655313 259.45519 
z
" style="fill:#8aafc9;stroke:#ffffff;stroke-linejoin:miter;"/>
   </g>
   <g id="patch_73">
    <path clip-path="url(#pcbc08165e9)" d="M 247.655313 291.609114 
L 374.812314 291.609114 
L 374.812314 297.733671 
L 247.655313 297.733671 
z
" style="fill:#8aafc9;stroke:#ffffff;stroke-linejoin:miter;"/>
   </g>
   <g id="patch_74">
    <path clip-path="url(#pcbc08165e9)" d="M 247.655313 329.887595 
L 306.849089 329.887595 
L 306.849089 336.012152 
L 247.655313 336.012152 
z
" style="fill:#8aafc9;stroke:#ffffff;stroke-linejoin:miter;"/>
   </g>
   <g id="patch_75">
    <path clip-path="url(#pcbc08165e9)" d="M 247.655313 368.166076 
L 280.540744 368.166076 
L 280.540744 374.290633 
L 247.655313 374.290633 
z
" style="fill:#8aafc9;stroke:#ffffff;stroke-linejoin:miter;"/>
   </g>
   <g id="patch_76">
    <path clip-path="url(#pcbc08165e9)" d="M 247.655313 406.444557 
L 381.3894 406.444557 
L 381.3894 412.569114 
L 247.655313 412.569114 
z
" style="fill:#8aafc9;stroke:#ffffff;stroke-linejoin:miter;"/>
   </g>
   <g id="patch_77">
    <path clip-path="url(#pcbc08165e9)" d="M 247.655313 444.723038 
L 284.925468 444.723038 
L 284.925468 450.847595 
L 247.655313 450.847595 
z
" style="fill:#8aafc9;stroke:#ffffff;stroke-linejoin:miter;"/>
   </g>
   <g id="patch_78">
    <path clip-path="url(#pcbc08165e9)" d="M 247.655313 483.001519 
L 396.735935 483.001519 
L 396.735935 489.126076 
L 247.655313 489.126076 
z
" style="fill:#8aafc9;stroke:#ffffff;stroke-linejoin:miter;"/>
   </g>
   <g id="patch_79">
    <path clip-path="url(#pcbc08165e9)" d="M 247.655313 521.28 
L 300.272003 521.28 
L 300.272003 527.404557 
L 247.655313 527.404557 
z
" style="fill:#8aafc9;stroke:#ffffff;stroke-linejoin:miter;"/>
   </g>
   <g id="patch_80">
    <path clip-path="url(#pcbc08165e9)" d="M 247.655313 559.558481 
L 291.502554 559.558481 
L 291.502554 565.683038 
L 247.655313 565.683038 
z
" style="fill:#8aafc9;stroke:#ffffff;stroke-linejoin:miter;"/>
   </g>
   <g id="patch_81">
    <path clip-path="url(#pcbc08165e9)" d="M 247.655313 597.836962 
L 260.809485 597.836962 
L 260.809485 603.961519 
L 247.655313 603.961519 
z
" style="fill:#8aafc9;stroke:#ffffff;stroke-linejoin:miter;"/>
   </g>
   <g id="patch_82">
    <path clip-path="url(#pcbc08165e9)" d="M 247.655313 636.115443 
L 407.697745 636.115443 
L 407.697745 642.24 
L 247.655313 642.24 
z
" style="fill:#8aafc9;stroke:#ffffff;stroke-linejoin:miter;"/>
   </g>
   <g id="line2d_1">
    <path clip-path="url(#pcbc08165e9)" d="M 0 0 
" style="fill:none;stroke:#424242;stroke-linecap:round;stroke-width:2.7;"/>
   </g>
   <g id="line2d_2">
    <path clip-path="url(#pcbc08165e9)" d="M 0 0 
" style="fill:none;stroke:#424242;stroke-linecap:round;stroke-width:2.7;"/>
   </g>
   <g id="line2d_3">
    <path clip-path="url(#pcbc08165e9)" d="M 0 0 
" style="fill:none;stroke:#424242;stroke-linecap:round;stroke-width:2.7;"/>
   </g>
   <g id="line2d_4">
    <path clip-path="url(#pcbc08165e9)" d="M 0 0 
" style="fill:none;stroke:#424242;stroke-linecap:round;stroke-width:2.7;"/>
   </g>
   <g id="line2d_5">
    <path clip-path="url(#pcbc08165e9)" d="M 0 0 
" style="fill:none;stroke:#424242;stroke-linecap:round;stroke-width:2.7;"/>
   </g>
   <g id="line2d_6">
    <path clip-path="url(#pcbc08165e9)" d="M 0 0 
" style="fill:none;stroke:#424242;stroke-linecap:round;stroke-width:2.7;"/>
   </g>
   <g id="line2d_7">
    <path clip-path="url(#pcbc08165e9)" d="M 0 0 
" style="fill:none;stroke:#424242;stroke-linecap:round;stroke-width:2.7;"/>
   </g>
   <g id="line2d_8">
    <path clip-path="url(#pcbc08165e9)" d="M 0 0 
" style="fill:none;stroke:#424242;stroke-linecap:round;stroke-width:2.7;"/>
   </g>
   <g id="line2d_9">
    <path clip-path="url(#pcbc08165e9)" d="M 0 0 
" style="fill:none;stroke:#424242;stroke-linecap:round;stroke-width:2.7;"/>
   </g>
   <g id="line2d_10">
    <path clip-path="url(#pcbc08165e9)" d="M 0 0 
" style="fill:none;stroke:#424242;stroke-linecap:round;stroke-width:2.7;"/>
   </g>
   <g id="line2d_11">
    <path clip-path="url(#pcbc08165e9)" d="M 0 0 
" style="fill:none;stroke:#424242;stroke-linecap:round;stroke-width:2.7;"/>
   </g>
   <g id="line2d_12">
    <path clip-path="url(#pcbc08165e9)" d="M 0 0 
" style="fill:none;stroke:#424242;stroke-linecap:round;stroke-width:2.7;"/>
   </g>
   <g id="line2d_13">
    <path clip-path="url(#pcbc08165e9)" d="M 0 0 
" style="fill:none;stroke:#424242;stroke-linecap:round;stroke-width:2.7;"/>
   </g>
   <g id="line2d_14">
    <path clip-path="url(#pcbc08165e9)" d="M 0 0 
" style="fill:none;stroke:#424242;stroke-linecap:round;stroke-width:2.7;"/>
   </g>
   <g id="line2d_15">
    <path clip-path="url(#pcbc08165e9)" d="M 0 0 
" style="fill:none;stroke:#424242;stroke-linecap:round;stroke-width:2.7;"/>
   </g>
   <g id="line2d_16">
    <path clip-path="url(#pcbc08165e9)" d="M 0 0 
" style="fill:none;stroke:#424242;stroke-linecap:round;stroke-width:2.7;"/>
   </g>
   <g id="line2d_17">
    <path clip-path="url(#pcbc08165e9)" d="M 0 0 
" style="fill:none;stroke:#424242;stroke-linecap:round;stroke-width:2.7;"/>
   </g>
   <g id="line2d_18">
    <path clip-path="url(#pcbc08165e9)" d="M 0 0 
" style="fill:none;stroke:#424242;stroke-linecap:round;stroke-width:2.7;"/>
   </g>
   <g id="line2d_19">
    <path clip-path="url(#pcbc08165e9)" d="M 0 0 
" style="fill:none;stroke:#424242;stroke-linecap:round;stroke-width:2.7;"/>
   </g>
   <g id="line2d_20">
    <path clip-path="url(#pcbc08165e9)" d="M 0 0 
" style="fill:none;stroke:#424242;stroke-linecap:round;stroke-width:2.7;"/>
   </g>
   <g id="line2d_21">
    <path clip-path="url(#pcbc08165e9)" d="M 0 0 
" style="fill:none;stroke:#424242;stroke-linecap:round;stroke-width:2.7;"/>
   </g>
   <g id="line2d_22">
    <path clip-path="url(#pcbc08165e9)" d="M 0 0 
" style="fill:none;stroke:#424242;stroke-linecap:round;stroke-width:2.7;"/>
   </g>
   <g id="line2d_23">
    <path clip-path="url(#pcbc08165e9)" d="M 0 0 
" style="fill:none;stroke:#424242;stroke-linecap:round;stroke-width:2.7;"/>
   </g>
   <g id="line2d_24">
    <path clip-path="url(#pcbc08165e9)" d="M 0 0 
" style="fill:none;stroke:#424242;stroke-linecap:round;stroke-width:2.7;"/>
   </g>
   <g id="line2d_25">
    <path clip-path="url(#pcbc08165e9)" d="M 0 0 
" style="fill:none;stroke:#424242;stroke-linecap:round;stroke-width:2.7;"/>
   </g>
   <g id="line2d_26">
    <path clip-path="url(#pcbc08165e9)" d="M 0 0 
" style="fill:none;stroke:#424242;stroke-linecap:round;stroke-width:2.7;"/>
   </g>
   <g id="line2d_27">
    <path clip-path="url(#pcbc08165e9)" d="M 0 0 
" style="fill:none;stroke:#424242;stroke-linecap:round;stroke-width:2.7;"/>
   </g>
   <g id="line2d_28">
    <path clip-path="url(#pcbc08165e9)" d="M 0 0 
" style="fill:none;stroke:#424242;stroke-linecap:round;stroke-width:2.7;"/>
   </g>
   <g id="line2d_29">
    <path clip-path="url(#pcbc08165e9)" d="M 0 0 
" style="fill:none;stroke:#424242;stroke-linecap:round;stroke-width:2.7;"/>
   </g>
   <g id="line2d_30">
    <path clip-path="url(#pcbc08165e9)" d="M 0 0 
" style="fill:none;stroke:#424242;stroke-linecap:round;stroke-width:2.7;"/>
   </g>
   <g id="line2d_31">
    <path clip-path="url(#pcbc08165e9)" d="M 0 0 
" style="fill:none;stroke:#424242;stroke-linecap:round;stroke-width:2.7;"/>
   </g>
   <g id="line2d_32">
    <path clip-path="url(#pcbc08165e9)" d="M 0 0 
" style="fill:none;stroke:#424242;stroke-linecap:round;stroke-width:2.7;"/>
   </g>
   <g id="line2d_33">
    <path clip-path="url(#pcbc08165e9)" d="M 0 0 
" style="fill:none;stroke:#424242;stroke-linecap:round;stroke-width:2.7;"/>
   </g>
   <g id="line2d_34">
    <path clip-path="url(#pcbc08165e9)" d="M 0 0 
" style="fill:none;stroke:#424242;stroke-linecap:round;stroke-width:2.7;"/>
   </g>
   <g id="line2d_35">
    <path clip-path="url(#pcbc08165e9)" d="M 0 0 
" style="fill:none;stroke:#424242;stroke-linecap:round;stroke-width:2.7;"/>
   </g>
   <g id="line2d_36">
    <path clip-path="url(#pcbc08165e9)" d="M 0 0 
" style="fill:none;stroke:#424242;stroke-linecap:round;stroke-width:2.7;"/>
   </g>
   <g id="line2d_37">
    <path clip-path="url(#pcbc08165e9)" d="M 0 0 
" style="fill:none;stroke:#424242;stroke-linecap:round;stroke-width:2.7;"/>
   </g>
   <g id="line2d_38">
    <path clip-path="url(#pcbc08165e9)" d="M 0 0 
" style="fill:none;stroke:#424242;stroke-linecap:round;stroke-width:2.7;"/>
   </g>
   <g id="line2d_39">
    <path clip-path="url(#pcbc08165e9)" d="M 0 0 
" style="fill:none;stroke:#424242;stroke-linecap:round;stroke-width:2.7;"/>
   </g>
   <g id="line2d_40">
    <path clip-path="url(#pcbc08165e9)" d="M 0 0 
" style="fill:none;stroke:#424242;stroke-linecap:round;stroke-width:2.7;"/>
   </g>
   <g id="line2d_41">
    <path clip-path="url(#pcbc08165e9)" d="M 0 0 
" style="fill:none;stroke:#424242;stroke-linecap:round;stroke-width:2.7;"/>
   </g>
   <g id="line2d_42">
    <path clip-path="url(#pcbc08165e9)" d="M 0 0 
" style="fill:none;stroke:#424242;stroke-linecap:round;stroke-width:2.7;"/>
   </g>
   <g id="line2d_43">
    <path clip-path="url(#pcbc08165e9)" d="M 0 0 
" style="fill:none;stroke:#424242;stroke-linecap:round;stroke-width:2.7;"/>
   </g>
   <g id="line2d_44">
    <path clip-path="url(#pcbc08165e9)" d="M 0 0 
" style="fill:none;stroke:#424242;stroke-linecap:round;stroke-width:2.7;"/>
   </g>
   <g id="line2d_45">
    <path clip-path="url(#pcbc08165e9)" d="M 0 0 
" style="fill:none;stroke:#424242;stroke-linecap:round;stroke-width:2.7;"/>
   </g>
   <g id="line2d_46">
    <path clip-path="url(#pcbc08165e9)" d="M 0 0 
" style="fill:none;stroke:#424242;stroke-linecap:round;stroke-width:2.7;"/>
   </g>
   <g id="line2d_47">
    <path clip-path="url(#pcbc08165e9)" d="M 0 0 
" style="fill:none;stroke:#424242;stroke-linecap:round;stroke-width:2.7;"/>
   </g>
   <g id="line2d_48">
    <path clip-path="url(#pcbc08165e9)" d="M 0 0 
" style="fill:none;stroke:#424242;stroke-linecap:round;stroke-width:2.7;"/>
   </g>
   <g id="line2d_49">
    <path clip-path="url(#pcbc08165e9)" d="M 0 0 
" style="fill:none;stroke:#424242;stroke-linecap:round;stroke-width:2.7;"/>
   </g>
   <g id="line2d_50">
    <path clip-path="url(#pcbc08165e9)" d="M 0 0 
" style="fill:none;stroke:#424242;stroke-linecap:round;stroke-width:2.7;"/>
   </g>
   <g id="line2d_51">
    <path clip-path="url(#pcbc08165e9)" d="M 0 0 
" style="fill:none;stroke:#424242;stroke-linecap:round;stroke-width:2.7;"/>
   </g>
   <g id="line2d_52">
    <path clip-path="url(#pcbc08165e9)" d="M 0 0 
" style="fill:none;stroke:#424242;stroke-linecap:round;stroke-width:2.7;"/>
   </g>
   <g id="line2d_53">
    <path clip-path="url(#pcbc08165e9)" d="M 0 0 
" style="fill:none;stroke:#424242;stroke-linecap:round;stroke-width:2.7;"/>
   </g>
   <g id="line2d_54">
    <path clip-path="url(#pcbc08165e9)" d="M 0 0 
" style="fill:none;stroke:#424242;stroke-linecap:round;stroke-width:2.7;"/>
   </g>
   <g id="line2d_55">
    <path clip-path="url(#pcbc08165e9)" d="M 0 0 
" style="fill:none;stroke:#424242;stroke-linecap:round;stroke-width:2.7;"/>
   </g>
   <g id="line2d_56">
    <path clip-path="url(#pcbc08165e9)" d="M 0 0 
" style="fill:none;stroke:#424242;stroke-linecap:round;stroke-width:2.7;"/>
   </g>
   <g id="line2d_57">
    <path clip-path="url(#pcbc08165e9)" d="M 0 0 
" style="fill:none;stroke:#424242;stroke-linecap:round;stroke-width:2.7;"/>
   </g>
   <g id="line2d_58">
    <path clip-path="url(#pcbc08165e9)" d="M 0 0 
" style="fill:none;stroke:#424242;stroke-linecap:round;stroke-width:2.7;"/>
   </g>
   <g id="line2d_59">
    <path clip-path="url(#pcbc08165e9)" d="M 0 0 
" style="fill:none;stroke:#424242;stroke-linecap:round;stroke-width:2.7;"/>
   </g>
   <g id="line2d_60">
    <path clip-path="url(#pcbc08165e9)" d="M 0 0 
" style="fill:none;stroke:#424242;stroke-linecap:round;stroke-width:2.7;"/>
   </g>
   <g id="line2d_61">
    <path clip-path="url(#pcbc08165e9)" d="M 0 0 
" style="fill:none;stroke:#424242;stroke-linecap:round;stroke-width:2.7;"/>
   </g>
   <g id="line2d_62">
    <path clip-path="url(#pcbc08165e9)" d="M 0 0 
" style="fill:none;stroke:#424242;stroke-linecap:round;stroke-width:2.7;"/>
   </g>
   <g id="line2d_63">
    <path clip-path="url(#pcbc08165e9)" d="M 0 0 
" style="fill:none;stroke:#424242;stroke-linecap:round;stroke-width:2.7;"/>
   </g>
   <g id="line2d_64">
    <path clip-path="url(#pcbc08165e9)" d="M 0 0 
" style="fill:none;stroke:#424242;stroke-linecap:round;stroke-width:2.7;"/>
   </g>
   <g id="line2d_65">
    <path clip-path="url(#pcbc08165e9)" d="M 0 0 
" style="fill:none;stroke:#424242;stroke-linecap:round;stroke-width:2.7;"/>
   </g>
   <g id="line2d_66">
    <path clip-path="url(#pcbc08165e9)" d="M 0 0 
" style="fill:none;stroke:#424242;stroke-linecap:round;stroke-width:2.7;"/>
   </g>
   <g id="line2d_67">
    <path clip-path="url(#pcbc08165e9)" d="M 0 0 
" style="fill:none;stroke:#424242;stroke-linecap:round;stroke-width:2.7;"/>
   </g>
   <g id="line2d_68">
    <path clip-path="url(#pcbc08165e9)" d="M 0 0 
" style="fill:none;stroke:#424242;stroke-linecap:round;stroke-width:2.7;"/>
   </g>
   <g id="line2d_69">
    <path clip-path="url(#pcbc08165e9)" d="M 0 0 
" style="fill:none;stroke:#424242;stroke-linecap:round;stroke-width:2.7;"/>
   </g>
   <g id="line2d_70">
    <path clip-path="url(#pcbc08165e9)" d="M 0 0 
" style="fill:none;stroke:#424242;stroke-linecap:round;stroke-width:2.7;"/>
   </g>
   <g id="line2d_71">
    <path clip-path="url(#pcbc08165e9)" d="M 0 0 
" style="fill:none;stroke:#424242;stroke-linecap:round;stroke-width:2.7;"/>
   </g>
   <g id="line2d_72">
    <path clip-path="url(#pcbc08165e9)" d="M 0 0 
" style="fill:none;stroke:#424242;stroke-linecap:round;stroke-width:2.7;"/>
   </g>
   <g id="line2d_73">
    <path clip-path="url(#pcbc08165e9)" d="M 0 0 
" style="fill:none;stroke:#424242;stroke-linecap:round;stroke-width:2.7;"/>
   </g>
   <g id="line2d_74">
    <path clip-path="url(#pcbc08165e9)" d="M 0 0 
" style="fill:none;stroke:#424242;stroke-linecap:round;stroke-width:2.7;"/>
   </g>
   <g id="line2d_75">
    <path clip-path="url(#pcbc08165e9)" d="M 0 0 
" style="fill:none;stroke:#424242;stroke-linecap:round;stroke-width:2.7;"/>
   </g>
   <g id="line2d_76">
    <path clip-path="url(#pcbc08165e9)" d="M 0 0 
" style="fill:none;stroke:#424242;stroke-linecap:round;stroke-width:2.7;"/>
   </g>
   <g id="line2d_77">
    <path clip-path="url(#pcbc08165e9)" d="M 0 0 
" style="fill:none;stroke:#424242;stroke-linecap:round;stroke-width:2.7;"/>
   </g>
   <g id="line2d_78">
    <path clip-path="url(#pcbc08165e9)" d="M 0 0 
" style="fill:none;stroke:#424242;stroke-linecap:round;stroke-width:2.7;"/>
   </g>
   <g id="line2d_79">
    <path clip-path="url(#pcbc08165e9)" d="M 0 0 
" style="fill:none;stroke:#424242;stroke-linecap:round;stroke-width:2.7;"/>
   </g>
   <g id="line2d_80">
    <path clip-path="url(#pcbc08165e9)" d="M 0 0 
" style="fill:none;stroke:#424242;stroke-linecap:round;stroke-width:2.7;"/>
   </g>
   <g id="line2d_81">
    <path clip-path="url(#pcbc08165e9)" d="M 374.724619 48.923544 
L 374.724619 56.579241 
" style="fill:none;stroke:#000000;stroke-linecap:round;stroke-width:0.5;"/>
   </g>
   <g id="line2d_82">
    <path clip-path="url(#pcbc08165e9)" d="M 407.610051 87.202025 
L 407.610051 133.136203 
" style="fill:none;stroke:#000000;stroke-linecap:round;stroke-width:0.5;"/>
   </g>
   <g id="line2d_83">
    <path clip-path="url(#pcbc08165e9)" d="M 460.226741 163.758987 
L 460.226741 286.250127 
" style="fill:none;stroke:#000000;stroke-linecap:round;stroke-width:0.5;"/>
   </g>
   <g id="line2d_84">
    <path clip-path="url(#pcbc08165e9)" d="M 354.993361 316.872911 
L 354.993361 324.528608 
" style="fill:none;stroke:#000000;stroke-linecap:round;stroke-width:0.5;"/>
   </g>
   <g id="line2d_85">
    <path clip-path="url(#pcbc08165e9)" d="M 409.802413 355.151392 
L 409.802413 630.756456 
" style="fill:none;stroke:#000000;stroke-linecap:round;stroke-width:0.5;"/>
   </g>
   <g id="patch_83">
    <path d="M 247.655313 672.48 
L 247.655313 7.2 
" style="fill:none;stroke:#262626;stroke-linecap:square;stroke-linejoin:miter;stroke-width:1.25;"/>
   </g>
   <g id="patch_84">
    <path d="M 470.855312 672.48 
L 470.855312 7.2 
" style="fill:none;"/>
   </g>
   <g id="patch_85">
    <path d="M 247.655313 672.48 
L 470.855312 672.48 
" style="fill:none;stroke:#262626;stroke-linecap:square;stroke-linejoin:miter;stroke-width:1.25;"/>
   </g>
   <g id="patch_86">
    <path d="M 247.655313 7.2 
L 470.855312 7.2 
" style="fill:none;"/>
   </g>
   <g id="text_24">
    <!-- Cellular Processes -->
    <defs>
     <path d="M 19.671875 64.796875 
L 19.671875 37.40625 
L 32.078125 37.40625 
Q 38.96875 37.40625 42.71875 40.96875 
Q 46.484375 44.53125 46.484375 51.125 
Q 46.484375 57.671875 42.71875 61.234375 
Q 38.96875 64.796875 32.078125 64.796875 
z
M 9.8125 72.90625 
L 32.078125 72.90625 
Q 44.34375 72.90625 50.609375 67.359375 
Q 56.890625 61.8125 56.890625 51.125 
Q 56.890625 40.328125 50.609375 34.8125 
Q 44.34375 29.296875 32.078125 29.296875 
L 19.671875 29.296875 
L 19.671875 0 
L 9.8125 0 
z
" id="DejaVuSans-80"/>
    </defs>
    <g style="fill:#262626;" transform="translate(376.829287 56.062642)scale(0.12 -0.12)">
     <use xlink:href="#DejaVuSans-67"/>
     <use x="69.824219" xlink:href="#DejaVuSans-101"/>
     <use x="131.347656" xlink:href="#DejaVuSans-108"/>
     <use x="159.130859" xlink:href="#DejaVuSans-108"/>
     <use x="186.914062" xlink:href="#DejaVuSans-117"/>
     <use x="250.292969" xlink:href="#DejaVuSans-108"/>
     <use x="278.076172" xlink:href="#DejaVuSans-97"/>
     <use x="339.355469" xlink:href="#DejaVuSans-114"/>
     <use x="380.46875" xlink:href="#DejaVuSans-32"/>
     <use x="412.255859" xlink:href="#DejaVuSans-80"/>
     <use x="472.542969" xlink:href="#DejaVuSans-114"/>
     <use x="513.625" xlink:href="#DejaVuSans-111"/>
     <use x="574.806641" xlink:href="#DejaVuSans-99"/>
     <use x="629.787109" xlink:href="#DejaVuSans-101"/>
     <use x="691.310547" xlink:href="#DejaVuSans-115"/>
     <use x="743.410156" xlink:href="#DejaVuSans-115"/>
     <use x="795.509766" xlink:href="#DejaVuSans-101"/>
     <use x="857.033203" xlink:href="#DejaVuSans-115"/>
    </g>
   </g>
   <g id="text_25">
    <!-- Environmental Information Processing -->
    <defs>
     <path d="M 9.8125 72.90625 
L 19.671875 72.90625 
L 19.671875 0 
L 9.8125 0 
z
" id="DejaVuSans-73"/>
    </defs>
    <g style="fill:#262626;" transform="translate(409.714718 113.480364)scale(0.12 -0.12)">
     <use xlink:href="#DejaVuSans-69"/>
     <use x="63.183594" xlink:href="#DejaVuSans-110"/>
     <use x="126.5625" xlink:href="#DejaVuSans-118"/>
     <use x="185.742188" xlink:href="#DejaVuSans-105"/>
     <use x="213.525391" xlink:href="#DejaVuSans-114"/>
     <use x="254.607422" xlink:href="#DejaVuSans-111"/>
     <use x="315.789062" xlink:href="#DejaVuSans-110"/>
     <use x="379.167969" xlink:href="#DejaVuSans-109"/>
     <use x="476.580078" xlink:href="#DejaVuSans-101"/>
     <use x="538.103516" xlink:href="#DejaVuSans-110"/>
     <use x="601.482422" xlink:href="#DejaVuSans-116"/>
     <use x="640.691406" xlink:href="#DejaVuSans-97"/>
     <use x="701.970703" xlink:href="#DejaVuSans-108"/>
     <use x="729.753906" xlink:href="#DejaVuSans-32"/>
     <use x="761.541016" xlink:href="#DejaVuSans-73"/>
     <use x="791.033203" xlink:href="#DejaVuSans-110"/>
     <use x="854.412109" xlink:href="#DejaVuSans-102"/>
     <use x="889.617188" xlink:href="#DejaVuSans-111"/>
     <use x="950.798828" xlink:href="#DejaVuSans-114"/>
     <use x="991.896484" xlink:href="#DejaVuSans-109"/>
     <use x="1089.308594" xlink:href="#DejaVuSans-97"/>
     <use x="1150.587891" xlink:href="#DejaVuSans-116"/>
     <use x="1189.796875" xlink:href="#DejaVuSans-105"/>
     <use x="1217.580078" xlink:href="#DejaVuSans-111"/>
     <use x="1278.761719" xlink:href="#DejaVuSans-110"/>
     <use x="1342.140625" xlink:href="#DejaVuSans-32"/>
     <use x="1373.927734" xlink:href="#DejaVuSans-80"/>
     <use x="1434.214844" xlink:href="#DejaVuSans-114"/>
     <use x="1475.296875" xlink:href="#DejaVuSans-111"/>
     <use x="1536.478516" xlink:href="#DejaVuSans-99"/>
     <use x="1591.458984" xlink:href="#DejaVuSans-101"/>
     <use x="1652.982422" xlink:href="#DejaVuSans-115"/>
     <use x="1705.082031" xlink:href="#DejaVuSans-115"/>
     <use x="1757.181641" xlink:href="#DejaVuSans-105"/>
     <use x="1784.964844" xlink:href="#DejaVuSans-110"/>
     <use x="1848.34375" xlink:href="#DejaVuSans-103"/>
    </g>
   </g>
   <g id="text_26">
    <!-- Genetic Information Processing -->
    <defs>
     <path d="M 59.515625 10.40625 
L 59.515625 29.984375 
L 43.40625 29.984375 
L 43.40625 38.09375 
L 69.28125 38.09375 
L 69.28125 6.78125 
Q 63.578125 2.734375 56.6875 0.65625 
Q 49.8125 -1.421875 42 -1.421875 
Q 24.90625 -1.421875 15.25 8.5625 
Q 5.609375 18.5625 5.609375 36.375 
Q 5.609375 54.25 15.25 64.234375 
Q 24.90625 74.21875 42 74.21875 
Q 49.125 74.21875 55.546875 72.453125 
Q 61.96875 70.703125 67.390625 67.28125 
L 67.390625 56.78125 
Q 61.921875 61.421875 55.765625 63.765625 
Q 49.609375 66.109375 42.828125 66.109375 
Q 29.4375 66.109375 22.71875 58.640625 
Q 16.015625 51.171875 16.015625 36.375 
Q 16.015625 21.625 22.71875 14.15625 
Q 29.4375 6.6875 42.828125 6.6875 
Q 48.046875 6.6875 52.140625 7.59375 
Q 56.25 8.5 59.515625 10.40625 
z
" id="DejaVuSans-71"/>
    </defs>
    <g style="fill:#262626;" transform="translate(462.331409 228.315807)scale(0.12 -0.12)">
     <use xlink:href="#DejaVuSans-71"/>
     <use x="77.490234" xlink:href="#DejaVuSans-101"/>
     <use x="139.013672" xlink:href="#DejaVuSans-110"/>
     <use x="202.392578" xlink:href="#DejaVuSans-101"/>
     <use x="263.916016" xlink:href="#DejaVuSans-116"/>
     <use x="303.125" xlink:href="#DejaVuSans-105"/>
     <use x="330.908203" xlink:href="#DejaVuSans-99"/>
     <use x="385.888672" xlink:href="#DejaVuSans-32"/>
     <use x="417.675781" xlink:href="#DejaVuSans-73"/>
     <use x="447.167969" xlink:href="#DejaVuSans-110"/>
     <use x="510.546875" xlink:href="#DejaVuSans-102"/>
     <use x="545.751953" xlink:href="#DejaVuSans-111"/>
     <use x="606.933594" xlink:href="#DejaVuSans-114"/>
     <use x="648.03125" xlink:href="#DejaVuSans-109"/>
     <use x="745.443359" xlink:href="#DejaVuSans-97"/>
     <use x="806.722656" xlink:href="#DejaVuSans-116"/>
     <use x="845.931641" xlink:href="#DejaVuSans-105"/>
     <use x="873.714844" xlink:href="#DejaVuSans-111"/>
     <use x="934.896484" xlink:href="#DejaVuSans-110"/>
     <use x="998.275391" xlink:href="#DejaVuSans-32"/>
     <use x="1030.0625" xlink:href="#DejaVuSans-80"/>
     <use x="1090.349609" xlink:href="#DejaVuSans-114"/>
     <use x="1131.431641" xlink:href="#DejaVuSans-111"/>
     <use x="1192.613281" xlink:href="#DejaVuSans-99"/>
     <use x="1247.59375" xlink:href="#DejaVuSans-101"/>
     <use x="1309.117188" xlink:href="#DejaVuSans-115"/>
     <use x="1361.216797" xlink:href="#DejaVuSans-115"/>
     <use x="1413.316406" xlink:href="#DejaVuSans-105"/>
     <use x="1441.099609" xlink:href="#DejaVuSans-110"/>
     <use x="1504.478516" xlink:href="#DejaVuSans-103"/>
    </g>
   </g>
   <g id="text_27">
    <!-- Human Diseases -->
    <defs>
     <path d="M 9.8125 72.90625 
L 19.671875 72.90625 
L 19.671875 43.015625 
L 55.515625 43.015625 
L 55.515625 72.90625 
L 65.375 72.90625 
L 65.375 0 
L 55.515625 0 
L 55.515625 34.71875 
L 19.671875 34.71875 
L 19.671875 0 
L 9.8125 0 
z
" id="DejaVuSans-72"/>
    </defs>
    <g style="fill:#262626;" transform="translate(357.098028 324.012009)scale(0.12 -0.12)">
     <use xlink:href="#DejaVuSans-72"/>
     <use x="75.195312" xlink:href="#DejaVuSans-117"/>
     <use x="138.574219" xlink:href="#DejaVuSans-109"/>
     <use x="235.986328" xlink:href="#DejaVuSans-97"/>
     <use x="297.265625" xlink:href="#DejaVuSans-110"/>
     <use x="360.644531" xlink:href="#DejaVuSans-32"/>
     <use x="392.431641" xlink:href="#DejaVuSans-68"/>
     <use x="469.433594" xlink:href="#DejaVuSans-105"/>
     <use x="497.216797" xlink:href="#DejaVuSans-115"/>
     <use x="549.316406" xlink:href="#DejaVuSans-101"/>
     <use x="610.839844" xlink:href="#DejaVuSans-97"/>
     <use x="672.119141" xlink:href="#DejaVuSans-115"/>
     <use x="724.21875" xlink:href="#DejaVuSans-101"/>
     <use x="785.742188" xlink:href="#DejaVuSans-115"/>
    </g>
   </g>
   <g id="text_28">
    <!-- Metabolism -->
    <g style="fill:#262626;" transform="translate(411.907081 496.265174)scale(0.12 -0.12)">
     <use xlink:href="#DejaVuSans-77"/>
     <use x="86.279297" xlink:href="#DejaVuSans-101"/>
     <use x="147.802734" xlink:href="#DejaVuSans-116"/>
     <use x="187.011719" xlink:href="#DejaVuSans-97"/>
     <use x="248.291016" xlink:href="#DejaVuSans-98"/>
     <use x="311.767578" xlink:href="#DejaVuSans-111"/>
     <use x="372.949219" xlink:href="#DejaVuSans-108"/>
     <use x="400.732422" xlink:href="#DejaVuSans-105"/>
     <use x="428.515625" xlink:href="#DejaVuSans-115"/>
     <use x="480.615234" xlink:href="#DejaVuSans-109"/>
    </g>
   </g>
   <g id="legend_1">
    <g id="patch_87">
     <path d="M 484.215312 381.854844 
L 562.585156 381.854844 
Q 564.785156 381.854844 564.785156 379.654844 
L 564.785156 300.025156 
Q 564.785156 297.825156 562.585156 297.825156 
L 484.215312 297.825156 
Q 482.015312 297.825156 482.015312 300.025156 
L 482.015312 379.654844 
Q 482.015312 381.854844 484.215312 381.854844 
z
" style="fill:#ffffff;opacity:0.8;stroke:#cccccc;stroke-linejoin:miter;"/>
    </g>
    <g id="patch_88">
     <path d="M 486.415312 310.583437 
L 508.415312 310.583437 
L 508.415312 302.883437 
L 486.415312 302.883437 
z
" style="fill:#96cac1;stroke:#ffffff;stroke-linejoin:miter;"/>
    </g>
    <g id="text_29">
     <!-- JHT-1d -->
     <defs>
      <path d="M 9.8125 72.90625 
L 19.671875 72.90625 
L 19.671875 5.078125 
Q 19.671875 -8.109375 14.671875 -14.0625 
Q 9.671875 -20.015625 -1.421875 -20.015625 
L -5.171875 -20.015625 
L -5.171875 -11.71875 
L -2.09375 -11.71875 
Q 4.4375 -11.71875 7.125 -8.046875 
Q 9.8125 -4.390625 9.8125 5.078125 
z
" id="DejaVuSans-74"/>
     </defs>
     <g style="fill:#262626;" transform="translate(517.215312 310.583437)scale(0.11 -0.11)">
      <use xlink:href="#DejaVuSans-74"/>
      <use x="29.492188" xlink:href="#DejaVuSans-72"/>
      <use x="104.6875" xlink:href="#DejaVuSans-84"/>
      <use x="165.630859" xlink:href="#DejaVuSans-45"/>
      <use x="201.714844" xlink:href="#DejaVuSans-49"/>
      <use x="265.337891" xlink:href="#DejaVuSans-100"/>
     </g>
    </g>
    <g id="patch_89">
     <path d="M 486.415312 326.729375 
L 508.415312 326.729375 
L 508.415312 319.029375 
L 486.415312 319.029375 
z
" style="fill:#f6f6bc;stroke:#ffffff;stroke-linejoin:miter;"/>
    </g>
    <g id="text_30">
     <!-- JHT-2d -->
     <g style="fill:#262626;" transform="translate(517.215312 326.729375)scale(0.11 -0.11)">
      <use xlink:href="#DejaVuSans-74"/>
      <use x="29.492188" xlink:href="#DejaVuSans-72"/>
      <use x="104.6875" xlink:href="#DejaVuSans-84"/>
      <use x="165.630859" xlink:href="#DejaVuSans-45"/>
      <use x="201.714844" xlink:href="#DejaVuSans-50"/>
      <use x="265.337891" xlink:href="#DejaVuSans-100"/>
     </g>
    </g>
    <g id="patch_90">
     <path d="M 486.415312 342.875312 
L 508.415312 342.875312 
L 508.415312 335.175312 
L 486.415312 335.175312 
z
" style="fill:#c1bed6;stroke:#ffffff;stroke-linejoin:miter;"/>
    </g>
    <g id="text_31">
     <!-- JHT-3d -->
     <defs>
      <path d="M 40.578125 39.3125 
Q 47.65625 37.796875 51.625 33 
Q 55.609375 28.21875 55.609375 21.1875 
Q 55.609375 10.40625 48.1875 4.484375 
Q 40.765625 -1.421875 27.09375 -1.421875 
Q 22.515625 -1.421875 17.65625 -0.515625 
Q 12.796875 0.390625 7.625 2.203125 
L 7.625 11.71875 
Q 11.71875 9.328125 16.59375 8.109375 
Q 21.484375 6.890625 26.8125 6.890625 
Q 36.078125 6.890625 40.9375 10.546875 
Q 45.796875 14.203125 45.796875 21.1875 
Q 45.796875 27.640625 41.28125 31.265625 
Q 36.765625 34.90625 28.71875 34.90625 
L 20.21875 34.90625 
L 20.21875 43.015625 
L 29.109375 43.015625 
Q 36.375 43.015625 40.234375 45.921875 
Q 44.09375 48.828125 44.09375 54.296875 
Q 44.09375 59.90625 40.109375 62.90625 
Q 36.140625 65.921875 28.71875 65.921875 
Q 24.65625 65.921875 20.015625 65.03125 
Q 15.375 64.15625 9.8125 62.3125 
L 9.8125 71.09375 
Q 15.4375 72.65625 20.34375 73.4375 
Q 25.25 74.21875 29.59375 74.21875 
Q 40.828125 74.21875 47.359375 69.109375 
Q 53.90625 64.015625 53.90625 55.328125 
Q 53.90625 49.265625 50.4375 45.09375 
Q 46.96875 40.921875 40.578125 39.3125 
z
" id="DejaVuSans-51"/>
     </defs>
     <g style="fill:#262626;" transform="translate(517.215312 342.875312)scale(0.11 -0.11)">
      <use xlink:href="#DejaVuSans-74"/>
      <use x="29.492188" xlink:href="#DejaVuSans-72"/>
      <use x="104.6875" xlink:href="#DejaVuSans-84"/>
      <use x="165.630859" xlink:href="#DejaVuSans-45"/>
      <use x="201.714844" xlink:href="#DejaVuSans-51"/>
      <use x="265.337891" xlink:href="#DejaVuSans-100"/>
     </g>
    </g>
    <g id="patch_91">
     <path d="M 486.415312 359.02125 
L 508.415312 359.02125 
L 508.415312 351.32125 
L 486.415312 351.32125 
z
" style="fill:#ea8e83;stroke:#ffffff;stroke-linejoin:miter;"/>
    </g>
    <g id="text_32">
     <!-- JHT-4d -->
     <g style="fill:#262626;" transform="translate(517.215312 359.02125)scale(0.11 -0.11)">
      <use xlink:href="#DejaVuSans-74"/>
      <use x="29.492188" xlink:href="#DejaVuSans-72"/>
      <use x="104.6875" xlink:href="#DejaVuSans-84"/>
      <use x="165.630859" xlink:href="#DejaVuSans-45"/>
      <use x="201.714844" xlink:href="#DejaVuSans-52"/>
      <use x="265.337891" xlink:href="#DejaVuSans-100"/>
     </g>
    </g>
    <g id="patch_92">
     <path d="M 486.415312 375.167187 
L 508.415312 375.167187 
L 508.415312 367.467187 
L 486.415312 367.467187 
z
" style="fill:#8aafc9;stroke:#ffffff;stroke-linejoin:miter;"/>
    </g>
    <g id="text_33">
     <!-- JHT-12d -->
     <g style="fill:#262626;" transform="translate(517.215312 375.167187)scale(0.11 -0.11)">
      <use xlink:href="#DejaVuSans-74"/>
      <use x="29.492188" xlink:href="#DejaVuSans-72"/>
      <use x="104.6875" xlink:href="#DejaVuSans-84"/>
      <use x="165.630859" xlink:href="#DejaVuSans-45"/>
      <use x="201.714844" xlink:href="#DejaVuSans-49"/>
      <use x="265.337891" xlink:href="#DejaVuSans-50"/>
      <use x="328.960938" xlink:href="#DejaVuSans-100"/>
     </g>
    </g>
   </g>
  </g>
 </g>
 <defs>
  <clipPath id="pcbc08165e9">
   <rect height="665.28" width="223.2" x="247.655313" y="7.2"/>
  </clipPath>
 </defs>
</svg>
