<?xml version="1.0" encoding="utf-8" standalone="no"?>
<!DOCTYPE svg PUBLIC "-//W3C//DTD SVG 1.1//EN"
  "http://www.w3.org/Graphics/SVG/1.1/DTD/svg11.dtd">
<!-- Created with matplotlib (https://matplotlib.org/) -->
<svg height="474.598125pt" version="1.1" viewBox="0 0 928.942187 474.598125" width="928.942187pt" xmlns="http://www.w3.org/2000/svg" xmlns:xlink="http://www.w3.org/1999/xlink">
 <defs>
  <style type="text/css">
*{stroke-linecap:butt;stroke-linejoin:round;white-space:pre;}
  </style>
 </defs>
 <g id="figure_1">
  <g id="patch_1">
   <path d="M 0 474.598125 
L 928.942187 474.598125 
L 928.942187 0 
L 0 0 
z
" style="fill:#ffffff;"/>
  </g>
  <g id="axes_1">
   <g id="patch_2">
    <path d="M 28.942188 450.72 
L 921.742188 450.72 
L 921.742188 7.2 
L 28.942188 7.2 
z
" style="fill:#ffffff;"/>
   </g>
   <g id="PolyCollection_1">
    <defs>
     <path d="M 107.020656 -52.774022 
L 99.663719 -52.774022 
L 98.589765 -56.341364 
L 97.295757 -59.908705 
L 95.766223 -63.476047 
L 93.993472 -67.043389 
L 91.97995 -70.61073 
L 89.740318 -74.178072 
L 87.302945 -77.745414 
L 84.710577 -81.312755 
L 82.01996 -84.880097 
L 79.300288 -88.447438 
L 76.630451 -92.01478 
L 74.095198 -95.582122 
L 71.780459 -99.149463 
L 69.768179 -102.716805 
L 68.131116 -106.284147 
L 66.928066 -109.851488 
L 66.199975 -113.41883 
L 65.967305 -116.986171 
L 66.228903 -120.553513 
L 66.962457 -124.120855 
L 68.126467 -127.688196 
L 69.663507 -131.255538 
L 71.504421 -134.82288 
L 73.573034 -138.390221 
L 75.79095 -141.957563 
L 78.082013 -145.524904 
L 80.376109 -149.092246 
L 82.612082 -152.659588 
L 84.739647 -156.226929 
L 86.720313 -159.794271 
L 88.527401 -163.361613 
L 90.145324 -166.928954 
L 91.568342 -170.496296 
L 92.798983 -174.063637 
L 93.846349 -177.630979 
L 94.724431 -181.198321 
L 95.450578 -184.765662 
L 96.044169 -188.333004 
L 96.525513 -191.900346 
L 96.914978 -195.467687 
L 97.23231 -199.035029 
L 97.496106 -202.602371 
L 97.723408 -206.169712 
L 97.929376 -209.737054 
L 98.127027 -213.304395 
L 98.327033 -216.871737 
L 98.537587 -220.439079 
L 98.764335 -224.00642 
L 99.010407 -227.573762 
L 99.27654 -231.141104 
L 99.56131 -234.708445 
L 99.861455 -238.275787 
L 100.172274 -241.843128 
L 100.488086 -245.41047 
L 100.802692 -248.977812 
L 101.109831 -252.545153 
L 101.403573 -256.112495 
L 101.678642 -259.679837 
L 101.930636 -263.247178 
L 102.156145 -266.81452 
L 102.352774 -270.381861 
L 102.519077 -273.949203 
L 102.654438 -277.516545 
L 102.758911 -281.083886 
L 102.833058 -284.651228 
L 102.877799 -288.21857 
L 102.894308 -291.785911 
L 102.883956 -295.353253 
L 102.848305 -298.920594 
L 102.789156 -302.487936 
L 102.708634 -306.055278 
L 102.609286 -309.622619 
L 102.494183 -313.189961 
L 102.366981 -316.757303 
L 102.231941 -320.324644 
L 102.09388 -323.891986 
L 101.958045 -327.459327 
L 101.829911 -331.026669 
L 101.714921 -334.594011 
L 101.618184 -338.161352 
L 101.544158 -341.728694 
L 101.496354 -345.296036 
L 101.477095 -348.863377 
L 101.487349 -352.430719 
L 101.526665 -355.99806 
L 101.59322 -359.565402 
L 101.683961 -363.132744 
L 101.794846 -366.700085 
L 101.921142 -370.267427 
L 102.057763 -373.834769 
L 102.199605 -377.40211 
L 102.341854 -380.969452 
L 102.480241 -384.536793 
L 102.611228 -388.104135 
L 102.73211 -391.671477 
L 102.841053 -395.238818 
L 102.93705 -398.80616 
L 103.019838 -402.373502 
L 103.089763 -405.940843 
L 103.594612 -405.940843 
L 103.594612 -405.940843 
L 103.664537 -402.373502 
L 103.747325 -398.80616 
L 103.843322 -395.238818 
L 103.952265 -391.671477 
L 104.073147 -388.104135 
L 104.204134 -384.536793 
L 104.342521 -380.969452 
L 104.48477 -377.40211 
L 104.626612 -373.834769 
L 104.763233 -370.267427 
L 104.889529 -366.700085 
L 105.000414 -363.132744 
L 105.091155 -359.565402 
L 105.15771 -355.99806 
L 105.197026 -352.430719 
L 105.20728 -348.863377 
L 105.188021 -345.296036 
L 105.140217 -341.728694 
L 105.066191 -338.161352 
L 104.969454 -334.594011 
L 104.854464 -331.026669 
L 104.72633 -327.459327 
L 104.590495 -323.891986 
L 104.452434 -320.324644 
L 104.317394 -316.757303 
L 104.190192 -313.189961 
L 104.075089 -309.622619 
L 103.975741 -306.055278 
L 103.895219 -302.487936 
L 103.83607 -298.920594 
L 103.800419 -295.353253 
L 103.790067 -291.785911 
L 103.806576 -288.21857 
L 103.851317 -284.651228 
L 103.925464 -281.083886 
L 104.029937 -277.516545 
L 104.165298 -273.949203 
L 104.331601 -270.381861 
L 104.52823 -266.81452 
L 104.753739 -263.247178 
L 105.005733 -259.679837 
L 105.280802 -256.112495 
L 105.574544 -252.545153 
L 105.881683 -248.977812 
L 106.196289 -245.41047 
L 106.512101 -241.843128 
L 106.82292 -238.275787 
L 107.123065 -234.708445 
L 107.407835 -231.141104 
L 107.673968 -227.573762 
L 107.92004 -224.00642 
L 108.146788 -220.439079 
L 108.357342 -216.871737 
L 108.557348 -213.304395 
L 108.754999 -209.737054 
L 108.960967 -206.169712 
L 109.188269 -202.602371 
L 109.452065 -199.035029 
L 109.769397 -195.467687 
L 110.158862 -191.900346 
L 110.640206 -188.333004 
L 111.233797 -184.765662 
L 111.959944 -181.198321 
L 112.838026 -177.630979 
L 113.885392 -174.063637 
L 115.116033 -170.496296 
L 116.539051 -166.928954 
L 118.156974 -163.361613 
L 119.964062 -159.794271 
L 121.944728 -156.226929 
L 124.072293 -152.659588 
L 126.308266 -149.092246 
L 128.602362 -145.524904 
L 130.893425 -141.957563 
L 133.111341 -138.390221 
L 135.179954 -134.82288 
L 137.020868 -131.255538 
L 138.557908 -127.688196 
L 139.721918 -124.120855 
L 140.455472 -120.553513 
L 140.71707 -116.986171 
L 140.4844 -113.41883 
L 139.756309 -109.851488 
L 138.553259 -106.284147 
L 136.916196 -102.716805 
L 134.903916 -99.149463 
L 132.589177 -95.582122 
L 130.053924 -92.01478 
L 127.384087 -88.447438 
L 124.664415 -84.880097 
L 121.973798 -81.312755 
L 119.38143 -77.745414 
L 116.944057 -74.178072 
L 114.704425 -70.61073 
L 112.690903 -67.043389 
L 110.918152 -63.476047 
L 109.388618 -59.908705 
L 108.09461 -56.341364 
L 107.020656 -52.774022 
z
" id="mee3fdf52e0" style="stroke:#3d3d3d;stroke-width:1.5;"/>
    </defs>
    <g clip-path="url(#pbe299c3840)">
     <use style="fill:#3274a1;stroke:#3d3d3d;stroke-width:1.5;" x="0" xlink:href="#mee3fdf52e0" y="474.598125"/>
    </g>
   </g>
   <g id="PolyCollection_2">
    <defs>
     <path d="M 255.303332 -44.038125 
L 248.981043 -44.038125 
L 248.075005 -48.110852 
L 246.987872 -52.18358 
L 245.707975 -56.256307 
L 244.230148 -60.329034 
L 242.557571 -64.401761 
L 240.703327 -68.474489 
L 238.691477 -72.547216 
L 236.557439 -76.619943 
L 234.347519 -80.69267 
L 232.117506 -84.765398 
L 229.930339 -88.838125 
L 227.852964 -92.910852 
L 225.95258 -96.98358 
L 224.292603 -101.056307 
L 222.92868 -105.129034 
L 221.905147 -109.201761 
L 221.252254 -113.274489 
L 220.984436 -117.347216 
L 221.099773 -121.419943 
L 221.580662 -125.49267 
L 222.395602 -129.565398 
L 223.501857 -133.638125 
L 224.848712 -137.710852 
L 226.380966 -141.78358 
L 228.042337 -145.856307 
L 229.778493 -149.929034 
L 231.5395 -154.001761 
L 233.281567 -158.074489 
L 234.968078 -162.147216 
L 236.569958 -166.219943 
L 238.065502 -170.29267 
L 239.439818 -174.365398 
L 240.684034 -178.438125 
L 241.794421 -182.510852 
L 242.771528 -186.58358 
L 243.61941 -190.656307 
L 244.344967 -194.729034 
L 244.957404 -198.801761 
L 245.467774 -202.874489 
L 245.888573 -206.947216 
L 246.233353 -211.019943 
L 246.516311 -215.09267 
L 246.751846 -219.165398 
L 246.954084 -223.238125 
L 247.136375 -227.310852 
L 247.310799 -231.38358 
L 247.487714 -235.456307 
L 247.675375 -239.529034 
L 247.879675 -243.601761 
L 248.104016 -247.674489 
L 248.349341 -251.747216 
L 248.614311 -255.819943 
L 248.895625 -259.89267 
L 249.188438 -263.965398 
L 249.486853 -268.038125 
L 249.784434 -272.110852 
L 250.074693 -276.18358 
L 250.351519 -280.256307 
L 250.609517 -284.329034 
L 250.844232 -288.401761 
L 251.052273 -292.474489 
L 251.231321 -296.547216 
L 251.380063 -300.619943 
L 251.49806 -304.69267 
L 251.585598 -308.765398 
L 251.64352 -312.838125 
L 251.673098 -316.910852 
L 251.675931 -320.98358 
L 251.653892 -325.056307 
L 251.609127 -329.129034 
L 251.544078 -333.201761 
L 251.461538 -337.274489 
L 251.364697 -341.347216 
L 251.257182 -345.419943 
L 251.143045 -349.49267 
L 251.02671 -353.565398 
L 250.912857 -357.638125 
L 250.806258 -361.710852 
L 250.711553 -365.78358 
L 250.633009 -369.856307 
L 250.574274 -373.929034 
L 250.538143 -378.001761 
L 250.526376 -382.074489 
L 250.53959 -386.147216 
L 250.577215 -390.219943 
L 250.637554 -394.29267 
L 250.717918 -398.365398 
L 250.814827 -402.438125 
L 250.924265 -406.510852 
L 251.041958 -410.58358 
L 251.163645 -414.656307 
L 251.28533 -418.729034 
L 251.403485 -422.801761 
L 251.515195 -426.874489 
L 251.618241 -430.947216 
L 251.711121 -435.019943 
L 251.793021 -439.09267 
L 251.863733 -443.165398 
L 251.923559 -447.238125 
L 252.360816 -447.238125 
L 252.360816 -447.238125 
L 252.420642 -443.165398 
L 252.491354 -439.09267 
L 252.573254 -435.019943 
L 252.666134 -430.947216 
L 252.76918 -426.874489 
L 252.88089 -422.801761 
L 252.999045 -418.729034 
L 253.12073 -414.656307 
L 253.242417 -410.58358 
L 253.36011 -406.510852 
L 253.469548 -402.438125 
L 253.566457 -398.365398 
L 253.646821 -394.29267 
L 253.70716 -390.219943 
L 253.744785 -386.147216 
L 253.757999 -382.074489 
L 253.746232 -378.001761 
L 253.710101 -373.929034 
L 253.651366 -369.856307 
L 253.572822 -365.78358 
L 253.478117 -361.710852 
L 253.371518 -357.638125 
L 253.257665 -353.565398 
L 253.14133 -349.49267 
L 253.027193 -345.419943 
L 252.919678 -341.347216 
L 252.822837 -337.274489 
L 252.740297 -333.201761 
L 252.675248 -329.129034 
L 252.630483 -325.056307 
L 252.608444 -320.98358 
L 252.611277 -316.910852 
L 252.640855 -312.838125 
L 252.698777 -308.765398 
L 252.786315 -304.69267 
L 252.904312 -300.619943 
L 253.053054 -296.547216 
L 253.232102 -292.474489 
L 253.440143 -288.401761 
L 253.674858 -284.329034 
L 253.932856 -280.256307 
L 254.209682 -276.18358 
L 254.499941 -272.110852 
L 254.797522 -268.038125 
L 255.095937 -263.965398 
L 255.38875 -259.89267 
L 255.670064 -255.819943 
L 255.935034 -251.747216 
L 256.180359 -247.674489 
L 256.4047 -243.601761 
L 256.609 -239.529034 
L 256.796661 -235.456307 
L 256.973576 -231.38358 
L 257.148 -227.310852 
L 257.330291 -223.238125 
L 257.532529 -219.165398 
L 257.768064 -215.09267 
L 258.051022 -211.019943 
L 258.395802 -206.947216 
L 258.816601 -202.874489 
L 259.326971 -198.801761 
L 259.939408 -194.729034 
L 260.664965 -190.656307 
L 261.512847 -186.58358 
L 262.489954 -182.510852 
L 263.600341 -178.438125 
L 264.844557 -174.365398 
L 266.218873 -170.29267 
L 267.714417 -166.219943 
L 269.316297 -162.147216 
L 271.002808 -158.074489 
L 272.744875 -154.001761 
L 274.505882 -149.929034 
L 276.242038 -145.856307 
L 277.903409 -141.78358 
L 279.435663 -137.710852 
L 280.782518 -133.638125 
L 281.888773 -129.565398 
L 282.703713 -125.49267 
L 283.184602 -121.419943 
L 283.299939 -117.347216 
L 283.032121 -113.274489 
L 282.379228 -109.201761 
L 281.355695 -105.129034 
L 279.991772 -101.056307 
L 278.331795 -96.98358 
L 276.431411 -92.910852 
L 274.354036 -88.838125 
L 272.166869 -84.765398 
L 269.936856 -80.69267 
L 267.726936 -76.619943 
L 265.592898 -72.547216 
L 263.581048 -68.474489 
L 261.726804 -64.401761 
L 260.054227 -60.329034 
L 258.5764 -56.256307 
L 257.296503 -52.18358 
L 256.20937 -48.110852 
L 255.303332 -44.038125 
z
" id="mcbd7035c7d" style="stroke:#3d3d3d;stroke-width:1.5;"/>
    </defs>
    <g clip-path="url(#pbe299c3840)">
     <use style="fill:#e1812c;stroke:#3d3d3d;stroke-width:1.5;" x="0" xlink:href="#mcbd7035c7d" y="474.598125"/>
    </g>
   </g>
   <g id="PolyCollection_3">
    <defs>
     <path d="M 404.386921 -51.682428 
L 397.497454 -51.682428 
L 396.553983 -55.137271 
L 395.429331 -58.592114 
L 394.111836 -62.046957 
L 392.59565 -65.5018 
L 390.882377 -68.956642 
L 388.982495 -72.411485 
L 386.916399 -75.866328 
L 384.714875 -79.321171 
L 382.4189 -82.776014 
L 380.078649 -86.230857 
L 377.751706 -89.6857 
L 375.500543 -93.140542 
L 373.389396 -96.595385 
L 371.480782 -100.050228 
L 369.831909 -103.505071 
L 368.491306 -106.959914 
L 367.495967 -110.414757 
L 366.869261 -113.8696 
L 366.619813 -117.324442 
L 366.741438 -120.779285 
L 367.214112 -124.234128 
L 368.00588 -127.688971 
L 369.075461 -131.143814 
L 370.375315 -134.598657 
L 371.85485 -138.0535 
L 373.463478 -141.508342 
L 375.153288 -144.963185 
L 376.881124 -148.418028 
L 378.609978 -151.872871 
L 380.309671 -155.327714 
L 381.956882 -158.782557 
L 383.534633 -162.2374 
L 385.031393 -165.692242 
L 386.439969 -169.147085 
L 387.756344 -172.601928 
L 388.978609 -176.056771 
L 390.106086 -179.511614 
L 391.138703 -182.966457 
L 392.07664 -186.4213 
L 392.920233 -189.876142 
L 393.670073 -193.330985 
L 394.327262 -196.785828 
L 394.893729 -200.240671 
L 395.372553 -203.695514 
L 395.768231 -207.150357 
L 396.086835 -210.605199 
L 396.33604 -214.060042 
L 396.525001 -217.514885 
L 396.664098 -220.969728 
L 396.764547 -224.424571 
L 396.837936 -227.879414 
L 396.895695 -231.334257 
L 396.948562 -234.789099 
L 397.006082 -238.243942 
L 397.076175 -241.698785 
L 397.164807 -245.153628 
L 397.275778 -248.608471 
L 397.410653 -252.063314 
L 397.568827 -255.518157 
L 397.747708 -258.972999 
L 397.94302 -262.427842 
L 398.149178 -265.882685 
L 398.359719 -269.337528 
L 398.56776 -272.792371 
L 398.766451 -276.247214 
L 398.94939 -279.702057 
L 399.110996 -283.156899 
L 399.246813 -286.611742 
L 399.35373 -290.066585 
L 399.430129 -293.521428 
L 399.475938 -296.976271 
L 399.492607 -300.431114 
L 399.483004 -303.885957 
L 399.451237 -307.340799 
L 399.402415 -310.795642 
L 399.342361 -314.250485 
L 399.277281 -317.705328 
L 399.213426 -321.160171 
L 399.156743 -324.615014 
L 399.112558 -328.069857 
L 399.085295 -331.524699 
L 399.078261 -334.979542 
L 399.093501 -338.434385 
L 399.131745 -341.889228 
L 399.192437 -345.344071 
L 399.273851 -348.798914 
L 399.373275 -352.253757 
L 399.487246 -355.708599 
L 399.611825 -359.163442 
L 399.742868 -362.618285 
L 399.876295 -366.073128 
L 400.008316 -369.527971 
L 400.135616 -372.982814 
L 400.25548 -376.437656 
L 400.365863 -379.892499 
L 400.4654 -383.347342 
L 400.553374 -386.802185 
L 400.629641 -390.257028 
L 400.694534 -393.711871 
L 401.189841 -393.711871 
L 401.189841 -393.711871 
L 401.254734 -390.257028 
L 401.331001 -386.802185 
L 401.418975 -383.347342 
L 401.518512 -379.892499 
L 401.628895 -376.437656 
L 401.748759 -372.982814 
L 401.876059 -369.527971 
L 402.00808 -366.073128 
L 402.141507 -362.618285 
L 402.27255 -359.163442 
L 402.397129 -355.708599 
L 402.5111 -352.253757 
L 402.610524 -348.798914 
L 402.691938 -345.344071 
L 402.75263 -341.889228 
L 402.790874 -338.434385 
L 402.806114 -334.979542 
L 402.79908 -331.524699 
L 402.771817 -328.069857 
L 402.727632 -324.615014 
L 402.670949 -321.160171 
L 402.607094 -317.705328 
L 402.542014 -314.250485 
L 402.48196 -310.795642 
L 402.433138 -307.340799 
L 402.401371 -303.885957 
L 402.391768 -300.431114 
L 402.408437 -296.976271 
L 402.454246 -293.521428 
L 402.530645 -290.066585 
L 402.637562 -286.611742 
L 402.773379 -283.156899 
L 402.934985 -279.702057 
L 403.117924 -276.247214 
L 403.316615 -272.792371 
L 403.524656 -269.337528 
L 403.735197 -265.882685 
L 403.941355 -262.427842 
L 404.136667 -258.972999 
L 404.315548 -255.518157 
L 404.473722 -252.063314 
L 404.608597 -248.608471 
L 404.719568 -245.153628 
L 404.8082 -241.698785 
L 404.878293 -238.243942 
L 404.935813 -234.789099 
L 404.98868 -231.334257 
L 405.046439 -227.879414 
L 405.119828 -224.424571 
L 405.220277 -220.969728 
L 405.359374 -217.514885 
L 405.548335 -214.060042 
L 405.79754 -210.605199 
L 406.116144 -207.150357 
L 406.511822 -203.695514 
L 406.990646 -200.240671 
L 407.557113 -196.785828 
L 408.214302 -193.330985 
L 408.964142 -189.876142 
L 409.807735 -186.4213 
L 410.745672 -182.966457 
L 411.778289 -179.511614 
L 412.905766 -176.056771 
L 414.128031 -172.601928 
L 415.444406 -169.147085 
L 416.852982 -165.692242 
L 418.349742 -162.2374 
L 419.927493 -158.782557 
L 421.574704 -155.327714 
L 423.274397 -151.872871 
L 425.003251 -148.418028 
L 426.731087 -144.963185 
L 428.420897 -141.508342 
L 430.029525 -138.0535 
L 431.50906 -134.598657 
L 432.808914 -131.143814 
L 433.878495 -127.688971 
L 434.670263 -124.234128 
L 435.142937 -120.779285 
L 435.264562 -117.324442 
L 435.015114 -113.8696 
L 434.388408 -110.414757 
L 433.393069 -106.959914 
L 432.052466 -103.505071 
L 430.403593 -100.050228 
L 428.494979 -96.595385 
L 426.383832 -93.140542 
L 424.132669 -89.6857 
L 421.805726 -86.230857 
L 419.465475 -82.776014 
L 417.1695 -79.321171 
L 414.967976 -75.866328 
L 412.90188 -72.411485 
L 411.001998 -68.956642 
L 409.288725 -65.5018 
L 407.772539 -62.046957 
L 406.455044 -58.592114 
L 405.330392 -55.137271 
L 404.386921 -51.682428 
z
" id="mbf97817944" style="stroke:#3d3d3d;stroke-width:1.5;"/>
    </defs>
    <g clip-path="url(#pbe299c3840)">
     <use style="fill:#3a923a;stroke:#3d3d3d;stroke-width:1.5;" x="0" xlink:href="#mbf97817944" y="474.598125"/>
    </g>
   </g>
   <g id="PolyCollection_4">
    <defs>
     <path d="M 553.158172 -53.509282 
L 546.326203 -53.509282 
L 545.231507 -57.33461 
L 543.892067 -61.159938 
L 542.289368 -64.985265 
L 540.414991 -68.810593 
L 538.273744 -72.635921 
L 535.886239 -76.461249 
L 533.290484 -80.286577 
L 530.5421 -84.111904 
L 527.7129 -87.937232 
L 524.887733 -91.76256 
L 522.159729 -95.587888 
L 519.624305 -99.413215 
L 517.372496 -103.238543 
L 515.484328 -107.063871 
L 514.022976 -110.889199 
L 513.030388 -114.714527 
L 512.52489 -118.539854 
L 512.501004 -122.365182 
L 512.931454 -126.19051 
L 513.771009 -130.015838 
L 514.961606 -133.841165 
L 516.438062 -137.666493 
L 518.133638 -141.491821 
L 519.984845 -145.317149 
L 521.935014 -149.142476 
L 523.936415 -152.967804 
L 525.95093 -156.793132 
L 527.949484 -160.61846 
L 529.910606 -164.443788 
L 531.818515 -168.269115 
L 533.661162 -172.094443 
L 535.428547 -175.919771 
L 537.111529 -179.745099 
L 538.701217 -183.570426 
L 540.188908 -187.395754 
L 541.566457 -191.221082 
L 542.826883 -195.04641 
L 543.965062 -198.871738 
L 544.978312 -202.697065 
L 545.866776 -206.522393 
L 546.633531 -210.347721 
L 547.284424 -214.173049 
L 547.827672 -217.998376 
L 548.273297 -221.823704 
L 548.632475 -225.649032 
L 548.916879 -229.47436 
L 549.138078 -233.299688 
L 549.307047 -237.125015 
L 549.433803 -240.950343 
L 549.527181 -244.775671 
L 549.594721 -248.600999 
L 549.642677 -252.426326 
L 549.676083 -256.251654 
L 549.698883 -260.076982 
L 549.714075 -263.90231 
L 549.723867 -267.727638 
L 549.729821 -271.552965 
L 549.732972 -275.378293 
L 549.733931 -279.203621 
L 549.732955 -283.028949 
L 549.729993 -286.854276 
L 549.724714 -290.679604 
L 549.716517 -294.504932 
L 549.704533 -298.33026 
L 549.687627 -302.155588 
L 549.664414 -305.980915 
L 549.633292 -309.806243 
L 549.592509 -313.631571 
L 549.540261 -317.456899 
L 549.47484 -321.282226 
L 549.394814 -325.107554 
L 549.299243 -328.932882 
L 549.187903 -332.75821 
L 549.061504 -336.583538 
L 548.921859 -340.408865 
L 548.771992 -344.234193 
L 548.61613 -348.059521 
L 548.459588 -351.884849 
L 548.308512 -355.710176 
L 548.169508 -359.535504 
L 548.04918 -363.360832 
L 547.953614 -367.18616 
L 547.887869 -371.011487 
L 547.855539 -374.836815 
L 547.85842 -378.662143 
L 547.896353 -382.487471 
L 547.967231 -386.312799 
L 548.067198 -390.138126 
L 548.190995 -393.963454 
L 548.332416 -397.788782 
L 548.484823 -401.61411 
L 548.641655 -405.439437 
L 548.796878 -409.264765 
L 548.945341 -413.090093 
L 549.083006 -416.915421 
L 549.207052 -420.740749 
L 549.315851 -424.566076 
L 549.40886 -428.391404 
L 549.486436 -432.216732 
L 549.997939 -432.216732 
L 549.997939 -432.216732 
L 550.075515 -428.391404 
L 550.168524 -424.566076 
L 550.277323 -420.740749 
L 550.401369 -416.915421 
L 550.539034 -413.090093 
L 550.687497 -409.264765 
L 550.84272 -405.439437 
L 550.999552 -401.61411 
L 551.151959 -397.788782 
L 551.29338 -393.963454 
L 551.417177 -390.138126 
L 551.517144 -386.312799 
L 551.588022 -382.487471 
L 551.625955 -378.662143 
L 551.628836 -374.836815 
L 551.596506 -371.011487 
L 551.530761 -367.18616 
L 551.435195 -363.360832 
L 551.314867 -359.535504 
L 551.175863 -355.710176 
L 551.024787 -351.884849 
L 550.868245 -348.059521 
L 550.712383 -344.234193 
L 550.562516 -340.408865 
L 550.422871 -336.583538 
L 550.296472 -332.75821 
L 550.185132 -328.932882 
L 550.089561 -325.107554 
L 550.009535 -321.282226 
L 549.944114 -317.456899 
L 549.891866 -313.631571 
L 549.851083 -309.806243 
L 549.819961 -305.980915 
L 549.796748 -302.155588 
L 549.779842 -298.33026 
L 549.767858 -294.504932 
L 549.759661 -290.679604 
L 549.754382 -286.854276 
L 549.75142 -283.028949 
L 549.750444 -279.203621 
L 549.751403 -275.378293 
L 549.754554 -271.552965 
L 549.760508 -267.727638 
L 549.7703 -263.90231 
L 549.785492 -260.076982 
L 549.808292 -256.251654 
L 549.841698 -252.426326 
L 549.889654 -248.600999 
L 549.957194 -244.775671 
L 550.050572 -240.950343 
L 550.177328 -237.125015 
L 550.346297 -233.299688 
L 550.567496 -229.47436 
L 550.8519 -225.649032 
L 551.211078 -221.823704 
L 551.656703 -217.998376 
L 552.199951 -214.173049 
L 552.850844 -210.347721 
L 553.617599 -206.522393 
L 554.506063 -202.697065 
L 555.519313 -198.871738 
L 556.657492 -195.04641 
L 557.917918 -191.221082 
L 559.295467 -187.395754 
L 560.783158 -183.570426 
L 562.372846 -179.745099 
L 564.055828 -175.919771 
L 565.823213 -172.094443 
L 567.66586 -168.269115 
L 569.573769 -164.443788 
L 571.534891 -160.61846 
L 573.533445 -156.793132 
L 575.54796 -152.967804 
L 577.549361 -149.142476 
L 579.49953 -145.317149 
L 581.350737 -141.491821 
L 583.046313 -137.666493 
L 584.522769 -133.841165 
L 585.713366 -130.015838 
L 586.552921 -126.19051 
L 586.983371 -122.365182 
L 586.959485 -118.539854 
L 586.453987 -114.714527 
L 585.461399 -110.889199 
L 584.000047 -107.063871 
L 582.111879 -103.238543 
L 579.86007 -99.413215 
L 577.324646 -95.587888 
L 574.596642 -91.76256 
L 571.771475 -87.937232 
L 568.942275 -84.111904 
L 566.193891 -80.286577 
L 563.598136 -76.461249 
L 561.210631 -72.635921 
L 559.069384 -68.810593 
L 557.195007 -64.985265 
L 555.592308 -61.159938 
L 554.252868 -57.33461 
L 553.158172 -53.509282 
z
" id="m9182f1eee3" style="stroke:#3d3d3d;stroke-width:1.5;"/>
    </defs>
    <g clip-path="url(#pbe299c3840)">
     <use style="fill:#c03d3e;stroke:#3d3d3d;stroke-width:1.5;" x="0" xlink:href="#m9182f1eee3" y="474.598125"/>
    </g>
   </g>
   <g id="PolyCollection_5">
    <defs>
     <path d="M 703.772417 -75.734663 
L 693.311958 -75.734663 
L 691.639868 -78.015896 
L 689.592404 -80.297129 
L 687.13941 -82.578362 
L 684.265344 -84.859595 
L 680.97402 -87.140828 
L 677.292618 -89.422062 
L 673.274313 -91.703295 
L 668.998954 -93.984528 
L 664.571367 -96.265761 
L 660.117101 -98.546994 
L 655.77574 -100.828227 
L 651.692271 -103.10946 
L 648.007263 -105.390693 
L 644.846874 -107.671926 
L 642.313767 -109.95316 
L 640.479969 -112.234393 
L 639.382496 -114.515626 
L 639.022187 -116.796859 
L 639.365844 -119.078092 
L 640.351265 -121.359325 
L 641.894499 -123.640558 
L 643.898312 -125.921791 
L 646.260857 -128.203024 
L 648.883521 -130.484258 
L 651.677202 -132.765491 
L 654.5665 -135.046724 
L 657.491691 -137.327957 
L 660.408607 -139.60919 
L 663.286861 -141.890423 
L 666.106955 -144.171656 
L 668.856877 -146.452889 
L 671.528778 -148.734122 
L 674.116154 -151.015356 
L 676.611822 -153.296589 
L 679.006827 -155.577822 
L 681.290218 -157.859055 
L 683.449557 -160.140288 
L 685.471909 -162.421521 
L 687.345085 -164.702754 
L 689.058879 -166.983987 
L 690.606115 -169.26522 
L 691.983368 -171.546454 
L 693.191306 -173.827687 
L 694.23464 -176.10892 
L 695.121738 -178.390153 
L 695.863987 -180.671386 
L 696.474992 -182.952619 
L 696.96972 -185.233852 
L 697.363665 -187.515085 
L 697.672113 -189.796318 
L 697.909541 -192.077552 
L 698.089176 -194.358785 
L 698.222718 -196.640018 
L 698.320199 -198.921251 
L 698.389975 -201.202484 
L 698.438794 -203.483717 
L 698.471929 -205.76495 
L 698.493341 -208.046183 
L 698.505844 -210.327417 
L 698.511253 -212.60865 
L 698.510524 -214.889883 
L 698.503847 -217.171116 
L 698.490734 -219.452349 
L 698.470077 -221.733582 
L 698.440207 -224.014815 
L 698.398966 -226.296048 
L 698.343803 -228.577281 
L 698.271917 -230.858515 
L 698.180454 -233.139748 
L 698.066762 -235.420981 
L 697.928709 -237.702214 
L 697.765034 -239.983447 
L 697.575708 -242.26468 
L 697.362269 -244.545913 
L 697.12808 -246.827146 
L 696.878457 -249.108379 
L 696.620629 -251.389613 
L 696.363504 -253.670846 
L 696.117229 -255.952079 
L 695.892563 -258.233312 
L 695.700122 -260.514545 
L 695.549554 -262.795778 
L 695.44874 -265.077011 
L 695.403113 -267.358244 
L 695.41517 -269.639477 
L 695.484249 -271.920711 
L 695.606587 -274.201944 
L 695.775661 -276.483177 
L 695.982762 -278.76441 
L 696.217739 -281.045643 
L 696.469819 -283.326876 
L 696.72841 -285.608109 
L 696.983818 -287.889342 
L 697.22779 -290.170575 
L 697.453877 -292.451809 
L 697.657584 -294.733042 
L 697.836334 -297.014275 
L 697.989284 -299.295508 
L 698.117025 -301.576741 
L 698.96735 -301.576741 
L 698.96735 -301.576741 
L 699.095091 -299.295508 
L 699.248041 -297.014275 
L 699.426791 -294.733042 
L 699.630498 -292.451809 
L 699.856585 -290.170575 
L 700.100557 -287.889342 
L 700.355965 -285.608109 
L 700.614556 -283.326876 
L 700.866636 -281.045643 
L 701.101613 -278.76441 
L 701.308714 -276.483177 
L 701.477788 -274.201944 
L 701.600126 -271.920711 
L 701.669205 -269.639477 
L 701.681262 -267.358244 
L 701.635635 -265.077011 
L 701.534821 -262.795778 
L 701.384253 -260.514545 
L 701.191812 -258.233312 
L 700.967146 -255.952079 
L 700.720871 -253.670846 
L 700.463746 -251.389613 
L 700.205918 -249.108379 
L 699.956295 -246.827146 
L 699.722106 -244.545913 
L 699.508667 -242.26468 
L 699.319341 -239.983447 
L 699.155666 -237.702214 
L 699.017613 -235.420981 
L 698.903921 -233.139748 
L 698.812458 -230.858515 
L 698.740572 -228.577281 
L 698.685409 -226.296048 
L 698.644168 -224.014815 
L 698.614298 -221.733582 
L 698.593641 -219.452349 
L 698.580528 -217.171116 
L 698.573851 -214.889883 
L 698.573122 -212.60865 
L 698.578531 -210.327417 
L 698.591034 -208.046183 
L 698.612446 -205.76495 
L 698.645581 -203.483717 
L 698.6944 -201.202484 
L 698.764176 -198.921251 
L 698.861657 -196.640018 
L 698.995199 -194.358785 
L 699.174834 -192.077552 
L 699.412262 -189.796318 
L 699.72071 -187.515085 
L 700.114655 -185.233852 
L 700.609383 -182.952619 
L 701.220388 -180.671386 
L 701.962637 -178.390153 
L 702.849735 -176.10892 
L 703.893069 -173.827687 
L 705.101007 -171.546454 
L 706.47826 -169.26522 
L 708.025496 -166.983987 
L 709.73929 -164.702754 
L 711.612466 -162.421521 
L 713.634818 -160.140288 
L 715.794157 -157.859055 
L 718.077548 -155.577822 
L 720.472553 -153.296589 
L 722.968221 -151.015356 
L 725.555597 -148.734122 
L 728.227498 -146.452889 
L 730.97742 -144.171656 
L 733.797514 -141.890423 
L 736.675768 -139.60919 
L 739.592684 -137.327957 
L 742.517875 -135.046724 
L 745.407173 -132.765491 
L 748.200854 -130.484258 
L 750.823518 -128.203024 
L 753.186063 -125.921791 
L 755.189876 -123.640558 
L 756.73311 -121.359325 
L 757.718531 -119.078092 
L 758.062188 -116.796859 
L 757.701879 -114.515626 
L 756.604406 -112.234393 
L 754.770608 -109.95316 
L 752.237501 -107.671926 
L 749.077112 -105.390693 
L 745.392104 -103.10946 
L 741.308635 -100.828227 
L 736.967274 -98.546994 
L 732.513008 -96.265761 
L 728.085421 -93.984528 
L 723.810062 -91.703295 
L 719.791757 -89.422062 
L 716.110355 -87.140828 
L 712.819031 -84.859595 
L 709.944965 -82.578362 
L 707.491971 -80.297129 
L 705.444507 -78.015896 
L 703.772417 -75.734663 
z
" id="me383d82909" style="stroke:#3d3d3d;stroke-width:1.5;"/>
    </defs>
    <g clip-path="url(#pbe299c3840)">
     <use style="fill:#9372b2;stroke:#3d3d3d;stroke-width:1.5;" x="0" xlink:href="#me383d82909" y="474.598125"/>
    </g>
   </g>
   <g id="PolyCollection_6">
    <defs>
     <path d="M 852.411585 -68.875984 
L 842.27279 -68.875984 
L 840.640776 -71.673267 
L 838.643553 -74.47055 
L 836.254158 -77.267833 
L 833.461034 -80.065116 
L 830.272701 -82.862399 
L 826.721548 -85.659682 
L 822.86611 -88.456965 
L 818.791281 -91.254249 
L 814.606084 -94.051532 
L 810.438909 -96.848815 
L 806.430438 -99.646098 
L 802.724814 -102.443381 
L 799.459907 -105.240664 
L 796.75767 -108.037947 
L 794.715638 -110.83523 
L 793.400494 -113.632513 
L 792.844361 -116.429796 
L 793.044116 -119.227079 
L 793.96365 -122.024362 
L 795.538623 -124.821646 
L 797.682995 -127.618929 
L 800.296477 -130.416212 
L 803.272025 -133.213495 
L 806.502651 -136.010778 
L 809.886991 -138.808061 
L 813.333359 -141.605344 
L 816.762244 -144.402627 
L 820.107391 -147.19991 
L 823.31578 -149.997193 
L 826.346822 -152.794476 
L 829.171112 -155.591759 
L 831.769014 -158.389043 
L 834.129269 -161.186326 
L 836.24771 -163.983609 
L 838.126151 -166.780892 
L 839.771399 -169.578175 
L 841.194369 -172.375458 
L 842.409262 -175.172741 
L 843.432756 -177.970024 
L 844.283229 -180.767307 
L 844.979994 -183.56459 
L 845.542584 -186.361873 
L 845.990106 -189.159156 
L 846.3407 -191.95644 
L 846.611106 -194.753723 
L 846.816376 -197.551006 
L 846.969697 -200.348289 
L 847.082348 -203.145572 
L 847.163746 -205.942855 
L 847.221569 -208.740138 
L 847.26194 -211.537421 
L 847.289623 -214.334704 
L 847.308243 -217.131987 
L 847.320488 -219.92927 
L 847.328296 -222.726553 
L 847.333007 -225.523837 
L 847.335497 -228.32112 
L 847.336269 -231.118403 
L 847.335515 -233.915686 
L 847.333154 -236.712969 
L 847.328842 -239.510252 
L 847.321966 -242.307535 
L 847.311619 -245.104818 
L 847.296577 -247.902101 
L 847.275283 -250.699384 
L 847.245834 -253.496667 
L 847.206021 -256.29395 
L 847.153392 -259.091234 
L 847.085382 -261.888517 
L 846.999499 -264.6858 
L 846.893573 -267.483083 
L 846.766053 -270.280366 
L 846.616331 -273.077649 
L 846.44506 -275.874932 
L 846.254424 -278.672215 
L 846.048317 -281.469498 
L 845.832373 -284.266781 
L 845.613833 -287.064064 
L 845.401219 -289.861347 
L 845.203829 -292.658631 
L 845.031086 -295.455914 
L 844.891804 -298.253197 
L 844.793449 -301.05048 
L 844.741471 -303.847763 
L 844.73881 -306.645046 
L 844.785617 -309.442329 
L 844.879242 -312.239612 
L 845.014482 -315.036895 
L 845.184056 -317.834178 
L 845.379261 -320.631461 
L 845.590701 -323.428744 
L 845.809034 -326.226028 
L 846.025626 -329.023311 
L 846.233082 -331.820594 
L 846.425584 -334.617877 
L 846.599055 -337.41516 
L 846.751134 -340.212443 
L 846.881014 -343.009726 
L 846.989184 -345.807009 
L 847.695191 -345.807009 
L 847.695191 -345.807009 
L 847.803361 -343.009726 
L 847.933241 -340.212443 
L 848.08532 -337.41516 
L 848.258791 -334.617877 
L 848.451293 -331.820594 
L 848.658749 -329.023311 
L 848.875341 -326.226028 
L 849.093674 -323.428744 
L 849.305114 -320.631461 
L 849.500319 -317.834178 
L 849.669893 -315.036895 
L 849.805133 -312.239612 
L 849.898758 -309.442329 
L 849.945565 -306.645046 
L 849.942904 -303.847763 
L 849.890926 -301.05048 
L 849.792571 -298.253197 
L 849.653289 -295.455914 
L 849.480546 -292.658631 
L 849.283156 -289.861347 
L 849.070542 -287.064064 
L 848.852002 -284.266781 
L 848.636058 -281.469498 
L 848.429951 -278.672215 
L 848.239315 -275.874932 
L 848.068044 -273.077649 
L 847.918322 -270.280366 
L 847.790802 -267.483083 
L 847.684876 -264.6858 
L 847.598993 -261.888517 
L 847.530983 -259.091234 
L 847.478354 -256.29395 
L 847.438541 -253.496667 
L 847.409092 -250.699384 
L 847.387798 -247.902101 
L 847.372756 -245.104818 
L 847.362409 -242.307535 
L 847.355533 -239.510252 
L 847.351221 -236.712969 
L 847.34886 -233.915686 
L 847.348106 -231.118403 
L 847.348878 -228.32112 
L 847.351368 -225.523837 
L 847.356079 -222.726553 
L 847.363887 -219.92927 
L 847.376132 -217.131987 
L 847.394752 -214.334704 
L 847.422435 -211.537421 
L 847.462806 -208.740138 
L 847.520629 -205.942855 
L 847.602027 -203.145572 
L 847.714678 -200.348289 
L 847.867999 -197.551006 
L 848.073269 -194.753723 
L 848.343675 -191.95644 
L 848.694269 -189.159156 
L 849.141791 -186.361873 
L 849.704381 -183.56459 
L 850.401146 -180.767307 
L 851.251619 -177.970024 
L 852.275113 -175.172741 
L 853.490006 -172.375458 
L 854.912976 -169.578175 
L 856.558224 -166.780892 
L 858.436665 -163.983609 
L 860.555106 -161.186326 
L 862.915361 -158.389043 
L 865.513263 -155.591759 
L 868.337553 -152.794476 
L 871.368595 -149.997193 
L 874.576984 -147.19991 
L 877.922131 -144.402627 
L 881.351016 -141.605344 
L 884.797384 -138.808061 
L 888.181724 -136.010778 
L 891.41235 -133.213495 
L 894.387898 -130.416212 
L 897.00138 -127.618929 
L 899.145752 -124.821646 
L 900.720725 -122.024362 
L 901.640259 -119.227079 
L 901.840014 -116.429796 
L 901.283881 -113.632513 
L 899.968737 -110.83523 
L 897.926705 -108.037947 
L 895.224468 -105.240664 
L 891.959561 -102.443381 
L 888.253937 -99.646098 
L 884.245466 -96.848815 
L 880.078291 -94.051532 
L 875.893094 -91.254249 
L 871.818265 -88.456965 
L 867.962827 -85.659682 
L 864.411674 -82.862399 
L 861.223341 -80.065116 
L 858.430217 -77.267833 
L 856.040822 -74.47055 
L 854.043599 -71.673267 
L 852.411585 -68.875984 
z
" id="mddf120db1c" style="stroke:#3d3d3d;stroke-width:1.5;"/>
    </defs>
    <g clip-path="url(#pbe299c3840)">
     <use style="fill:#845b53;stroke:#3d3d3d;stroke-width:1.5;" x="0" xlink:href="#mddf120db1c" y="474.598125"/>
    </g>
   </g>
   <g id="matplotlib.axis_1">
    <g id="xtick_1">
     <g id="line2d_1">
      <defs>
       <path d="M 0 0 
L 0 3.5 
" id="md3843c90c5" style="stroke:#000000;stroke-width:0.8;"/>
      </defs>
      <g>
       <use style="stroke:#000000;stroke-width:0.8;" x="103.342188" xlink:href="#md3843c90c5" y="450.72"/>
      </g>
     </g>
     <g id="text_1">
      <!-- QX1-1 -->
      <defs>
       <path d="M 39.40625 66.21875 
Q 28.65625 66.21875 22.328125 58.203125 
Q 16.015625 50.203125 16.015625 36.375 
Q 16.015625 22.609375 22.328125 14.59375 
Q 28.65625 6.59375 39.40625 6.59375 
Q 50.140625 6.59375 56.421875 14.59375 
Q 62.703125 22.609375 62.703125 36.375 
Q 62.703125 50.203125 56.421875 58.203125 
Q 50.140625 66.21875 39.40625 66.21875 
z
M 53.21875 1.3125 
L 66.21875 -12.890625 
L 54.296875 -12.890625 
L 43.5 -1.21875 
Q 41.890625 -1.3125 41.03125 -1.359375 
Q 40.1875 -1.421875 39.40625 -1.421875 
Q 24.03125 -1.421875 14.8125 8.859375 
Q 5.609375 19.140625 5.609375 36.375 
Q 5.609375 53.65625 14.8125 63.9375 
Q 24.03125 74.21875 39.40625 74.21875 
Q 54.734375 74.21875 63.90625 63.9375 
Q 73.09375 53.65625 73.09375 36.375 
Q 73.09375 23.6875 67.984375 14.640625 
Q 62.890625 5.609375 53.21875 1.3125 
z
" id="DejaVuSans-81"/>
       <path d="M 6.296875 72.90625 
L 16.890625 72.90625 
L 35.015625 45.796875 
L 53.21875 72.90625 
L 63.8125 72.90625 
L 40.375 37.890625 
L 65.375 0 
L 54.78125 0 
L 34.28125 31 
L 13.625 0 
L 2.984375 0 
L 29 38.921875 
z
" id="DejaVuSans-88"/>
       <path d="M 12.40625 8.296875 
L 28.515625 8.296875 
L 28.515625 63.921875 
L 10.984375 60.40625 
L 10.984375 69.390625 
L 28.421875 72.90625 
L 38.28125 72.90625 
L 38.28125 8.296875 
L 54.390625 8.296875 
L 54.390625 0 
L 12.40625 0 
z
" id="DejaVuSans-49"/>
       <path d="M 4.890625 31.390625 
L 31.203125 31.390625 
L 31.203125 23.390625 
L 4.890625 23.390625 
z
" id="DejaVuSans-45"/>
      </defs>
      <g transform="translate(87.814844 465.318437)scale(0.1 -0.1)">
       <use xlink:href="#DejaVuSans-81"/>
       <use x="78.710938" xlink:href="#DejaVuSans-88"/>
       <use x="147.216797" xlink:href="#DejaVuSans-49"/>
       <use x="210.839844" xlink:href="#DejaVuSans-45"/>
       <use x="246.923828" xlink:href="#DejaVuSans-49"/>
      </g>
     </g>
    </g>
    <g id="xtick_2">
     <g id="line2d_2">
      <g>
       <use style="stroke:#000000;stroke-width:0.8;" x="252.142187" xlink:href="#md3843c90c5" y="450.72"/>
      </g>
     </g>
     <g id="text_2">
      <!-- QX1-2 -->
      <defs>
       <path d="M 19.1875 8.296875 
L 53.609375 8.296875 
L 53.609375 0 
L 7.328125 0 
L 7.328125 8.296875 
Q 12.9375 14.109375 22.625 23.890625 
Q 32.328125 33.6875 34.8125 36.53125 
Q 39.546875 41.84375 41.421875 45.53125 
Q 43.3125 49.21875 43.3125 52.78125 
Q 43.3125 58.59375 39.234375 62.25 
Q 35.15625 65.921875 28.609375 65.921875 
Q 23.96875 65.921875 18.8125 64.3125 
Q 13.671875 62.703125 7.8125 59.421875 
L 7.8125 69.390625 
Q 13.765625 71.78125 18.9375 73 
Q 24.125 74.21875 28.421875 74.21875 
Q 39.75 74.21875 46.484375 68.546875 
Q 53.21875 62.890625 53.21875 53.421875 
Q 53.21875 48.921875 51.53125 44.890625 
Q 49.859375 40.875 45.40625 35.40625 
Q 44.1875 33.984375 37.640625 27.21875 
Q 31.109375 20.453125 19.1875 8.296875 
z
" id="DejaVuSans-50"/>
      </defs>
      <g transform="translate(236.614844 465.318437)scale(0.1 -0.1)">
       <use xlink:href="#DejaVuSans-81"/>
       <use x="78.710938" xlink:href="#DejaVuSans-88"/>
       <use x="147.216797" xlink:href="#DejaVuSans-49"/>
       <use x="210.839844" xlink:href="#DejaVuSans-45"/>
       <use x="246.923828" xlink:href="#DejaVuSans-50"/>
      </g>
     </g>
    </g>
    <g id="xtick_3">
     <g id="line2d_3">
      <g>
       <use style="stroke:#000000;stroke-width:0.8;" x="400.942187" xlink:href="#md3843c90c5" y="450.72"/>
      </g>
     </g>
     <g id="text_3">
      <!-- QX1-3 -->
      <defs>
       <path d="M 40.578125 39.3125 
Q 47.65625 37.796875 51.625 33 
Q 55.609375 28.21875 55.609375 21.1875 
Q 55.609375 10.40625 48.1875 4.484375 
Q 40.765625 -1.421875 27.09375 -1.421875 
Q 22.515625 -1.421875 17.65625 -0.515625 
Q 12.796875 0.390625 7.625 2.203125 
L 7.625 11.71875 
Q 11.71875 9.328125 16.59375 8.109375 
Q 21.484375 6.890625 26.8125 6.890625 
Q 36.078125 6.890625 40.9375 10.546875 
Q 45.796875 14.203125 45.796875 21.1875 
Q 45.796875 27.640625 41.28125 31.265625 
Q 36.765625 34.90625 28.71875 34.90625 
L 20.21875 34.90625 
L 20.21875 43.015625 
L 29.109375 43.015625 
Q 36.375 43.015625 40.234375 45.921875 
Q 44.09375 48.828125 44.09375 54.296875 
Q 44.09375 59.90625 40.109375 62.90625 
Q 36.140625 65.921875 28.71875 65.921875 
Q 24.65625 65.921875 20.015625 65.03125 
Q 15.375 64.15625 9.8125 62.3125 
L 9.8125 71.09375 
Q 15.4375 72.65625 20.34375 73.4375 
Q 25.25 74.21875 29.59375 74.21875 
Q 40.828125 74.21875 47.359375 69.109375 
Q 53.90625 64.015625 53.90625 55.328125 
Q 53.90625 49.265625 50.4375 45.09375 
Q 46.96875 40.921875 40.578125 39.3125 
z
" id="DejaVuSans-51"/>
      </defs>
      <g transform="translate(385.414844 465.318437)scale(0.1 -0.1)">
       <use xlink:href="#DejaVuSans-81"/>
       <use x="78.710938" xlink:href="#DejaVuSans-88"/>
       <use x="147.216797" xlink:href="#DejaVuSans-49"/>
       <use x="210.839844" xlink:href="#DejaVuSans-45"/>
       <use x="246.923828" xlink:href="#DejaVuSans-51"/>
      </g>
     </g>
    </g>
    <g id="xtick_4">
     <g id="line2d_4">
      <g>
       <use style="stroke:#000000;stroke-width:0.8;" x="549.742188" xlink:href="#md3843c90c5" y="450.72"/>
      </g>
     </g>
     <g id="text_4">
      <!-- QX5-1 -->
      <defs>
       <path d="M 10.796875 72.90625 
L 49.515625 72.90625 
L 49.515625 64.59375 
L 19.828125 64.59375 
L 19.828125 46.734375 
Q 21.96875 47.46875 24.109375 47.828125 
Q 26.265625 48.1875 28.421875 48.1875 
Q 40.625 48.1875 47.75 41.5 
Q 54.890625 34.8125 54.890625 23.390625 
Q 54.890625 11.625 47.5625 5.09375 
Q 40.234375 -1.421875 26.90625 -1.421875 
Q 22.3125 -1.421875 17.546875 -0.640625 
Q 12.796875 0.140625 7.71875 1.703125 
L 7.71875 11.625 
Q 12.109375 9.234375 16.796875 8.0625 
Q 21.484375 6.890625 26.703125 6.890625 
Q 35.15625 6.890625 40.078125 11.328125 
Q 45.015625 15.765625 45.015625 23.390625 
Q 45.015625 31 40.078125 35.4375 
Q 35.15625 39.890625 26.703125 39.890625 
Q 22.75 39.890625 18.8125 39.015625 
Q 14.890625 38.140625 10.796875 36.28125 
z
" id="DejaVuSans-53"/>
      </defs>
      <g transform="translate(534.214844 465.318437)scale(0.1 -0.1)">
       <use xlink:href="#DejaVuSans-81"/>
       <use x="78.710938" xlink:href="#DejaVuSans-88"/>
       <use x="147.216797" xlink:href="#DejaVuSans-53"/>
       <use x="210.839844" xlink:href="#DejaVuSans-45"/>
       <use x="246.923828" xlink:href="#DejaVuSans-49"/>
      </g>
     </g>
    </g>
    <g id="xtick_5">
     <g id="line2d_5">
      <g>
       <use style="stroke:#000000;stroke-width:0.8;" x="698.542187" xlink:href="#md3843c90c5" y="450.72"/>
      </g>
     </g>
     <g id="text_5">
      <!-- QX5-2 -->
      <g transform="translate(683.014844 465.318437)scale(0.1 -0.1)">
       <use xlink:href="#DejaVuSans-81"/>
       <use x="78.710938" xlink:href="#DejaVuSans-88"/>
       <use x="147.216797" xlink:href="#DejaVuSans-53"/>
       <use x="210.839844" xlink:href="#DejaVuSans-45"/>
       <use x="246.923828" xlink:href="#DejaVuSans-50"/>
      </g>
     </g>
    </g>
    <g id="xtick_6">
     <g id="line2d_6">
      <g>
       <use style="stroke:#000000;stroke-width:0.8;" x="847.342187" xlink:href="#md3843c90c5" y="450.72"/>
      </g>
     </g>
     <g id="text_6">
      <!-- QX5-3 -->
      <g transform="translate(831.814844 465.318437)scale(0.1 -0.1)">
       <use xlink:href="#DejaVuSans-81"/>
       <use x="78.710938" xlink:href="#DejaVuSans-88"/>
       <use x="147.216797" xlink:href="#DejaVuSans-53"/>
       <use x="210.839844" xlink:href="#DejaVuSans-45"/>
       <use x="246.923828" xlink:href="#DejaVuSans-51"/>
      </g>
     </g>
    </g>
   </g>
   <g id="matplotlib.axis_2">
    <g id="ytick_1">
     <g id="line2d_7">
      <defs>
       <path d="M 0 0 
L -3.5 0 
" id="m7e7ee97532" style="stroke:#000000;stroke-width:0.8;"/>
      </defs>
      <g>
       <use style="stroke:#000000;stroke-width:0.8;" x="28.942188" xlink:href="#m7e7ee97532" y="439.313945"/>
      </g>
     </g>
     <g id="text_7">
      <!-- −2 -->
      <defs>
       <path d="M 10.59375 35.5 
L 73.1875 35.5 
L 73.1875 27.203125 
L 10.59375 27.203125 
z
" id="DejaVuSans-8722"/>
      </defs>
      <g transform="translate(7.2 443.113164)scale(0.1 -0.1)">
       <use xlink:href="#DejaVuSans-8722"/>
       <use x="83.789062" xlink:href="#DejaVuSans-50"/>
      </g>
     </g>
    </g>
    <g id="ytick_2">
     <g id="line2d_8">
      <g>
       <use style="stroke:#000000;stroke-width:0.8;" x="28.942188" xlink:href="#m7e7ee97532" y="365.310798"/>
      </g>
     </g>
     <g id="text_8">
      <!-- 0 -->
      <defs>
       <path d="M 31.78125 66.40625 
Q 24.171875 66.40625 20.328125 58.90625 
Q 16.5 51.421875 16.5 36.375 
Q 16.5 21.390625 20.328125 13.890625 
Q 24.171875 6.390625 31.78125 6.390625 
Q 39.453125 6.390625 43.28125 13.890625 
Q 47.125 21.390625 47.125 36.375 
Q 47.125 51.421875 43.28125 58.90625 
Q 39.453125 66.40625 31.78125 66.40625 
z
M 31.78125 74.21875 
Q 44.046875 74.21875 50.515625 64.515625 
Q 56.984375 54.828125 56.984375 36.375 
Q 56.984375 17.96875 50.515625 8.265625 
Q 44.046875 -1.421875 31.78125 -1.421875 
Q 19.53125 -1.421875 13.0625 8.265625 
Q 6.59375 17.96875 6.59375 36.375 
Q 6.59375 54.828125 13.0625 64.515625 
Q 19.53125 74.21875 31.78125 74.21875 
z
" id="DejaVuSans-48"/>
      </defs>
      <g transform="translate(15.579688 369.110017)scale(0.1 -0.1)">
       <use xlink:href="#DejaVuSans-48"/>
      </g>
     </g>
    </g>
    <g id="ytick_3">
     <g id="line2d_9">
      <g>
       <use style="stroke:#000000;stroke-width:0.8;" x="28.942188" xlink:href="#m7e7ee97532" y="291.307651"/>
      </g>
     </g>
     <g id="text_9">
      <!-- 2 -->
      <g transform="translate(15.579688 295.10687)scale(0.1 -0.1)">
       <use xlink:href="#DejaVuSans-50"/>
      </g>
     </g>
    </g>
    <g id="ytick_4">
     <g id="line2d_10">
      <g>
       <use style="stroke:#000000;stroke-width:0.8;" x="28.942188" xlink:href="#m7e7ee97532" y="217.304504"/>
      </g>
     </g>
     <g id="text_10">
      <!-- 4 -->
      <defs>
       <path d="M 37.796875 64.3125 
L 12.890625 25.390625 
L 37.796875 25.390625 
z
M 35.203125 72.90625 
L 47.609375 72.90625 
L 47.609375 25.390625 
L 58.015625 25.390625 
L 58.015625 17.1875 
L 47.609375 17.1875 
L 47.609375 0 
L 37.796875 0 
L 37.796875 17.1875 
L 4.890625 17.1875 
L 4.890625 26.703125 
z
" id="DejaVuSans-52"/>
      </defs>
      <g transform="translate(15.579688 221.103723)scale(0.1 -0.1)">
       <use xlink:href="#DejaVuSans-52"/>
      </g>
     </g>
    </g>
    <g id="ytick_5">
     <g id="line2d_11">
      <g>
       <use style="stroke:#000000;stroke-width:0.8;" x="28.942188" xlink:href="#m7e7ee97532" y="143.301358"/>
      </g>
     </g>
     <g id="text_11">
      <!-- 6 -->
      <defs>
       <path d="M 33.015625 40.375 
Q 26.375 40.375 22.484375 35.828125 
Q 18.609375 31.296875 18.609375 23.390625 
Q 18.609375 15.53125 22.484375 10.953125 
Q 26.375 6.390625 33.015625 6.390625 
Q 39.65625 6.390625 43.53125 10.953125 
Q 47.40625 15.53125 47.40625 23.390625 
Q 47.40625 31.296875 43.53125 35.828125 
Q 39.65625 40.375 33.015625 40.375 
z
M 52.59375 71.296875 
L 52.59375 62.3125 
Q 48.875 64.0625 45.09375 64.984375 
Q 41.3125 65.921875 37.59375 65.921875 
Q 27.828125 65.921875 22.671875 59.328125 
Q 17.53125 52.734375 16.796875 39.40625 
Q 19.671875 43.65625 24.015625 45.921875 
Q 28.375 48.1875 33.59375 48.1875 
Q 44.578125 48.1875 50.953125 41.515625 
Q 57.328125 34.859375 57.328125 23.390625 
Q 57.328125 12.15625 50.6875 5.359375 
Q 44.046875 -1.421875 33.015625 -1.421875 
Q 20.359375 -1.421875 13.671875 8.265625 
Q 6.984375 17.96875 6.984375 36.375 
Q 6.984375 53.65625 15.1875 63.9375 
Q 23.390625 74.21875 37.203125 74.21875 
Q 40.921875 74.21875 44.703125 73.484375 
Q 48.484375 72.75 52.59375 71.296875 
z
" id="DejaVuSans-54"/>
      </defs>
      <g transform="translate(15.579688 147.100576)scale(0.1 -0.1)">
       <use xlink:href="#DejaVuSans-54"/>
      </g>
     </g>
    </g>
    <g id="ytick_6">
     <g id="line2d_12">
      <g>
       <use style="stroke:#000000;stroke-width:0.8;" x="28.942188" xlink:href="#m7e7ee97532" y="69.298211"/>
      </g>
     </g>
     <g id="text_12">
      <!-- 8 -->
      <defs>
       <path d="M 31.78125 34.625 
Q 24.75 34.625 20.71875 30.859375 
Q 16.703125 27.09375 16.703125 20.515625 
Q 16.703125 13.921875 20.71875 10.15625 
Q 24.75 6.390625 31.78125 6.390625 
Q 38.8125 6.390625 42.859375 10.171875 
Q 46.921875 13.96875 46.921875 20.515625 
Q 46.921875 27.09375 42.890625 30.859375 
Q 38.875 34.625 31.78125 34.625 
z
M 21.921875 38.8125 
Q 15.578125 40.375 12.03125 44.71875 
Q 8.5 49.078125 8.5 55.328125 
Q 8.5 64.0625 14.71875 69.140625 
Q 20.953125 74.21875 31.78125 74.21875 
Q 42.671875 74.21875 48.875 69.140625 
Q 55.078125 64.0625 55.078125 55.328125 
Q 55.078125 49.078125 51.53125 44.71875 
Q 48 40.375 41.703125 38.8125 
Q 48.828125 37.15625 52.796875 32.3125 
Q 56.78125 27.484375 56.78125 20.515625 
Q 56.78125 9.90625 50.3125 4.234375 
Q 43.84375 -1.421875 31.78125 -1.421875 
Q 19.734375 -1.421875 13.25 4.234375 
Q 6.78125 9.90625 6.78125 20.515625 
Q 6.78125 27.484375 10.78125 32.3125 
Q 14.796875 37.15625 21.921875 38.8125 
z
M 18.3125 54.390625 
Q 18.3125 48.734375 21.84375 45.5625 
Q 25.390625 42.390625 31.78125 42.390625 
Q 38.140625 42.390625 41.71875 45.5625 
Q 45.3125 48.734375 45.3125 54.390625 
Q 45.3125 60.0625 41.71875 63.234375 
Q 38.140625 66.40625 31.78125 66.40625 
Q 25.390625 66.40625 21.84375 63.234375 
Q 18.3125 60.0625 18.3125 54.390625 
z
" id="DejaVuSans-56"/>
      </defs>
      <g transform="translate(15.579688 73.097429)scale(0.1 -0.1)">
       <use xlink:href="#DejaVuSans-56"/>
      </g>
     </g>
    </g>
   </g>
   <g id="line2d_13">
    <path clip-path="url(#pbe299c3840)" d="M 103.342188 365.310798 
L 103.342188 313.13858 
" style="fill:none;stroke:#3d3d3d;stroke-linecap:square;stroke-width:1.5;"/>
   </g>
   <g id="line2d_14">
    <path clip-path="url(#pbe299c3840)" d="M 103.342188 365.310798 
L 103.342188 335.894547 
" style="fill:none;stroke:#3d3d3d;stroke-linecap:square;stroke-width:4.5;"/>
   </g>
   <g id="line2d_15">
    <path clip-path="url(#pbe299c3840)" d="M 252.142187 365.310798 
L 252.142187 270.58677 
" style="fill:none;stroke:#3d3d3d;stroke-linecap:square;stroke-width:1.5;"/>
   </g>
   <g id="line2d_16">
    <path clip-path="url(#pbe299c3840)" d="M 252.142187 365.310798 
L 252.142187 318.3188 
" style="fill:none;stroke:#3d3d3d;stroke-linecap:square;stroke-width:4.5;"/>
   </g>
   <g id="line2d_17">
    <path clip-path="url(#pbe299c3840)" d="M 400.942187 365.310798 
L 400.942187 290.197604 
" style="fill:none;stroke:#3d3d3d;stroke-linecap:square;stroke-width:1.5;"/>
   </g>
   <g id="line2d_18">
    <path clip-path="url(#pbe299c3840)" d="M 400.942187 365.310798 
L 400.942187 320.168878 
" style="fill:none;stroke:#3d3d3d;stroke-linecap:square;stroke-width:4.5;"/>
   </g>
   <g id="line2d_19">
    <path clip-path="url(#pbe299c3840)" d="M 549.742188 365.310798 
L 549.742188 296.487871 
" style="fill:none;stroke:#3d3d3d;stroke-linecap:square;stroke-width:1.5;"/>
   </g>
   <g id="line2d_20">
    <path clip-path="url(#pbe299c3840)" d="M 549.742188 365.310798 
L 549.742188 325.626611 
" style="fill:none;stroke:#3d3d3d;stroke-linecap:square;stroke-width:4.5;"/>
   </g>
   <g id="line2d_21">
    <path clip-path="url(#pbe299c3840)" d="M 698.542187 365.310798 
L 698.542187 317.578768 
" style="fill:none;stroke:#3d3d3d;stroke-linecap:square;stroke-width:1.5;"/>
   </g>
   <g id="line2d_22">
    <path clip-path="url(#pbe299c3840)" d="M 698.542187 365.310798 
L 698.542187 338.854673 
" style="fill:none;stroke:#3d3d3d;stroke-linecap:square;stroke-width:4.5;"/>
   </g>
   <g id="line2d_23">
    <path clip-path="url(#pbe299c3840)" d="M 847.342187 365.310798 
L 847.342187 319.058831 
" style="fill:none;stroke:#3d3d3d;stroke-linecap:square;stroke-width:1.5;"/>
   </g>
   <g id="line2d_24">
    <path clip-path="url(#pbe299c3840)" d="M 847.342187 365.310798 
L 847.342187 343.664878 
" style="fill:none;stroke:#3d3d3d;stroke-linecap:square;stroke-width:4.5;"/>
   </g>
   <g id="patch_3">
    <path d="M 28.942188 450.72 
L 28.942188 7.2 
" style="fill:none;stroke:#000000;stroke-linecap:square;stroke-linejoin:miter;stroke-width:0.8;"/>
   </g>
   <g id="patch_4">
    <path d="M 921.742188 450.72 
L 921.742188 7.2 
" style="fill:none;stroke:#000000;stroke-linecap:square;stroke-linejoin:miter;stroke-width:0.8;"/>
   </g>
   <g id="patch_5">
    <path d="M 28.942188 450.72 
L 921.742187 450.72 
" style="fill:none;stroke:#000000;stroke-linecap:square;stroke-linejoin:miter;stroke-width:0.8;"/>
   </g>
   <g id="patch_6">
    <path d="M 28.942188 7.2 
L 921.742187 7.2 
" style="fill:none;stroke:#000000;stroke-linecap:square;stroke-linejoin:miter;stroke-width:0.8;"/>
   </g>
   <g id="PathCollection_1">
    <defs>
     <path d="M 0 1.5 
C 0.397805 1.5 0.77937 1.341951 1.06066 1.06066 
C 1.341951 0.77937 1.5 0.397805 1.5 0 
C 1.5 -0.397805 1.341951 -0.77937 1.06066 -1.06066 
C 0.77937 -1.341951 0.397805 -1.5 0 -1.5 
C -0.397805 -1.5 -0.77937 -1.341951 -1.06066 -1.06066 
C -1.341951 -0.77937 -1.5 -0.397805 -1.5 0 
C -1.5 0.397805 -1.341951 0.77937 -1.06066 1.06066 
C -0.77937 1.341951 -0.397805 1.5 0 1.5 
z
" id="m016b529d78" style="stroke:#3d3d3d;"/>
    </defs>
    <g clip-path="url(#pbe299c3840)">
     <use style="fill:#ffffff;stroke:#3d3d3d;" x="103.342188" xlink:href="#m016b529d78" y="358.835523"/>
    </g>
   </g>
   <g id="PathCollection_2">
    <g clip-path="url(#pbe299c3840)">
     <use style="fill:#ffffff;stroke:#3d3d3d;" x="252.142187" xlink:href="#m016b529d78" y="359.575554"/>
    </g>
   </g>
   <g id="PathCollection_3">
    <g clip-path="url(#pbe299c3840)">
     <use style="fill:#ffffff;stroke:#3d3d3d;" x="400.942187" xlink:href="#m016b529d78" y="357.910483"/>
    </g>
   </g>
   <g id="PathCollection_4">
    <g clip-path="url(#pbe299c3840)">
     <use style="fill:#ffffff;stroke:#3d3d3d;" x="549.742188" xlink:href="#m016b529d78" y="355.135365"/>
    </g>
   </g>
   <g id="PathCollection_5">
    <g clip-path="url(#pbe299c3840)">
     <use style="fill:#ffffff;stroke:#3d3d3d;" x="698.542187" xlink:href="#m016b529d78" y="357.910483"/>
    </g>
   </g>
   <g id="PathCollection_6">
    <g clip-path="url(#pbe299c3840)">
     <use style="fill:#ffffff;stroke:#3d3d3d;" x="847.342187" xlink:href="#m016b529d78" y="360.130578"/>
    </g>
   </g>
  </g>
 </g>
 <defs>
  <clipPath id="pbe299c3840">
   <rect height="443.52" width="892.8" x="28.942188" y="7.2"/>
  </clipPath>
 </defs>
</svg>
